<?xml version="1.0" encoding="UTF-8" standalone="no"?>
<!-- Created with Inkscape (http://www.inkscape.org/) -->

<svg
   xmlns:dc="http://purl.org/dc/elements/1.1/"
   xmlns:cc="http://creativecommons.org/ns#"
   xmlns:rdf="http://www.w3.org/1999/02/22-rdf-syntax-ns#"
   xmlns:svg="http://www.w3.org/2000/svg"
   xmlns="http://www.w3.org/2000/svg"
   xmlns:sodipodi="http://sodipodi.sourceforge.net/DTD/sodipodi-0.dtd"
   xmlns:inkscape="http://www.inkscape.org/namespaces/inkscape"
   width="4.0310836cm"
   height="1.3cm"
   viewBox="0 0 9cm 3.5cm"
   version="1.1"
   id="svg3704"
   inkscape:version="0.92.1 r15371"
   sodipodi:docname="coloredParkoursLogo.svg">
  <defs
     id="defs3698" />
  <sodipodi:namedview
     id="base"
     pagecolor="#ffffff"
     bordercolor="#666666"
     borderopacity="1.0"
     inkscape:pageopacity="0.0"
     inkscape:pageshadow="2"
     inkscape:zoom="1.979899"
     inkscape:cx="222.77743"
     inkscape:cy="-18.006662"
     inkscape:document-units="mm"
     inkscape:current-layer="layer1"
     showgrid="false"
     showborder="true"
     fit-margin-top="0"
     fit-margin-left="0"
     fit-margin-right="0"
     fit-margin-bottom="0"
     inkscape:window-width="1280"
     inkscape:window-height="961"
     inkscape:window-x="-8"
     inkscape:window-y="-8"
     inkscape:window-maximized="1" />
  <metadata
     id="metadata3701">
    <rdf:RDF>
      <cc:Work
         rdf:about="">
        <dc:format>image/svg+xml</dc:format>
        <dc:type
           rdf:resource="http://purl.org/dc/dcmitype/StillImage" />
        <dc:title></dc:title>
      </cc:Work>
    </rdf:RDF>
  </metadata>
  <g
     inkscape:label="Calque 1"
     inkscape:groupmode="layer"
     id="layer1"
     transform="matrix(0.56764063,0,0,0.56764063,29.879701,-71.95738)">
    <g
       id="g3739"
       transform="matrix(0.8248731,0,0,0.8248731,-109.89146,-39.028862)">
      <path
         style="fill:#d0d0d0;stroke-width:0.26458335"
         d="m 218.35685,305.77476 c -11.69049,-1.51844 -21.84763,-6.40396 -30.25599,-14.55289 -7.94078,-7.6958 -12.83346,-16.62076 -15.15988,-27.65385 -0.67957,-3.22287 -0.72527,-3.85635 -0.72527,-10.05417 0,-6.18469 0.0467,-6.83511 0.71806,-10.0077 1.86241,-8.80067 5.39693,-16.38368 10.68927,-22.93293 1.90248,-2.3543 6.70324,-7.06511 8.93693,-8.76946 6.14471,-4.68855 13.81563,-8.24798 20.93804,-9.71559 3.98709,-0.82156 6.72473,-1.09411 10.98991,-1.09411 14.18762,0 27.0548,5.3627 37.13517,15.47695 13.63698,13.68283 18.6984,33.65586 13.17539,51.9918 -5.64912,18.75459 -21.12009,32.81983 -40.31863,36.65517 -3.01387,0.60208 -4.38129,0.72319 -8.97925,0.79521 -2.98318,0.0467 -6.19787,-0.0156 -7.14375,-0.13843 z m 10.35686,-6.3641 c 20.40541,-2.033 36.61114,-16.58372 40.89689,-36.72033 0.65255,-3.06597 0.7142,-3.85812 0.7142,-9.17648 0,-5.31836 -0.0616,-6.11051 -0.7142,-9.17648 -4.29891,-20.19843 -20.41133,-34.66242 -40.935,-36.74703 -9.68055,-0.98326 -20.77255,1.72641 -29.10417,7.10989 -9.35728,6.04621 -16.4626,15.73912 -19.43332,26.51049 -1.2988,4.70923 -1.57762,6.95381 -1.56115,12.56771 0.0139,4.73291 0.0914,5.64089 0.734,8.59896 2.12581,9.78555 6.52066,17.83905 13.29433,24.36169 9.61713,9.2607 23.04526,13.97306 36.10842,12.67158 z m -15.47665,-13.44404 c -0.98536,-1.02849 -1.29543,-2.28641 -0.96128,-3.89979 0.96682,-4.66807 1.28652,-7.92348 1.70629,-17.37433 l 0.14983,-3.37344 -6.02346,-0.003 c -8.58406,-0.004 -11.60633,-0.31627 -15.67567,-1.62025 -3.74553,-1.20021 -7.82558,-3.0961 -8.72628,-4.05485 -0.75681,-0.80559 -0.59741,-1.60906 0.58681,-2.95781 1.03558,-1.17945 2.60832,-1.93528 4.03334,-1.93834 0.58208,-0.001 2.07037,0.3621 3.30729,0.80744 1.23693,0.44534 2.78474,0.98334 3.43959,1.19555 2.2389,0.72556 7.00928,1.42902 11.24479,1.65821 4.07088,0.22028 9.74536,0.0337 10.1115,-0.33239 0.0968,-0.0969 -2.02665,-2.4056 -4.71887,-5.13056 -2.69222,-2.72497 -5.37423,-5.54979 -5.96001,-6.2774 -1.30476,-1.62064 -3.26908,-4.51999 -3.26908,-4.82518 0,-0.27253 1.99774,-2.20522 2.90314,-2.80863 0.3598,-0.23979 0.94465,-0.43598 1.29967,-0.43598 0.94386,0 2.74529,1.14693 3.61562,2.302 1.22552,1.62643 12.87495,13.30842 13.27133,13.30842 0.19941,0 0.84577,-0.24651 1.43635,-0.5478 0.88709,-0.45256 1.04558,-0.64807 0.91156,-1.12448 -1.35911,-4.83178 -1.34496,-4.73667 -1.34496,-9.04335 0,-3.95744 0.05,-4.38602 0.76787,-6.57618 0.92693,-2.82813 2.69524,-5.6268 4.72466,-7.47763 3.16609,-2.88749 6.07661,-3.93785 10.91163,-3.93785 3.74633,0 5.73142,0.51385 9.525,2.4656 6.76191,3.47891 9.08891,9.03497 8.34534,19.92573 -0.39871,5.83978 -1.69928,9.88017 -4.03423,12.5328 -1.37181,1.55847 -4.51634,3.63173 -6.59763,4.34997 -2.4046,0.82982 -6.16687,1.0135 -8.79281,0.42929 -2.8181,-0.62697 -5.92949,-2.2469 -7.95519,-4.14184 -1.68758,-1.57866 -2.41865,-1.89348 -2.69921,-1.16237 -0.24275,0.63259 3.70305,5.50824 9.79387,12.10186 3.30508,3.57793 3.60549,3.98637 3.60549,4.90207 0,0.54941 -0.18688,1.26575 -0.41529,1.59185 -0.50783,0.72502 -2.76992,1.90608 -3.65074,1.90608 -1.55171,0 -5.93304,-4.19792 -11.667,-11.1786 -1.8826,-2.29192 -3.50695,-4.07786 -3.60966,-3.96875 -0.44606,0.47383 -2.78343,14.5122 -3.14641,18.89752 -0.31986,3.86424 -1.04583,5.24365 -3.24282,6.16161 -1.47224,0.61515 -2.37323,0.51789 -3.20037,-0.34547 z m 32.76225,-31.24252 c 3.75453,-1.85614 5.13532,-4.45371 5.56591,-10.47067 0.2278,-3.18325 -0.22556,-9.21352 -0.80061,-10.64902 -0.8702,-2.1723 -4.6036,-4.87662 -7.92761,-5.74241 -1.34455,-0.35022 -1.76284,-0.35382 -3.32252,-0.0286 -0.98138,0.20462 -2.2553,0.61231 -2.83093,0.90597 -3.96128,2.0209 -5.8267,9.0379 -4.15946,15.64636 0.68532,2.71638 2.57753,6.40083 4.03661,7.8599 1.20058,1.20058 3.75863,2.77816 5.30566,3.27206 1.04951,0.33506 2.35835,0.0837 4.13295,-0.79358 z m -174.425319,27.247 c -0.621355,-0.10109 -1.236446,-0.29455 -1.366869,-0.4299 -0.757285,-0.78592 -1.067981,-20.51361 -0.52475,-33.31902 0.154333,-3.63802 0.361492,-9.12021 0.460355,-12.18265 0.207968,-6.44218 0.277052,-6.64951 2.56469,-7.69682 1.82439,-0.83523 3.821236,-1.15147 7.282908,-1.15337 3.355146,-0.002 5.168564,0.41845 8.190728,1.89838 4.254134,2.0832 7.653903,6.40486 8.600299,10.93238 1.360675,6.50941 -1.154329,15.74522 -5.149162,18.90919 -1.327769,1.05161 -3.941113,2.25925 -6.096172,2.81707 -1.692494,0.43809 -5.704681,0.62733 -7.805208,0.36816 l -1.058333,-0.13059 0.01519,2.37954 c 0.0084,1.30875 0.04546,4.99892 0.08246,8.20038 0.06073,5.25491 0.01412,5.9915 -0.479409,7.57623 -0.674524,2.16591 -1.260437,2.39336 -4.716729,1.83102 z m 14.226611,-27.15909 c 1.705897,-0.95366 2.957705,-2.62053 3.632729,-4.83724 0.5642,-1.85278 0.621424,-6.61922 0.10727,-8.93496 -0.506413,-2.28087 -2.080629,-5.08254 -3.362262,-5.9839 -1.245715,-0.8761 -4.685945,-1.43809 -7.017401,-1.14635 l -1.480288,0.18523 -0.178141,5.21161 c -0.09798,2.86639 -0.288149,6.5213 -0.422604,8.12203 -0.134456,1.60073 -0.31916,4.00311 -0.410454,5.33861 l -0.165988,2.4282 1.14284,0.26918 c 0.628562,0.14806 2.392997,0.24487 3.920965,0.21515 2.558296,-0.0498 2.893274,-0.11842 4.233334,-0.86756 z M 301.27388,281.962 c -4.01291,-0.60332 -7.93393,-3.08377 -9.73622,-6.15915 -3.28625,-5.60755 -6.52884,-20.92366 -7.18352,-33.93067 -0.27873,-5.53798 0.65527,-9.97152 2.18137,-10.35455 0.86281,-0.21655 2.37904,0.0508 3.14902,0.55537 1.27613,0.83614 1.51875,1.79258 1.71395,6.75647 0.10015,2.54662 0.31306,5.10646 0.47315,5.68855 0.16009,0.58208 0.47335,3.6777 0.69615,6.87916 0.80823,11.61394 2.38941,18.21902 4.98208,20.81169 1.87026,1.87026 5.52056,2.79751 7.71449,1.95964 1.04008,-0.3972 1.28145,-0.65156 1.98033,-2.08683 1.54691,-3.1769 2.75832,-9.33501 3.4444,-17.5095 0.3917,-4.667 0.32137,-7.89817 -0.28796,-13.22916 -0.84327,-7.37783 -0.87171,-8.08968 -0.38949,-9.74846 0.39478,-1.358 0.51239,-1.50271 1.44934,-1.78343 0.77667,-0.23269 1.24641,-0.23068 1.971,0.008 1.87348,0.61831 2.86542,2.63402 3.20802,6.51897 0.0909,1.03109 0.40462,2.99562 0.69709,4.36562 0.7391,3.46214 0.88771,7.20096 0.51967,13.07426 -0.83444,13.31616 -2.85561,21.33823 -6.25919,24.84278 -2.5903,2.66715 -6.4648,3.92095 -10.32368,3.34079 z m -141.78682,-0.53331 c -1.97619,-0.98489 -2.1664,-1.50622 -5.98243,-16.39658 -0.72597,-2.83277 -1.36376,-5.19431 -1.41732,-5.24787 -0.0536,-0.0536 -1.50614,0.43803 -3.22798,1.09241 -1.72183,0.65439 -3.60685,1.27015 -4.18894,1.36837 -2.30104,0.38827 -2.0894,-0.65371 -1.88139,9.26301 l 0.18468,8.80447 -0.68542,0.53915 c -1.12355,0.88379 -2.10423,0.95864 -3.87644,0.29588 -1.06002,-0.39643 -1.66385,-0.78774 -1.81042,-1.17325 -0.31435,-0.82679 -1.00451,-8.38152 -1.31752,-14.42189 -0.14705,-2.83765 -0.26813,-12.09202 -0.26907,-20.56525 l -0.002,-15.40588 0.59614,-0.39061 c 1.37903,-0.90357 5.53799,-1.77324 9.20492,-1.92481 9.48973,-0.39225 15.12748,3.12135 18.02218,11.23193 0.39414,1.10432 0.57938,2.43045 0.67462,4.82962 0.20426,5.14559 -0.72146,8.2055 -3.38718,11.19612 l -1.37165,1.53883 0.9887,4.54659 c 1.01111,4.64964 1.55786,6.80942 3.19386,12.61638 1.09603,3.89032 1.58109,6.57411 1.35267,7.4842 -0.12676,0.50506 -0.43177,0.72095 -1.34255,0.95029 -1.64504,0.41423 -2.24309,0.37425 -3.45775,-0.23111 z m -13.61419,-26.71405 c 3.44524,-1.15427 5.62118,-2.30307 7.38429,-3.89859 2.13341,-1.93063 2.95348,-3.68984 3.12537,-6.70457 0.284,-4.981 -1.96232,-8.45397 -6.35165,-9.82009 -1.5673,-0.4878 -5.93877,-0.68133 -7.27872,-0.32223 l -0.59531,0.15953 v 10.26625 c 0,5.64644 0.0723,10.45459 0.1606,10.68477 0.22807,0.59434 0.89664,0.5257 3.55542,-0.36507 z m 202.20241,26.6881 c -1.91013,-0.94552 -1.96921,-1.10381 -5.51995,-14.79201 -0.96258,-3.71079 -1.78781,-6.7867 -1.83382,-6.83537 -0.046,-0.0487 -1.52001,0.45801 -3.27555,1.12596 -1.75553,0.66794 -3.81447,1.30404 -4.57541,1.41355 -1.26333,0.18181 -1.39734,0.26787 -1.54276,0.99071 -0.0876,0.43538 -0.0497,4.39947 0.0842,8.80908 0.27408,9.02481 0.32425,8.74782 -1.69437,9.35262 -0.86092,0.25794 -1.22647,0.21557 -2.6127,-0.30285 -0.88646,-0.33151 -1.71476,-0.79525 -1.84068,-1.03054 -0.12592,-0.23528 -0.36129,-1.79667 -0.52303,-3.46975 -0.16174,-1.67308 -0.42468,-4.41117 -0.58429,-6.08466 -0.16253,-1.70405 -0.34637,-11.38496 -0.41785,-22.00423 l -0.12763,-18.96153 0.62416,-0.40896 c 0.34328,-0.22493 1.81295,-0.73807 3.26593,-1.14032 2.38588,-0.66053 3.06461,-0.732 7.00738,-0.73786 4.94268,-0.007 6.44697,0.29642 9.657,1.95002 3.50152,1.80374 6.24988,5.4874 7.52367,10.08396 0.62185,2.24402 0.74244,6.44684 0.25198,8.78245 -0.46077,2.19444 -1.86922,4.97039 -3.32205,6.54759 l -1.32768,1.44133 0.59036,2.39513 c 0.32473,1.31732 0.91142,3.87666 1.30377,5.68741 0.39237,1.81076 1.18353,4.84686 1.75813,6.74688 1.48243,4.902 2.25951,8.94797 1.87896,9.78316 -0.55123,1.20987 -2.95897,1.54367 -4.74779,0.65823 z m -13.54942,-26.68981 c 7.14825,-2.39489 10.17355,-5.48047 10.49975,-10.70901 0.30864,-4.94713 -2.20644,-8.64034 -6.66966,-9.79394 -1.55864,-0.40286 -5.80293,-0.5498 -6.95587,-0.24082 l -0.59532,0.15953 v 10.26625 c 0,5.64644 0.0723,10.45459 0.16061,10.68477 0.22815,0.59455 0.89667,0.52569 3.56049,-0.36678 z m 38.21536,26.94144 c -6.25181,-0.79413 -12.12472,-3.74635 -14.3437,-7.21035 -1.61477,-2.52081 -2.15704,-6.26001 -1.17374,-8.09349 1.42012,-2.64796 4.95578,-2.78533 6.27015,-0.24361 0.2396,0.46338 0.52684,1.8427 0.63825,3.06514 0.16322,1.79083 0.32221,2.34996 0.81831,2.87804 2.00077,2.12973 9.82755,3.65902 13.67102,2.67121 3.72845,-0.95826 6.86384,-3.25371 8.25968,-6.04699 0.69609,-1.39304 0.80899,-1.90881 0.80899,-3.69624 0,-4.12398 -1.48275,-5.66357 -7.54063,-7.82971 -0.87312,-0.31221 -3.31269,-1.17799 -5.42126,-1.92395 -6.69692,-2.36922 -9.4875,-3.91262 -12.12156,-6.70409 -2.1118,-2.23799 -2.79511,-3.94847 -2.81443,-7.04502 -0.0177,-2.85379 0.59658,-5.07021 2.13119,-7.68863 1.73977,-2.96847 5.61719,-5.75127 9.23023,-6.62453 1.98414,-0.47955 7.08623,-0.42155 9.05793,0.10296 3.66234,0.97428 6.05965,2.82337 6.82046,5.26077 0.56464,1.80895 0.26307,2.72441 -1.08273,3.28671 -1.15501,0.4826 -1.9793,0.26519 -4.777,-1.25996 -2.3449,-1.27832 -4.37227,-1.5406 -7.04773,-0.91175 -2.37956,0.5593 -3.64474,1.23794 -4.77962,2.56376 -1.46836,1.71545 -2.09447,3.27851 -2.21724,5.53525 -0.0901,1.65661 -0.0196,2.12466 0.42731,2.83368 1.01698,1.61367 4.16332,3.17558 8.97776,4.45677 4.43225,1.17948 8.30545,2.52767 10.48898,3.65102 5.28722,2.7201 8.12112,7.81055 7.73795,13.8995 -0.38782,6.16277 -4.18851,10.95443 -10.8399,13.66617 -2.33256,0.95098 -6.10359,1.73086 -8.10448,1.67606 -0.67214,-0.0184 -2.05554,-0.13934 -3.07419,-0.26872 z m -248.09365,-0.15003 c -0.38954,-0.0596 -0.82384,-0.25012 -0.96512,-0.42338 -0.49807,-0.61082 -4.92567,-15.15424 -6.39892,-21.01867 l -0.28249,-1.12448 -2.56949,0.0152 c -1.41322,0.008 -3.04304,0.0993 -3.62182,0.20195 l -1.05233,0.1867 -2.13905,7.40482 c -3.48906,12.07822 -4.13883,13.56322 -6.20558,14.18243 -0.87218,0.26131 -1.23537,0.2388 -2.221162,-0.13768 -1.47679,-0.56399 -1.782429,-0.93283 -1.941353,-2.34282 -0.09772,-0.86695 0.08684,-1.67477 0.800885,-3.50558 1.103895,-2.83036 2.06258,-6.09007 3.89007,-13.22694 3.3015,-12.89333 5.1417,-19.31598 7.52027,-26.24729 2.34826,-6.84298 3.35075,-8.28083 5.77352,-8.28083 1.2475,0 1.43105,0.0867 2.46257,1.16325 1.32285,1.38061 1.93396,3.04578 2.87447,7.83258 0.57279,2.91527 1.93816,11.65581 2.42679,15.53541 0.1295,1.02815 0.32814,1.4813 0.77878,1.77656 0.94899,0.6218 1.2954,2.01116 0.79818,3.2012 -0.3696,0.88455 -0.36921,1.1365 0.004,2.60237 0.74265,2.91751 3.04006,10.53655 4.36931,14.49022 0.71587,2.12925 1.30113,4.27238 1.30059,4.7625 -10e-4,1.1296 -0.85517,2.54714 -1.73615,2.88209 -0.66484,0.25277 -2.45999,0.28544 -3.8659,0.0704 z m -9.21848,-29.90872 c -0.0105,-1.56873 -1.00466,-7.87608 -1.20924,-7.67151 -0.058,0.058 -0.58701,1.76312 -1.17566,3.78923 -0.58864,2.02611 -1.13322,3.8922 -1.21017,4.14686 -0.12404,0.4105 0.0722,0.46302 1.73,0.46302 1.86469,0 1.8699,-0.002 1.86507,-0.7276 z"
         id="path3757"
         inkscape:connector-curvature="0" />
      <path
         style="fill:#aacee9;stroke-width:0.26458335"
         d="m 218.88497,305.7709 c -26.61565,-3.08155 -46.82586,-25.63588 -46.82586,-52.25705 0,-29.72948 24.8335,-53.6235 54.49982,-52.43802 24.41899,0.97579 44.92806,18.74495 49.51599,42.9009 0.69369,3.65235 0.96794,12.12842 0.50634,15.64908 -2.07629,15.83618 -10.32398,29.08831 -23.564,37.86193 -5.89488,3.9063 -12.68284,6.5536 -20.24062,7.89382 -2.78965,0.49469 -10.99537,0.72467 -13.89167,0.38934 z m 10.52866,-6.36953 c 11.42548,-1.25527 21.83659,-6.59837 29.35157,-15.06356 5.53143,-6.23084 9.14827,-13.39755 10.96844,-21.73379 0.52861,-2.42099 0.5983,-3.47983 0.5983,-9.09017 0,-5.61098 -0.0699,-6.67332 -0.60094,-9.12813 -4.34757,-20.09861 -20.31188,-34.58047 -40.58036,-36.81205 -3.51214,-0.38669 -9.8507,-0.1182 -13.29197,0.56304 -5.4139,1.07173 -11.02606,3.25414 -15.62578,6.07641 -8.85369,5.43239 -16.26589,14.8802 -19.55748,24.92855 -1.7126,5.2281 -2.13547,8.08985 -2.12373,14.37218 0.009,4.68302 0.10465,6.0298 0.61014,8.56937 1.2458,6.25883 3.62716,11.997 7.21867,17.39428 2.42675,3.64689 8.22638,9.53474 11.73573,11.91425 9.46072,6.41483 20.3794,9.20913 31.29741,8.00962 z m -15.86205,-13.18833 c -1.40895,-1.10828 -1.54284,-2.5545 -0.65769,-7.10448 0.52736,-2.71086 0.916,-7.85234 1.0189,-13.47961 l 0.0784,-4.28907 -7.40833,-0.10797 c -4.07458,-0.0594 -8.3375,-0.2499 -9.47315,-0.42336 -4.22046,-0.64464 -12.64586,-4.03232 -13.582,-5.46104 -0.35518,-0.54207 -0.34069,-0.70289 0.14991,-1.66454 0.68422,-1.3412 1.91864,-2.29054 3.4928,-2.68619 1.35721,-0.34112 3.41235,0.043 5.74064,1.07288 2.86532,1.26747 8.54173,2.22336 14.86243,2.5028 3.37017,0.14899 8.28778,-0.13008 8.6485,-0.49079 0.0904,-0.0904 -2.14592,-2.52013 -4.96965,-5.39934 -5.11368,-5.21414 -8.68666,-9.65561 -8.69962,-10.81426 -0.007,-0.62119 1.57781,-2.1892 2.9076,-2.87687 1.63335,-0.84463 1.91404,-0.63202 9.99882,7.57354 5.17194,5.2492 7.70491,7.64151 8.09008,7.64083 0.3084,-5.3e-4 0.96041,-0.24466 1.44892,-0.54249 0.98756,-0.60208 0.98465,-0.37326 0.0485,-3.82215 -0.79039,-2.91182 -0.99827,-7.53104 -0.46437,-10.31875 0.55043,-2.87399 1.30538,-4.77591 2.80491,-7.06629 2.07867,-3.17497 4.48666,-5.02436 8.09987,-6.22086 1.81728,-0.6018 2.56573,-0.70088 5.29166,-0.70056 2.88292,3.5e-4 3.40624,0.079 5.68855,0.85544 5.25209,1.78667 8.70446,4.44573 10.41256,8.01988 1.33489,2.79323 1.79289,5.40409 1.7811,10.15325 -0.0254,10.22936 -2.18055,15.45698 -7.71512,18.71399 -2.75479,1.62116 -4.90819,2.17827 -8.315,2.15119 -2.44091,-0.0194 -3.25147,-0.13992 -5.02455,-0.74709 -2.59411,-0.88832 -4.71727,-2.15334 -6.70909,-3.99741 -1.49149,-1.38086 -1.79291,-1.46789 -2.64887,-0.76483 -0.294,0.24147 5.12255,6.75921 9.71571,11.69093 3.62236,3.88936 4.00534,4.41111 4.00534,5.4566 0,0.95444 -1.36641,2.38381 -2.80346,2.93263 -1.12881,0.43109 -1.29886,0.43557 -2.09653,0.0552 -2.17893,-1.03906 -5.92338,-4.87201 -11.74559,-12.0232 -1.33287,-1.63711 -2.52475,-2.97656 -2.64863,-2.97656 -0.43806,0 -2.70589,13.22854 -3.20447,18.69209 -0.19533,2.14059 -0.45944,3.4985 -0.83205,4.27797 -0.99522,2.08192 -3.89603,3.28267 -5.28704,2.1885 z m 32.29567,-31.33824 c 3.0386,-1.5262 4.49515,-3.37337 5.35012,-6.78491 0.54885,-2.19007 0.47348,-11.81142 -0.10786,-13.7676 -0.54598,-1.83722 -2.07882,-3.49466 -4.58634,-4.95913 -2.73401,-1.59674 -4.56723,-2.05673 -6.66004,-1.67112 -2.58164,0.47569 -3.64262,1.01381 -5.06297,2.5679 -3.61223,3.95235 -3.93074,11.58665 -0.76313,18.29092 1.52007,3.21724 3.63956,5.2713 6.82301,6.61241 1.78979,0.75399 3.07967,0.67968 5.00721,-0.28847 z M 71.731677,281.76502 c -0.534627,-0.0564 -1.095428,-0.25125 -1.246223,-0.43295 -0.835694,-1.00694 -1.170878,-20.10073 -0.57891,-32.9776 0.15721,-3.41973 0.361337,-8.77755 0.453615,-11.90625 0.116297,-3.94303 0.27699,-5.90517 0.523694,-6.39454 0.432549,-0.85802 2.592367,-1.96111 4.567966,-2.333 2.166808,-0.4079 7.083232,-0.33127 8.904131,0.13879 4.790837,1.23671 8.908717,4.52521 11.112643,8.87445 2.14852,4.2399 1.809049,11.97171 -0.770784,17.55542 -2.263402,4.89884 -7.037671,7.63391 -13.395124,7.67376 -1.527969,0.01 -3.254375,-0.0421 -3.836458,-0.11487 l -1.058334,-0.1323 0.01208,2.38125 c 0.0066,1.30969 0.04596,5.06016 0.08736,8.33438 0.07625,6.02922 -0.156688,8.08129 -1.037865,9.14305 -0.310524,0.37416 -1.44775,0.43209 -3.737789,0.19041 z M 84.89925,255.46626 c 3.0089,-1.12577 4.629304,-3.54766 5.193147,-7.76178 0.691248,-5.16633 -1.10966,-11.07671 -3.947284,-12.95456 -1.262973,-0.8358 -4.263182,-1.30214 -6.851783,-1.06502 l -1.877064,0.17195 -0.168883,5.46287 c -0.09289,3.00459 -0.282756,6.71304 -0.421933,8.241 -0.139176,1.52797 -0.290063,3.90674 -0.335302,5.28615 l -0.08226,2.50802 1.322917,0.31085 c 2.250867,0.5289 5.460391,0.43959 7.16844,-0.19948 z m 215.47843,26.0758 c -3.58071,-0.77541 -7.09871,-3.20941 -8.70123,-6.0201 -3.1721,-5.56363 -6.08325,-18.94608 -6.95284,-31.96203 -0.36603,-5.47865 -0.11667,-8.48392 0.86887,-10.47142 0.56531,-1.14005 0.73118,-1.27888 1.61552,-1.35221 0.54463,-0.0452 1.408,0.11876 1.92988,0.3664 1.58209,0.75075 1.80516,1.50353 1.9959,6.73548 0.093,2.5514 0.2985,5.05171 0.45664,5.55625 0.15814,0.50453 0.41818,2.88187 0.57787,5.28296 0.72458,10.89497 1.73128,16.37877 3.77864,20.58338 0.92434,1.8983 1.83402,2.76765 3.88021,3.70818 1.818,0.83564 4.72085,0.94969 6.03927,0.23727 2.02149,-1.09233 3.62487,-6.49788 4.68585,-15.79758 0.75493,-6.61705 0.79023,-10.93184 0.1364,-16.66875 -0.8173,-7.1712 -0.8944,-8.91881 -0.44942,-10.18646 0.45439,-1.29444 1.41487,-1.8472 2.76846,-1.59326 2.04187,0.38305 2.95401,2.2361 3.51927,7.14951 0.16741,1.45521 0.5295,3.7174 0.80465,5.02709 0.57687,2.74585 0.63857,6.09665 0.23143,12.56771 -0.64271,10.21491 -2.38135,18.27124 -4.72172,21.87899 -1.83065,2.82199 -3.97388,4.32153 -7.13389,4.99131 -2.14522,0.45469 -3.10626,0.44879 -5.32976,-0.0327 z m -140.49375,-0.1314 c -1.26686,-0.53282 -2.12279,-1.63923 -2.64283,-3.41623 -1.06621,-3.64333 -2.10407,-7.47948 -3.43774,-12.70662 -0.76113,-2.98318 -1.47969,-5.52644 -1.59679,-5.65169 -0.11709,-0.12526 -1.4886,0.27103 -3.04778,0.88064 -2.36554,0.92488 -5.60034,1.83727 -6.58041,1.85604 -0.14242,0.003 -0.16455,3.59846 -0.0545,8.84694 l 0.18548,8.84234 -0.57662,0.5372 c -0.92901,0.8655 -1.94739,0.94693 -3.69041,0.29509 -0.85798,-0.32086 -1.62026,-0.77868 -1.69395,-1.01737 -0.24805,-0.80338 -0.94625,-8.97817 -1.20595,-14.11964 -0.30664,-6.07085 -0.34689,-35.64941 -0.0491,-36.11817 0.6248,-0.98369 6.35103,-2.1868 10.40807,-2.1868 8.70221,0 14.07348,3.5543 16.63869,11.01022 2.00244,5.8202 0.63855,12.92227 -3.15766,16.44254 l -0.92971,0.86214 0.30478,1.38682 c 0.16763,0.76275 0.72973,3.35135 1.24912,5.75245 0.51938,2.40109 1.48302,6.17486 2.14143,8.38614 2.06132,6.92312 2.41329,9.34925 1.43247,9.87416 -0.78938,0.42247 -2.93528,0.564 -3.69659,0.2438 z m -13.53679,-26.59544 c 7.44702,-2.49988 10.65379,-6.29532 10.31171,-12.20462 -0.26162,-4.51932 -2.77593,-7.59054 -7.12662,-8.70513 -1.70662,-0.43722 -6.62024,-0.44717 -7.30923,-0.0148 -0.2547,0.15983 -0.33073,2.41557 -0.33073,9.81229 0,5.28261 0.0774,10.16951 0.17202,10.85977 l 0.17201,1.25502 1.07363,-0.17168 c 0.59049,-0.0944 1.95724,-0.4683 3.03721,-0.83084 z m 202.03929,26.50459 c -1.55768,-0.67848 -2.0556,-1.64706 -3.49462,-6.79776 -0.74808,-2.67774 -1.91616,-7.07127 -2.59569,-9.76341 -0.67953,-2.69213 -1.3298,-4.99727 -1.44502,-5.12252 -0.11523,-0.12526 -1.48521,0.27103 -3.0444,0.88064 -2.36554,0.92488 -5.60033,1.83727 -6.5804,1.85604 -0.14243,0.003 -0.16455,3.59846 -0.0545,8.84694 l 0.1855,8.84234 -0.58722,0.54707 c -0.32297,0.30089 -0.95652,0.61635 -1.40787,0.70103 -1.03571,0.1943 -3.77146,-0.78823 -3.94871,-1.41814 -1.01966,-3.62364 -1.78427,-24.77118 -1.50351,-41.58385 l 0.14788,-8.85566 1.32292,-0.49826 c 2.43138,-0.91575 5.93738,-1.49475 9.07314,-1.4984 7.80801,-0.009 12.80123,2.71026 15.64571,8.52078 1.46717,2.99706 1.90061,4.83783 1.91767,8.14449 0.0233,4.49108 -1.15416,7.83718 -3.688,10.48165 l -1.20843,1.26117 0.32446,1.47078 c 0.17844,0.80893 0.67479,3.13765 1.10302,5.17494 0.4282,2.0373 1.4287,5.96636 2.22332,8.73125 1.57303,5.47348 2.13889,8.24812 1.88691,9.25213 -0.26742,1.06549 -2.66076,1.52864 -4.27218,0.82675 z m -14.66593,-26.1032 c 5.25478,-1.45027 9.2511,-4.22834 10.74227,-7.46761 0.68043,-1.47807 0.75644,-1.9231 0.75522,-4.42161 0,-2.32315 -0.0995,-2.99239 -0.60065,-4.08648 -1.86876,-4.07978 -5.26431,-5.8665 -10.75389,-5.6586 -1.46399,0.0554 -2.81064,0.1942 -2.99254,0.30835 -0.25509,0.16008 -0.33073,2.49572 -0.33073,10.21302 0,5.50302 0.0744,10.37755 0.16536,10.83231 0.19799,0.98992 0.38265,1.00711 3.01496,0.28062 z m 38.23634,26.07311 c -5.71693,-0.93071 -11.04996,-3.62049 -13.10738,-6.61087 -1.75657,-2.55306 -2.38064,-6.21043 -1.40909,-8.25781 1.13003,-2.3814 4.61938,-2.57586 5.78469,-0.32238 0.22807,0.44104 0.52739,1.838 0.66519,3.10437 0.24363,2.23944 0.2804,2.32965 1.34339,3.29449 1.22968,1.11613 3.12894,1.79915 6.77754,2.43737 2.9491,0.51587 4.74067,0.51356 6.75611,-0.009 2.48507,-0.64395 4.64519,-1.87198 6.42353,-3.65179 2.12865,-2.13042 2.85012,-3.92957 2.71894,-6.78035 -0.2018,-4.38585 -1.75932,-5.55802 -12.12583,-9.12591 -11.11777,-3.82645 -15.48741,-7.51681 -15.81735,-13.35844 -0.36311,-6.42911 4.09308,-12.47556 10.65797,-14.46143 2.19501,-0.66398 7.55526,-0.6595 9.78162,0.008 3.42929,1.02844 5.63782,2.75484 6.37905,4.9865 0.56248,1.69342 0.3361,2.51537 -0.82647,3.00113 -1.15787,0.48379 -1.78745,0.3287 -4.61857,-1.1377 -2.75103,-1.42492 -4.36761,-1.65694 -7.1778,-1.03017 -3.66271,0.8169 -5.80438,2.68474 -6.94584,6.05781 -0.53338,1.57606 -0.55306,3.94321 -0.0411,4.93331 1.11427,2.15474 3.38209,3.1941 13.10638,6.00677 5.12746,1.48307 8.08532,2.97904 10.4155,5.26776 3.9092,3.83962 5.00738,10.71086 2.57503,16.11166 -0.81338,1.80606 -2.71174,4.10462 -4.52249,5.47592 -4.72591,3.57897 -10.77119,5.04061 -16.79305,4.06026 z m -247.52707,-0.20451 c -0.46327,-0.23419 -0.84616,-0.84741 -1.27788,-2.04662 -0.92037,-2.55649 -4.10718,-13.23155 -5.09666,-17.07259 l -0.86662,-3.3641 -3.52176,0.13438 c -3.64799,0.13921 -4.16021,0.2949 -4.38904,1.33409 -0.28863,1.31079 -3.47836,12.18257 -4.46795,15.22845 -0.80869,2.48908 -1.28101,3.5082 -1.98912,4.292 -1.4343,1.5876 -2.967988,1.70115 -4.586151,0.33956 -1.041701,-0.87653 -1.050827,-2.13413 -0.03393,-4.67662 0.938218,-2.34579 1.78799,-5.15445 3.215381,-10.62741 4.43907,-17.0206 5.1592,-19.59957 7.31411,-26.19375 2.74911,-8.41246 3.78597,-10.46954 5.51821,-10.94784 2.78364,-0.7686 4.47278,1.33424 5.81861,7.24367 0.46602,2.04622 2.01317,11.75949 2.52074,15.82554 0.27826,2.22912 0.41086,2.65321 0.93743,2.99823 0.95151,0.62346 1.28374,1.95353 0.78569,3.14552 -0.38583,0.92342 -0.36993,1.12813 0.274,3.52842 1.07741,4.01608 1.87627,6.66128 3.70149,12.25639 0.93484,2.86568 1.69971,5.58027 1.69971,6.03241 0,1.12894 -0.68467,2.35491 -1.48511,2.65924 -0.9426,0.35837 -3.28761,0.30713 -4.07114,-0.089 z m -8.83663,-30.28334 c -0.31608,-3.16337 -0.98291,-7.33568 -1.20942,-7.56726 -0.12107,-0.12379 -0.28471,-0.005 -0.36364,0.26459 -1.77381,6.05227 -2.5549,8.7785 -2.5549,8.91735 0,0.0942 0.96895,0.17126 2.15321,0.17126 h 2.1532 z"
         id="path3755"
         inkscape:connector-curvature="0" />
      <path
         style="fill:#87bae1;stroke-width:0.26458335"
         d="m 218.40417,305.4849 c -15.69513,-2.03697 -29.1207,-10.4202 -37.68013,-23.52834 -7.78122,-11.91635 -10.29979,-26.46109 -7.03265,-40.61354 3.43398,-14.87514 13.9197,-27.96648 27.86442,-34.78851 24.75826,-12.11223 54.46098,-2.97468 68.24063,20.99311 4.64954,8.08723 6.89734,16.68372 6.85879,26.23081 -0.0558,13.81367 -5.27936,26.48587 -14.98159,36.3447 -8.32833,8.46275 -18.84887,13.71822 -30.52574,15.24892 -3.20866,0.42062 -9.91476,0.48 -12.74373,0.11285 z m 10.48029,-5.81043 c 15.88113,-1.69213 29.52739,-10.94352 36.6722,-24.86166 3.58587,-6.98529 5.17736,-13.53248 5.17736,-21.29896 0,-7.50823 -1.56116,-14.14331 -4.88903,-20.77889 -12.52775,-24.97964 -43.91883,-33.26099 -67.16245,-17.7183 -3.04206,2.03418 -7.75337,6.36996 -10.2752,9.45617 -4.5218,5.53376 -7.81446,12.60347 -9.39184,20.16532 -0.61282,2.93784 -0.69375,3.94299 -0.704,8.74341 -0.0129,6.02827 0.42574,9.10322 1.99941,14.0169 4.6652,14.56687 16.18207,26.02688 30.55543,30.40456 6.1547,1.87454 12.14745,2.49697 18.01812,1.87145 z m -15.51404,-13.97022 c -1.05842,-1.13305 -1.17558,-2.08149 -0.58759,-4.757 0.64599,-2.93948 1.00683,-6.14429 1.19713,-10.63236 0.0833,-1.96453 0.21924,-4.85179 0.3021,-6.41614 l 0.15064,-2.84427 h -5.937 c -9.1524,0 -12.02927,-0.30671 -16.3326,-1.74123 -3.62498,-1.20839 -6.88614,-2.66665 -8.10154,-3.62269 -0.7994,-0.6288 -0.69957,-1.4185 0.35438,-2.80347 1.62424,-2.13436 4.06968,-2.33487 8.34392,-0.68416 3.9335,1.51912 7.12297,2.1015 13.5807,2.47975 4.44605,0.26043 9.74637,0.0163 10.23405,-0.47138 0.20879,-0.2088 -1.10089,-1.70255 -4.72403,-5.38796 -4.646,-4.72586 -7.72754,-8.36385 -8.73536,-10.31277 l -0.4146,-0.80174 1.37954,-1.29518 c 1.47779,-1.38743 2.22951,-1.71207 3.32668,-1.4367 0.43079,0.10813 3.53649,3.06288 8.23411,7.8339 4.14834,4.21316 7.70343,7.66029 7.90021,7.66029 0.19678,0 0.90599,-0.26634 1.57602,-0.59186 1.37201,-0.66658 1.34761,-0.40284 0.36131,-3.90606 -0.78462,-2.78684 -0.97536,-7.8514 -0.40846,-10.84507 1.13096,-5.97224 5.16108,-10.88457 10.35244,-12.61861 1.82271,-0.60882 2.57598,-0.7097 5.42396,-0.72635 3.65675,-0.0214 5.71576,0.44861 8.85422,2.0211 7.23767,3.62636 9.66006,9.03704 8.88727,19.8507 -0.58927,8.24545 -2.6275,12.50686 -7.3512,15.3694 -3.40873,2.06569 -8.01272,2.81042 -11.8455,1.9161 -2.77983,-0.64864 -5.91719,-2.31326 -8.00765,-4.24871 -1.75455,-1.62444 -1.81676,-1.65628 -2.51807,-1.28883 -0.39549,0.20722 -0.71907,0.46337 -0.71907,0.56923 0,0.55151 5.64744,7.24081 10.4866,12.4212 2.84882,3.04971 3.27174,3.61796 3.27174,4.39609 0,0.51653 -0.24245,1.20186 -0.57452,1.62402 -0.62411,0.79343 -2.38653,1.70713 -3.31076,1.71643 -0.81613,0.008 -4.09415,-2.6763 -6.47936,-5.30621 -1.11169,-1.22573 -3.43447,-3.95502 -5.16174,-6.06507 -1.72728,-2.11005 -3.31112,-3.83646 -3.51967,-3.83646 -0.25008,0 -0.4924,0.54047 -0.71178,1.5875 -0.7708,3.67879 -2.47439,14.51241 -2.71568,17.2698 -0.16174,1.84833 -0.45314,3.41672 -0.76637,4.12484 -0.58481,1.32205 -1.91427,2.26746 -3.48478,2.47811 -0.9171,0.12301 -1.13892,0.0399 -1.80969,-0.67818 z m 31.56045,-30.22254 c 3.39183,-1.26904 5.4569,-3.55237 6.32629,-6.99494 0.94103,-3.72618 0.75608,-12.62757 -0.31256,-15.0434 -0.71901,-1.62545 -2.519,-3.27793 -4.99176,-4.58267 -2.77199,-1.46263 -4.24367,-1.75158 -6.50809,-1.27781 -2.38147,0.49827 -3.40527,1.02672 -4.69056,2.4211 -2.9301,3.17878 -3.91999,8.85347 -2.51137,14.39675 0.70557,2.77659 2.64715,6.4985 4.19968,8.05058 1.43282,1.43241 5.27469,3.57607 6.40902,3.57607 0.34149,0 1.2772,-0.24555 2.07935,-0.54568 z M 71.731677,281.76502 c -0.534627,-0.0564 -1.095428,-0.25125 -1.246223,-0.43295 -0.835694,-1.00694 -1.170878,-20.10073 -0.57891,-32.9776 0.15721,-3.41973 0.361337,-8.77755 0.453615,-11.90625 0.116297,-3.94303 0.27699,-5.90517 0.523694,-6.39454 0.432549,-0.85802 2.592367,-1.96111 4.567966,-2.333 2.166808,-0.4079 7.083232,-0.33127 8.904131,0.13879 4.790837,1.23671 8.908717,4.52521 11.112643,8.87445 2.14852,4.2399 1.809049,11.97171 -0.770784,17.55542 -2.263402,4.89884 -7.037671,7.63391 -13.395124,7.67376 -1.527969,0.01 -3.254375,-0.0421 -3.836458,-0.11487 l -1.058334,-0.1323 0.01208,2.38125 c 0.0066,1.30969 0.04596,5.06016 0.08736,8.33438 0.07625,6.02922 -0.156688,8.08129 -1.037865,9.14305 -0.310524,0.37416 -1.44775,0.43209 -3.737789,0.19041 z M 84.89925,255.46626 c 3.0089,-1.12577 4.629304,-3.54766 5.193147,-7.76178 0.691248,-5.16633 -1.10966,-11.07671 -3.947284,-12.95456 -1.262973,-0.8358 -4.263182,-1.30214 -6.851783,-1.06502 l -1.877064,0.17195 -0.168883,5.46287 c -0.09289,3.00459 -0.282756,6.71304 -0.421933,8.241 -0.139176,1.52797 -0.290063,3.90674 -0.335302,5.28615 l -0.08226,2.50802 1.322917,0.31085 c 2.250867,0.5289 5.460391,0.43959 7.16844,-0.19948 z m 215.47843,26.0758 c -3.58071,-0.77541 -7.09871,-3.20941 -8.70123,-6.0201 -3.1721,-5.56363 -6.08325,-18.94608 -6.95284,-31.96203 -0.36603,-5.47865 -0.11667,-8.48392 0.86887,-10.47142 0.56531,-1.14005 0.73118,-1.27888 1.61552,-1.35221 0.54463,-0.0452 1.408,0.11876 1.92988,0.3664 1.58209,0.75075 1.80516,1.50353 1.9959,6.73548 0.093,2.5514 0.2985,5.05171 0.45664,5.55625 0.15814,0.50453 0.41818,2.88187 0.57787,5.28296 0.72458,10.89497 1.73128,16.37877 3.77864,20.58338 0.92434,1.8983 1.83402,2.76765 3.88021,3.70818 1.818,0.83564 4.72085,0.94969 6.03927,0.23727 2.02149,-1.09233 3.62487,-6.49788 4.68585,-15.79758 0.75493,-6.61705 0.79023,-10.93184 0.1364,-16.66875 -0.8173,-7.1712 -0.8944,-8.91881 -0.44942,-10.18646 0.45439,-1.29444 1.41487,-1.8472 2.76846,-1.59326 2.04187,0.38305 2.95401,2.2361 3.51927,7.14951 0.16741,1.45521 0.5295,3.7174 0.80465,5.02709 0.57687,2.74585 0.63857,6.09665 0.23143,12.56771 -0.64271,10.21491 -2.38135,18.27124 -4.72172,21.87899 -1.83065,2.82199 -3.97388,4.32153 -7.13389,4.99131 -2.14522,0.45469 -3.10626,0.44879 -5.32976,-0.0327 z m -140.49375,-0.1314 c -1.26686,-0.53282 -2.12279,-1.63923 -2.64283,-3.41623 -1.06621,-3.64333 -2.10407,-7.47948 -3.43774,-12.70662 -0.76113,-2.98318 -1.47969,-5.52644 -1.59679,-5.65169 -0.11709,-0.12526 -1.4886,0.27103 -3.04778,0.88064 -2.36554,0.92488 -5.60034,1.83727 -6.58041,1.85604 -0.14242,0.003 -0.16455,3.59846 -0.0545,8.84694 l 0.18548,8.84234 -0.57662,0.5372 c -0.92901,0.8655 -1.94739,0.94693 -3.69041,0.29509 -0.85798,-0.32086 -1.62026,-0.77868 -1.69395,-1.01737 -0.24805,-0.80338 -0.94625,-8.97817 -1.20595,-14.11964 -0.30664,-6.07085 -0.34689,-35.64941 -0.0491,-36.11817 0.6248,-0.98369 6.35103,-2.1868 10.40807,-2.1868 8.70221,0 14.07348,3.5543 16.63869,11.01022 2.00244,5.8202 0.63855,12.92227 -3.15766,16.44254 l -0.92971,0.86214 0.30478,1.38682 c 0.16763,0.76275 0.72973,3.35135 1.24912,5.75245 0.51938,2.40109 1.48302,6.17486 2.14143,8.38614 2.06132,6.92312 2.41329,9.34925 1.43247,9.87416 -0.78938,0.42247 -2.93528,0.564 -3.69659,0.2438 z m -13.53679,-26.59544 c 7.44702,-2.49988 10.65379,-6.29532 10.31171,-12.20462 -0.26162,-4.51932 -2.77593,-7.59054 -7.12662,-8.70513 -1.70662,-0.43722 -6.62024,-0.44717 -7.30923,-0.0148 -0.2547,0.15983 -0.33073,2.41557 -0.33073,9.81229 0,5.28261 0.0774,10.16951 0.17202,10.85977 l 0.17201,1.25502 1.07363,-0.17168 c 0.59049,-0.0944 1.95724,-0.4683 3.03721,-0.83084 z m 202.03929,26.50459 c -1.55768,-0.67848 -2.0556,-1.64706 -3.49462,-6.79776 -0.74808,-2.67774 -1.91616,-7.07127 -2.59569,-9.76341 -0.67953,-2.69213 -1.3298,-4.99727 -1.44502,-5.12252 -0.11523,-0.12526 -1.48521,0.27103 -3.0444,0.88064 -2.36554,0.92488 -5.60033,1.83727 -6.5804,1.85604 -0.14243,0.003 -0.16455,3.59846 -0.0545,8.84694 l 0.1855,8.84234 -0.58722,0.54707 c -0.32297,0.30089 -0.95652,0.61635 -1.40787,0.70103 -1.03571,0.1943 -3.77146,-0.78823 -3.94871,-1.41814 -1.01966,-3.62364 -1.78427,-24.77118 -1.50351,-41.58385 l 0.14788,-8.85566 1.32292,-0.49826 c 2.43138,-0.91575 5.93738,-1.49475 9.07314,-1.4984 7.80801,-0.009 12.80123,2.71026 15.64571,8.52078 1.46717,2.99706 1.90061,4.83783 1.91767,8.14449 0.0233,4.49108 -1.15416,7.83718 -3.688,10.48165 l -1.20843,1.26117 0.32446,1.47078 c 0.17844,0.80893 0.67479,3.13765 1.10302,5.17494 0.4282,2.0373 1.4287,5.96636 2.22332,8.73125 1.57303,5.47348 2.13889,8.24812 1.88691,9.25213 -0.26742,1.06549 -2.66076,1.52864 -4.27218,0.82675 z m -14.66593,-26.1032 c 5.25478,-1.45027 9.2511,-4.22834 10.74227,-7.46761 0.68043,-1.47807 0.75644,-1.9231 0.75522,-4.42161 0,-2.32315 -0.0995,-2.99239 -0.60065,-4.08648 -1.86876,-4.07978 -5.26431,-5.8665 -10.75389,-5.6586 -1.46399,0.0554 -2.81064,0.1942 -2.99254,0.30835 -0.25509,0.16008 -0.33073,2.49572 -0.33073,10.21302 0,5.50302 0.0744,10.37755 0.16536,10.83231 0.19799,0.98992 0.38265,1.00711 3.01496,0.28062 z m 38.23634,26.07311 c -5.71693,-0.93071 -11.04996,-3.62049 -13.10738,-6.61087 -1.75657,-2.55306 -2.38064,-6.21043 -1.40909,-8.25781 1.13003,-2.3814 4.61938,-2.57586 5.78469,-0.32238 0.22807,0.44104 0.52739,1.838 0.66519,3.10437 0.24363,2.23944 0.2804,2.32965 1.34339,3.29449 1.22968,1.11613 3.12894,1.79915 6.77754,2.43737 2.9491,0.51587 4.74067,0.51356 6.75611,-0.009 2.48507,-0.64395 4.64519,-1.87198 6.42353,-3.65179 2.12865,-2.13042 2.85012,-3.92957 2.71894,-6.78035 -0.2018,-4.38585 -1.75932,-5.55802 -12.12583,-9.12591 -11.11777,-3.82645 -15.48741,-7.51681 -15.81735,-13.35844 -0.36311,-6.42911 4.09308,-12.47556 10.65797,-14.46143 2.19501,-0.66398 7.55526,-0.6595 9.78162,0.008 3.42929,1.02844 5.63782,2.75484 6.37905,4.9865 0.56248,1.69342 0.3361,2.51537 -0.82647,3.00113 -1.15787,0.48379 -1.78745,0.3287 -4.61857,-1.1377 -2.75103,-1.42492 -4.36761,-1.65694 -7.1778,-1.03017 -3.66271,0.8169 -5.80438,2.68474 -6.94584,6.05781 -0.53338,1.57606 -0.55306,3.94321 -0.0411,4.93331 1.11427,2.15474 3.38209,3.1941 13.10638,6.00677 5.12746,1.48307 8.08532,2.97904 10.4155,5.26776 3.9092,3.83962 5.00738,10.71086 2.57503,16.11166 -0.81338,1.80606 -2.71174,4.10462 -4.52249,5.47592 -4.72591,3.57897 -10.77119,5.04061 -16.79305,4.06026 z m -247.52707,-0.20451 c -0.46327,-0.23419 -0.84616,-0.84741 -1.27788,-2.04662 -0.92037,-2.55649 -4.10718,-13.23155 -5.09666,-17.07259 l -0.86662,-3.3641 -3.52176,0.13438 c -3.64799,0.13921 -4.16021,0.2949 -4.38904,1.33409 -0.28863,1.31079 -3.47836,12.18257 -4.46795,15.22845 -0.80869,2.48908 -1.28101,3.5082 -1.98912,4.292 -1.4343,1.5876 -2.967988,1.70115 -4.586151,0.33956 -1.041701,-0.87653 -1.050827,-2.13413 -0.03393,-4.67662 0.938218,-2.34579 1.78799,-5.15445 3.215381,-10.62741 4.43907,-17.0206 5.1592,-19.59957 7.31411,-26.19375 2.74911,-8.41246 3.78597,-10.46954 5.51821,-10.94784 2.78364,-0.7686 4.47278,1.33424 5.81861,7.24367 0.46602,2.04622 2.01317,11.75949 2.52074,15.82554 0.27826,2.22912 0.41086,2.65321 0.93743,2.99823 0.95151,0.62346 1.28374,1.95353 0.78569,3.14552 -0.38583,0.92342 -0.36993,1.12813 0.274,3.52842 1.07741,4.01608 1.87627,6.66128 3.70149,12.25639 0.93484,2.86568 1.69971,5.58027 1.69971,6.03241 0,1.12894 -0.68467,2.35491 -1.48511,2.65924 -0.9426,0.35837 -3.28761,0.30713 -4.07114,-0.089 z m -8.83663,-30.28334 c -0.31608,-3.16337 -0.98291,-7.33568 -1.20942,-7.56726 -0.12107,-0.12379 -0.28471,-0.005 -0.36364,0.26459 -1.77381,6.05227 -2.5549,8.7785 -2.5549,8.91735 0,0.0942 0.96895,0.17126 2.15321,0.17126 h 2.1532 z"
         id="path3753"
         inkscape:connector-curvature="0" />
      <path
         style="fill:#9f9f9f;stroke-width:0.26458335"
         d="m 220.26638,305.49242 c -9.73135,-0.79731 -18.67523,-4.17681 -26.78036,-10.11911 -2.9358,-2.15239 -8.50493,-7.661 -10.62178,-10.50633 -14.2062,-19.09516 -13.86242,-45.34464 0.83512,-63.76459 2.31919,-2.90656 6.90692,-7.35063 9.8778,-9.56849 11.87936,-8.86832 27.45246,-12.16053 42.26688,-8.93538 13.26783,2.88846 25.55354,11.60468 32.80906,23.27672 12.77196,20.54639 9.83366,46.99008 -7.13465,64.20937 -8.93215,9.06426 -20.20147,14.33087 -32.97514,15.41061 -3.49683,0.29558 -4.6398,0.2952 -8.27693,-0.003 z m 13.17172,-6.31799 c 16.4574,-3.441 29.69119,-15.05107 35.02829,-30.73048 4.58639,-13.47401 2.67644,-28.583 -5.09977,-40.34257 -6.99498,-10.57815 -17.07017,-17.40186 -29.92852,-20.26995 -2.48673,-0.55467 -3.4303,-0.61909 -8.99583,-0.61419 -5.47731,0.005 -6.54853,0.0775 -8.99584,0.61029 -9.21306,2.0057 -16.86125,6.07771 -23.37264,12.44393 -18.22091,17.81466 -18.7551,46.88644 -1.19897,65.25047 7.17578,7.506 15.60944,12.00596 26.02682,13.88717 4.08837,0.7383 12.45058,0.61963 16.53646,-0.23467 z m -19.90104,-13.44756 c -1.09702,-1.25765 -1.23996,-2.36584 -0.61789,-4.79045 0.67667,-2.63744 1.16381,-7.68516 1.34468,-13.93357 l 0.17628,-6.09017 -6.83904,-0.0263 c -8.72564,-0.0336 -11.25225,-0.323 -15.6133,-1.7884 -3.51832,-1.18223 -7.40319,-2.98064 -8.00493,-3.70569 -0.45523,-0.54852 -0.19818,-1.49595 0.69333,-2.55545 1.55956,-1.85343 3.85079,-2.05057 7.58354,-0.65249 4.82302,1.80643 8.76835,2.48806 15.66245,2.70599 5.18527,0.16391 7.99157,-0.0211 8.75174,-0.57694 0.44527,-0.32559 0.0433,-0.80396 -4.93543,-5.87338 -4.96159,-5.05197 -8.72747,-9.60249 -8.72747,-10.54589 0,-0.18618 0.60819,-0.88532 1.35153,-1.55365 1.09114,-0.98103 1.54001,-1.21514 2.32984,-1.21514 1.24997,0 2.01208,0.57806 4.70907,3.57187 1.17984,1.30969 4.34959,4.57374 7.04389,7.25345 l 4.89873,4.87221 1.17815,-0.44994 c 2.01347,-0.76895 2.10064,-0.99907 1.354,-3.57436 -3.18985,-11.0023 1.00332,-21.34529 9.81083,-24.19963 3.58568,-1.16205 7.61277,-1.05512 11.44962,0.304 6.00184,2.12602 9.40544,5.48991 10.76043,10.6349 0.60847,2.31037 0.82996,8.39666 0.43363,11.91544 -0.7629,6.77327 -2.59267,10.39942 -6.58782,13.05539 -6.27855,4.17398 -14.57288,3.35587 -20.30085,-2.00238 -1.65838,-1.55133 -1.73501,-1.59027 -2.50319,-1.27208 -0.43585,0.18053 -0.79245,0.50622 -0.79245,0.72375 0,0.73764 4.81228,6.57727 10.10619,12.2637 1.84763,1.98462 3.43489,3.90951 3.52726,4.27754 0.27993,1.11532 -0.48872,2.18999 -2.1175,2.96052 l -1.45695,0.68925 -1.00195,-0.51115 c -2.0601,-1.05099 -5.88296,-5.02808 -11.79242,-12.26821 -2.26436,-2.77424 -2.63179,-3.09969 -2.93874,-2.60303 -0.48142,0.77895 -2.9277,15.47486 -3.31155,19.89391 -0.25518,2.93783 -0.70268,3.98205 -2.11412,4.93322 -1.10102,0.74197 -2.9184,0.81095 -3.50959,0.13319 z m 32.06014,-30.37656 c 3.22515,-1.50125 4.92022,-3.48628 5.86094,-6.86354 0.52544,-1.88635 0.51717,-12.4466 -0.0112,-14.2875 -0.56189,-1.95773 -2.89857,-4.20032 -5.95019,-5.71061 -2.11984,-1.04914 -2.55246,-1.16856 -4.23333,-1.16856 -3.7656,0 -6.40297,1.49513 -8.01781,4.54529 -1.28457,2.42635 -1.6596,4.07386 -1.6596,7.29061 0,3.61013 0.52016,5.99749 1.97535,9.06618 1.48948,3.14099 2.4349,4.37129 4.36775,5.68386 3.33363,2.26383 5.16599,2.60895 7.66808,1.44427 z M 71.731677,281.76502 c -0.534627,-0.0564 -1.095428,-0.25125 -1.246223,-0.43295 -0.835694,-1.00694 -1.170878,-20.10073 -0.57891,-32.9776 0.15721,-3.41973 0.361337,-8.77755 0.453615,-11.90625 0.116297,-3.94303 0.27699,-5.90517 0.523694,-6.39454 0.432549,-0.85802 2.592367,-1.96111 4.567966,-2.333 2.166808,-0.4079 7.083232,-0.33127 8.904131,0.13879 4.790837,1.23671 8.908717,4.52521 11.112643,8.87445 2.14852,4.2399 1.809049,11.97171 -0.770784,17.55542 -2.263402,4.89884 -7.037671,7.63391 -13.395124,7.67376 -1.527969,0.01 -3.254375,-0.0421 -3.836458,-0.11487 l -1.058334,-0.1323 0.01208,2.38125 c 0.0066,1.30969 0.04596,5.06016 0.08736,8.33438 0.07625,6.02922 -0.156688,8.08129 -1.037865,9.14305 -0.310524,0.37416 -1.44775,0.43209 -3.737789,0.19041 z M 84.89925,255.46626 c 3.0089,-1.12577 4.629304,-3.54766 5.193147,-7.76178 0.691248,-5.16633 -1.10966,-11.07671 -3.947284,-12.95456 -1.262973,-0.8358 -4.263182,-1.30214 -6.851783,-1.06502 l -1.877064,0.17195 -0.168883,5.46287 c -0.09289,3.00459 -0.282756,6.71304 -0.421933,8.241 -0.139176,1.52797 -0.290063,3.90674 -0.335302,5.28615 l -0.08226,2.50802 1.322917,0.31085 c 2.250867,0.5289 5.460391,0.43959 7.16844,-0.19948 z m 215.47843,26.0758 c -3.58071,-0.77541 -7.09871,-3.20941 -8.70123,-6.0201 -3.1721,-5.56363 -6.08325,-18.94608 -6.95284,-31.96203 -0.36603,-5.47865 -0.11667,-8.48392 0.86887,-10.47142 0.56531,-1.14005 0.73118,-1.27888 1.61552,-1.35221 0.54463,-0.0452 1.408,0.11876 1.92988,0.3664 1.58209,0.75075 1.80516,1.50353 1.9959,6.73548 0.093,2.5514 0.2985,5.05171 0.45664,5.55625 0.15814,0.50453 0.41818,2.88187 0.57787,5.28296 0.72458,10.89497 1.73128,16.37877 3.77864,20.58338 0.92434,1.8983 1.83402,2.76765 3.88021,3.70818 1.818,0.83564 4.72085,0.94969 6.03927,0.23727 2.02149,-1.09233 3.62487,-6.49788 4.68585,-15.79758 0.75493,-6.61705 0.79023,-10.93184 0.1364,-16.66875 -0.8173,-7.1712 -0.8944,-8.91881 -0.44942,-10.18646 0.45439,-1.29444 1.41487,-1.8472 2.76846,-1.59326 2.04187,0.38305 2.95401,2.2361 3.51927,7.14951 0.16741,1.45521 0.5295,3.7174 0.80465,5.02709 0.57687,2.74585 0.63857,6.09665 0.23143,12.56771 -0.64271,10.21491 -2.38135,18.27124 -4.72172,21.87899 -1.83065,2.82199 -3.97388,4.32153 -7.13389,4.99131 -2.14522,0.45469 -3.10626,0.44879 -5.32976,-0.0327 z m -140.49375,-0.1314 c -1.26686,-0.53282 -2.12279,-1.63923 -2.64283,-3.41623 -1.06621,-3.64333 -2.10407,-7.47948 -3.43774,-12.70662 -0.76113,-2.98318 -1.47969,-5.52644 -1.59679,-5.65169 -0.11709,-0.12526 -1.4886,0.27103 -3.04778,0.88064 -2.36554,0.92488 -5.60034,1.83727 -6.58041,1.85604 -0.14242,0.003 -0.16455,3.59846 -0.0545,8.84694 l 0.18548,8.84234 -0.57662,0.5372 c -0.92901,0.8655 -1.94739,0.94693 -3.69041,0.29509 -0.85798,-0.32086 -1.62026,-0.77868 -1.69395,-1.01737 -0.24805,-0.80338 -0.94625,-8.97817 -1.20595,-14.11964 -0.30664,-6.07085 -0.34689,-35.64941 -0.0491,-36.11817 0.6248,-0.98369 6.35103,-2.1868 10.40807,-2.1868 8.70221,0 14.07348,3.5543 16.63869,11.01022 2.00244,5.8202 0.63855,12.92227 -3.15766,16.44254 l -0.92971,0.86214 0.30478,1.38682 c 0.16763,0.76275 0.72973,3.35135 1.24912,5.75245 0.51938,2.40109 1.48302,6.17486 2.14143,8.38614 2.06132,6.92312 2.41329,9.34925 1.43247,9.87416 -0.78938,0.42247 -2.93528,0.564 -3.69659,0.2438 z m -13.53679,-26.59544 c 7.44702,-2.49988 10.65379,-6.29532 10.31171,-12.20462 -0.26162,-4.51932 -2.77593,-7.59054 -7.12662,-8.70513 -1.70662,-0.43722 -6.62024,-0.44717 -7.30923,-0.0148 -0.2547,0.15983 -0.33073,2.41557 -0.33073,9.81229 0,5.28261 0.0774,10.16951 0.17202,10.85977 l 0.17201,1.25502 1.07363,-0.17168 c 0.59049,-0.0944 1.95724,-0.4683 3.03721,-0.83084 z m 202.03929,26.50459 c -1.55768,-0.67848 -2.0556,-1.64706 -3.49462,-6.79776 -0.74808,-2.67774 -1.91616,-7.07127 -2.59569,-9.76341 -0.67953,-2.69213 -1.3298,-4.99727 -1.44502,-5.12252 -0.11523,-0.12526 -1.48521,0.27103 -3.0444,0.88064 -2.36554,0.92488 -5.60033,1.83727 -6.5804,1.85604 -0.14243,0.003 -0.16455,3.59846 -0.0545,8.84694 l 0.1855,8.84234 -0.58722,0.54707 c -0.32297,0.30089 -0.95652,0.61635 -1.40787,0.70103 -1.03571,0.1943 -3.77146,-0.78823 -3.94871,-1.41814 -1.01966,-3.62364 -1.78427,-24.77118 -1.50351,-41.58385 l 0.14788,-8.85566 1.32292,-0.49826 c 2.43138,-0.91575 5.93738,-1.49475 9.07314,-1.4984 7.80801,-0.009 12.80123,2.71026 15.64571,8.52078 1.46717,2.99706 1.90061,4.83783 1.91767,8.14449 0.0233,4.49108 -1.15416,7.83718 -3.688,10.48165 l -1.20843,1.26117 0.32446,1.47078 c 0.17844,0.80893 0.67479,3.13765 1.10302,5.17494 0.4282,2.0373 1.4287,5.96636 2.22332,8.73125 1.57303,5.47348 2.13889,8.24812 1.88691,9.25213 -0.26742,1.06549 -2.66076,1.52864 -4.27218,0.82675 z m -14.66593,-26.1032 c 5.25478,-1.45027 9.2511,-4.22834 10.74227,-7.46761 0.68043,-1.47807 0.75644,-1.9231 0.75522,-4.42161 0,-2.32315 -0.0995,-2.99239 -0.60065,-4.08648 -1.86876,-4.07978 -5.26431,-5.8665 -10.75389,-5.6586 -1.46399,0.0554 -2.81064,0.1942 -2.99254,0.30835 -0.25509,0.16008 -0.33073,2.49572 -0.33073,10.21302 0,5.50302 0.0744,10.37755 0.16536,10.83231 0.19799,0.98992 0.38265,1.00711 3.01496,0.28062 z m 38.23634,26.07311 c -5.71693,-0.93071 -11.04996,-3.62049 -13.10738,-6.61087 -1.75657,-2.55306 -2.38064,-6.21043 -1.40909,-8.25781 1.13003,-2.3814 4.61938,-2.57586 5.78469,-0.32238 0.22807,0.44104 0.52739,1.838 0.66519,3.10437 0.24363,2.23944 0.2804,2.32965 1.34339,3.29449 1.22968,1.11613 3.12894,1.79915 6.77754,2.43737 2.9491,0.51587 4.74067,0.51356 6.75611,-0.009 2.48507,-0.64395 4.64519,-1.87198 6.42353,-3.65179 2.12865,-2.13042 2.85012,-3.92957 2.71894,-6.78035 -0.2018,-4.38585 -1.75932,-5.55802 -12.12583,-9.12591 -11.11777,-3.82645 -15.48741,-7.51681 -15.81735,-13.35844 -0.36311,-6.42911 4.09308,-12.47556 10.65797,-14.46143 2.19501,-0.66398 7.55526,-0.6595 9.78162,0.008 3.42929,1.02844 5.63782,2.75484 6.37905,4.9865 0.56248,1.69342 0.3361,2.51537 -0.82647,3.00113 -1.15787,0.48379 -1.78745,0.3287 -4.61857,-1.1377 -2.75103,-1.42492 -4.36761,-1.65694 -7.1778,-1.03017 -3.66271,0.8169 -5.80438,2.68474 -6.94584,6.05781 -0.53338,1.57606 -0.55306,3.94321 -0.0411,4.93331 1.11427,2.15474 3.38209,3.1941 13.10638,6.00677 5.12746,1.48307 8.08532,2.97904 10.4155,5.26776 3.9092,3.83962 5.00738,10.71086 2.57503,16.11166 -0.81338,1.80606 -2.71174,4.10462 -4.52249,5.47592 -4.72591,3.57897 -10.77119,5.04061 -16.79305,4.06026 z m -247.52707,-0.20451 c -0.46327,-0.23419 -0.84616,-0.84741 -1.27788,-2.04662 -0.92037,-2.55649 -4.10718,-13.23155 -5.09666,-17.07259 l -0.86662,-3.3641 -3.52176,0.13438 c -3.64799,0.13921 -4.16021,0.2949 -4.38904,1.33409 -0.28863,1.31079 -3.47836,12.18257 -4.46795,15.22845 -0.80869,2.48908 -1.28101,3.5082 -1.98912,4.292 -1.4343,1.5876 -2.967988,1.70115 -4.586151,0.33956 -1.041701,-0.87653 -1.050827,-2.13413 -0.03393,-4.67662 0.938218,-2.34579 1.78799,-5.15445 3.215381,-10.62741 4.43907,-17.0206 5.1592,-19.59957 7.31411,-26.19375 2.74911,-8.41246 3.78597,-10.46954 5.51821,-10.94784 2.78364,-0.7686 4.47278,1.33424 5.81861,7.24367 0.46602,2.04622 2.01317,11.75949 2.52074,15.82554 0.27826,2.22912 0.41086,2.65321 0.93743,2.99823 0.95151,0.62346 1.28374,1.95353 0.78569,3.14552 -0.38583,0.92342 -0.36993,1.12813 0.274,3.52842 1.07741,4.01608 1.87627,6.66128 3.70149,12.25639 0.93484,2.86568 1.69971,5.58027 1.69971,6.03241 0,1.12894 -0.68467,2.35491 -1.48511,2.65924 -0.9426,0.35837 -3.28761,0.30713 -4.07114,-0.089 z m -8.83663,-30.28334 c -0.31608,-3.16337 -0.98291,-7.33568 -1.20942,-7.56726 -0.12107,-0.12379 -0.28471,-0.005 -0.36364,0.26459 -1.77381,6.05227 -2.5549,8.7785 -2.5549,8.91735 0,0.0942 0.96895,0.17126 2.15321,0.17126 h 2.1532 z"
         id="path3751"
         inkscape:connector-curvature="0" />
      <path
         style="fill:#5ea2d7;stroke-width:0.26458335"
         d="m 220.26638,305.49242 c -9.73135,-0.79731 -18.67523,-4.17681 -26.78036,-10.11911 -2.9358,-2.15239 -8.50493,-7.661 -10.62178,-10.50633 -14.2062,-19.09516 -13.86242,-45.34464 0.83512,-63.76459 2.31919,-2.90656 6.90692,-7.35063 9.8778,-9.56849 11.87936,-8.86832 27.45246,-12.16053 42.26688,-8.93538 13.26783,2.88846 25.55354,11.60468 32.80906,23.27672 12.77196,20.54639 9.83366,46.99008 -7.13465,64.20937 -8.93215,9.06426 -20.20147,14.33087 -32.97514,15.41061 -3.49683,0.29558 -4.6398,0.2952 -8.27693,-0.003 z m 13.17172,-6.31799 c 16.4574,-3.441 29.69119,-15.05107 35.02829,-30.73048 4.58639,-13.47401 2.67644,-28.583 -5.09977,-40.34257 -6.99498,-10.57815 -17.07017,-17.40186 -29.92852,-20.26995 -2.48673,-0.55467 -3.4303,-0.61909 -8.99583,-0.61419 -5.47731,0.005 -6.54853,0.0775 -8.99584,0.61029 -9.21306,2.0057 -16.86125,6.07771 -23.37264,12.44393 -18.22091,17.81466 -18.7551,46.88644 -1.19897,65.25047 7.17578,7.506 15.60944,12.00596 26.02682,13.88717 4.08837,0.7383 12.45058,0.61963 16.53646,-0.23467 z m -19.90104,-13.44756 c -1.09702,-1.25765 -1.23996,-2.36584 -0.61789,-4.79045 0.67667,-2.63744 1.16381,-7.68516 1.34468,-13.93357 l 0.17628,-6.09017 -6.83904,-0.0263 c -8.72564,-0.0336 -11.25225,-0.323 -15.6133,-1.7884 -3.51832,-1.18223 -7.40319,-2.98064 -8.00493,-3.70569 -0.45523,-0.54852 -0.19818,-1.49595 0.69333,-2.55545 1.55956,-1.85343 3.85079,-2.05057 7.58354,-0.65249 4.82302,1.80643 8.76835,2.48806 15.66245,2.70599 5.18527,0.16391 7.99157,-0.0211 8.75174,-0.57694 0.44527,-0.32559 0.0433,-0.80396 -4.93543,-5.87338 -4.96159,-5.05197 -8.72747,-9.60249 -8.72747,-10.54589 0,-0.18618 0.60819,-0.88532 1.35153,-1.55365 1.09114,-0.98103 1.54001,-1.21514 2.32984,-1.21514 1.24997,0 2.01208,0.57806 4.70907,3.57187 1.17984,1.30969 4.34959,4.57374 7.04389,7.25345 l 4.89873,4.87221 1.17815,-0.44994 c 2.01347,-0.76895 2.10064,-0.99907 1.354,-3.57436 -3.18985,-11.0023 1.00332,-21.34529 9.81083,-24.19963 3.58568,-1.16205 7.61277,-1.05512 11.44962,0.304 6.00184,2.12602 9.40544,5.48991 10.76043,10.6349 0.60847,2.31037 0.82996,8.39666 0.43363,11.91544 -0.7629,6.77327 -2.59267,10.39942 -6.58782,13.05539 -6.27855,4.17398 -14.57288,3.35587 -20.30085,-2.00238 -1.65838,-1.55133 -1.73501,-1.59027 -2.50319,-1.27208 -0.43585,0.18053 -0.79245,0.50622 -0.79245,0.72375 0,0.73764 4.81228,6.57727 10.10619,12.2637 1.84763,1.98462 3.43489,3.90951 3.52726,4.27754 0.27993,1.11532 -0.48872,2.18999 -2.1175,2.96052 l -1.45695,0.68925 -1.00195,-0.51115 c -2.0601,-1.05099 -5.88296,-5.02808 -11.79242,-12.26821 -2.26436,-2.77424 -2.63179,-3.09969 -2.93874,-2.60303 -0.48142,0.77895 -2.9277,15.47486 -3.31155,19.89391 -0.25518,2.93783 -0.70268,3.98205 -2.11412,4.93322 -1.10102,0.74197 -2.9184,0.81095 -3.50959,0.13319 z m 32.06014,-30.37656 c 3.22515,-1.50125 4.92022,-3.48628 5.86094,-6.86354 0.52544,-1.88635 0.51717,-12.4466 -0.0112,-14.2875 -0.56189,-1.95773 -2.89857,-4.20032 -5.95019,-5.71061 -2.11984,-1.04914 -2.55246,-1.16856 -4.23333,-1.16856 -3.7656,0 -6.40297,1.49513 -8.01781,4.54529 -1.28457,2.42635 -1.6596,4.07386 -1.6596,7.29061 0,3.61013 0.52016,5.99749 1.97535,9.06618 1.48948,3.14099 2.4349,4.37129 4.36775,5.68386 3.33363,2.26383 5.16599,2.60895 7.66808,1.44427 z M 71.387899,281.46639 c -1.032831,-0.22849 -1.084648,-0.56387 -1.450714,-9.38972 -0.292901,-7.06182 -0.08643,-19.25449 0.522676,-30.86595 0.141223,-2.69213 0.257382,-6.21179 0.25813,-7.82146 0.0016,-3.41095 0.150986,-3.687 2.6228,-4.84614 1.425876,-0.66866 1.652534,-0.69376 6.242102,-0.69116 4.541827,0.003 4.844597,0.0355 6.534284,0.71042 5.16693,2.0639 9.125398,6.45336 10.140647,11.24473 1.290153,6.08878 -0.513467,14.07982 -4.025276,17.83423 -1.47543,1.57736 -2.835034,2.38998 -5.53497,3.3082 -1.776918,0.60432 -2.560114,0.71418 -5.262601,0.73819 -1.74625,0.0155 -3.591719,-0.0313 -4.101042,-0.10409 l -0.926042,-0.13229 -0.03007,8.59896 c -0.02688,7.68641 -0.08304,8.75339 -0.529166,10.05417 l -0.499095,1.4552 -1.5875,0.0404 c -0.873125,0.0222 -1.941498,-0.038 -2.374161,-0.13366 z m 13.030088,-25.57807 c 3.988973,-1.1846 6.032079,-4.85057 5.968222,-10.70885 -0.06647,-6.09822 -2.448591,-10.61105 -6.009138,-11.38406 -0.745027,-0.16175 -2.664282,-0.25612 -4.265011,-0.2097 l -2.910417,0.0844 -0.168111,5.42396 c -0.09246,2.98318 -0.297957,6.85271 -0.456659,8.59896 -0.39577,4.35481 -0.458922,7.48932 -0.156912,7.78818 0.769164,0.76113 5.922593,1.02346 7.998026,0.40712 z m 216.753443,25.62099 c -2.79805,-0.46785 -6.22958,-2.29718 -7.99588,-4.26255 -2.39354,-2.6633 -4.36001,-8.29537 -6.16015,-17.64298 -1.87965,-9.76051 -2.71402,-20.57739 -1.88586,-24.44858 0.5713,-2.67047 0.95732,-3.20489 2.31498,-3.20489 1.34559,0 2.49385,0.65908 2.976,1.70816 0.24786,0.5393 0.4186,2.29141 0.51681,5.3033 0.0807,2.47385 0.26648,4.89037 0.41292,5.37005 0.14645,0.47967 0.39584,2.80139 0.55421,5.15937 0.77819,11.58628 2.02075,17.7612 4.38627,21.79766 1.27764,2.18012 4.11209,3.61783 7.12966,3.61636 2.77974,-0.001 3.77652,-0.91744 5.04391,-4.63553 1.37306,-4.02809 2.31927,-10.01756 2.79992,-17.72334 0.25552,-4.09654 0.23319,-5.40348 -0.15902,-9.30745 -0.25095,-2.49794 -0.6215,-5.61327 -0.82343,-6.92296 -0.3135,-2.03325 -0.3133,-2.61138 0.001,-3.95597 0.20272,-0.8661 0.57998,-1.7293 0.83836,-1.91823 1.21288,-0.88688 3.3942,-0.0306 4.18906,1.64446 0.25893,0.54565 0.63837,2.37541 0.8432,4.06613 0.20484,1.69072 0.60853,4.22802 0.89711,5.63845 1.63931,8.01226 -0.60775,27.62809 -3.87773,33.85087 -1.01951,1.94014 -3.0684,4.05553 -4.65918,4.8104 -2.12796,1.00979 -5.08237,1.4352 -7.34258,1.05727 z m -175.41875,-0.32364 c -1.47288,-0.20892 -1.81318,-0.41527 -2.15126,-1.3045 -0.50054,-1.3165 -3.35584,-10.74908 -4.45756,-14.72565 -0.60475,-2.18282 -1.27349,-4.59383 -1.48608,-5.35782 l -0.38654,-1.38906 -2.44001,0.0158 c -2.78208,0.018 -4.8468,0.30082 -5.26755,0.72157 -0.15848,0.15847 -1.21627,3.48045 -2.35066,7.38217 -3.03538,10.44017 -3.57718,11.92773 -4.78858,13.14738 -0.95164,0.95813 -1.09927,1.01725 -2.22347,0.89054 -2.597999,-0.29283 -3.149328,-2.0995 -1.70179,-5.57664 0.904378,-2.17241 2.07595,-6.14824 3.83338,-13.00892 3.26068,-12.72908 4.79033,-18.11783 7.05981,-24.87083 2.73165,-8.12821 3.57753,-9.51297 5.81096,-9.51297 2.13081,0 3.53212,2.1055 4.57042,6.86714 0.60996,2.7973 1.90081,10.78272 2.58305,15.9792 0.28626,2.1804 0.4335,2.61375 1.19964,3.53076 0.96752,1.15806 1.06216,1.7147 0.48218,2.83626 -0.36222,0.70046 -0.32238,1.00768 0.53869,4.15405 1.38554,5.06278 2.62288,9.13067 3.95336,12.99712 1.39659,4.05855 1.51289,5.4538 0.54194,6.50147 -0.35685,0.38505 -0.82337,0.7001 -1.03669,0.7001 -0.21333,0 -0.54644,0.0431 -0.74024,0.0959 -0.19381,0.0527 -0.88815,0.0199 -1.543,-0.073 z m -9.88959,-28.71888 c 0.23338,-0.60818 -0.98986,-9.52371 -1.35707,-9.89092 -0.0717,-0.0717 -0.20684,-0.054 -0.30025,0.0394 -0.29874,0.29874 -2.99632,9.77279 -2.85003,10.00949 0.0774,0.12519 1.08988,0.22762 2.25003,0.22762 1.6035,0 2.14484,-0.0925 2.25732,-0.3856 z m 43.5722,28.46079 c -0.46504,-0.29329 -1.03257,-0.81872 -1.26118,-1.16763 -0.52326,-0.7986 -1.70179,-4.98443 -4.91311,-17.45006 -0.89209,-3.46287 -0.72241,-3.37507 -3.98079,-2.05966 -1.51675,0.61232 -3.71023,1.31449 -4.8744,1.56039 l -2.11667,0.44707 0.0803,8.99031 0.0802,8.99031 -0.78253,0.46225 c -0.43039,0.25424 -1.08171,0.46225 -1.44738,0.46225 -0.72952,0 -2.94425,-0.8731 -3.17925,-1.25334 -0.15144,-0.24504 -0.49832,-3.41928 -0.9632,-8.81433 -0.50878,-5.90438 -0.83492,-21.75987 -0.64907,-31.55514 0.21357,-11.25671 -0.15533,-10.06595 3.42135,-11.0437 1.59166,-0.43511 3.13889,-0.61107 6.23794,-0.70942 3.60559,-0.11443 4.40014,-0.0604 6.35,0.43157 3.26723,0.8244 4.87606,1.70736 7.00387,3.84388 3.26395,3.27728 4.72567,7.1082 4.70213,12.32339 -0.0115,2.55208 -0.12752,3.39326 -0.71933,5.21668 -0.7177,2.2113 -1.92947,4.11971 -3.42267,5.39037 l -0.80517,0.68516 1.00202,4.6065 c 1.05999,4.87304 1.6249,7.0915 3.32899,13.07317 1.14909,4.03353 1.61327,7.33144 1.07843,7.66199 -0.175,0.10816 -0.99471,0.25169 -1.82158,0.31895 -1.1959,0.0973 -1.67631,0.0132 -2.3489,-0.41096 z m -14.63176,-25.39291 c 5.94949,-1.70539 9.54013,-4.1743 11.21201,-7.70936 0.7418,-1.56849 0.8127,-1.95257 0.80577,-4.36563 -0.006,-2.10187 -0.12897,-2.95301 -0.59797,-4.13996 -1.16761,-2.95495 -3.92928,-5.11907 -7.39473,-5.79472 -1.95583,-0.38132 -6.21915,-0.20803 -6.80299,0.27651 -0.34024,0.28238 -0.39766,1.65857 -0.39606,9.49213 0.001,5.03903 0.0778,9.96555 0.17056,10.94781 0.19636,2.07917 0.22238,2.09038 3.00341,1.29322 z m 203.27966,25.39092 c -0.46503,-0.2922 -1.04947,-0.84253 -1.29873,-1.22296 -0.43932,-0.67051 -2.81699,-9.06588 -4.58457,-16.18785 -0.47678,-1.92105 -1.01248,-3.69195 -1.19044,-3.93534 -0.29596,-0.40473 -0.55906,-0.34745 -3.08131,0.67079 -1.51678,0.61232 -3.71025,1.31439 -4.87442,1.56015 l -2.11666,0.44684 0.0982,9.03255 0.0982,9.03254 -0.86889,0.44931 c -0.97189,0.50259 -2.18686,0.42507 -3.73348,-0.23823 -0.87393,-0.37479 -0.98189,-0.53535 -1.12869,-1.67845 -0.94044,-7.32292 -1.47773,-24.20577 -1.26723,-39.81897 l 0.12742,-9.45081 1.08826,-0.4029 c 2.63859,-0.97688 4.38215,-1.26689 8.38455,-1.39463 3.60699,-0.11513 4.39939,-0.0614 6.35,0.43082 3.28861,0.8298 4.87855,1.70307 6.99381,3.84137 3.24165,3.27696 4.7212,7.14542 4.71424,12.3259 -0.003,2.60625 -0.10705,3.34634 -0.72202,5.15938 -0.82537,2.43329 -1.48109,3.51513 -3.08716,5.09326 l -1.14443,1.12451 0.31433,1.38903 c 0.17288,0.76397 0.66865,3.05749 1.10172,5.09671 0.43307,2.03922 1.45291,6.02782 2.26632,8.86354 0.81341,2.83573 1.6157,6.07971 1.78287,7.20885 0.37303,2.51946 0.14115,2.87562 -1.97388,3.03209 -1.07526,0.0795 -1.5998,-0.0202 -2.24803,-0.4275 z m -12.80345,-26.00487 c 4.83867,-1.69682 7.81084,-3.93191 9.32879,-7.01532 0.78496,-1.59447 0.84881,-1.92483 0.85166,-4.40761 0.003,-2.16074 -0.11215,-2.9752 -0.58811,-4.17807 -1.16959,-2.95585 -3.93055,-5.11916 -7.39556,-5.79472 -1.95582,-0.38132 -6.21913,-0.20803 -6.80299,0.27651 -0.34084,0.28287 -0.39762,1.70185 -0.39563,9.88901 0,5.25731 0.0787,10.19466 0.172,10.9719 l 0.16968,1.41315 1.19415,-0.17907 c 0.65677,-0.0985 2.21646,-0.53759 3.46601,-0.97578 z m 35.87398,25.99106 c -4.70958,-0.84072 -9.8438,-3.39736 -11.81132,-5.88156 -1.3675,-1.72661 -2.06607,-3.76313 -2.07129,-6.03824 -0.006,-2.82825 1.00579,-4.20132 3.11399,-4.22396 2.10749,-0.0226 3.03488,1.30901 3.36801,4.8361 0.20966,2.21962 0.97042,3.21609 3.22919,4.22977 2.14111,0.96087 7.39108,1.87391 9.61213,1.67169 3.45482,-0.31457 6.27893,-1.64125 8.73871,-4.1052 1.29672,-1.29894 1.89045,-2.13964 2.3151,-3.27822 0.79283,-2.12575 0.77121,-4.6425 -0.0551,-6.41704 -1.14228,-2.45306 -2.84062,-3.41776 -11.14438,-6.33031 -9.81866,-3.4439 -13.5491,-5.83305 -15.43357,-9.88441 -1.93521,-4.16049 -0.46302,-10.2832 3.38294,-14.06926 4.19171,-4.12643 11.53954,-5.42787 17.59762,-3.11686 4.15941,1.58671 6.52849,6.44781 3.50798,7.19802 -0.89604,0.22255 -1.23087,0.12167 -3.69885,-1.11444 -1.65547,-0.82915 -3.22948,-1.42271 -4.03654,-1.52217 -1.54937,-0.19093 -5.03097,0.46088 -6.52036,1.22071 -3.15815,1.61116 -5.49627,6.76206 -4.47463,9.85764 0.73668,2.23217 3.74554,3.89045 10.38751,5.72487 5.15692,1.42426 7.22768,2.15939 9.68706,3.43889 4.89034,2.54424 7.45688,6.84425 7.45688,12.49334 0,4.32482 -1.14408,6.99255 -4.36769,10.18448 -1.81861,1.80073 -2.61723,2.37092 -4.76361,3.40108 -4.50059,2.16009 -8.69309,2.67596 -14.01974,1.72508 z"
         id="path3749"
         inkscape:connector-curvature="0" />
      <path
         style="fill:#2e87cc;stroke-width:0.26458335"
         d="m 219.01831,305.23189 c -17.85469,-2.026 -33.26642,-12.87373 -41.14991,-28.96387 -8.67229,-17.70005 -6.56131,-38.5577 5.51628,-54.50417 1.7613,-2.3255 6.47629,-7.08235 8.91071,-8.98981 12.24905,-9.5976 27.70016,-13.27762 42.73021,-10.17714 8.36032,1.72461 16.76043,5.92051 23.66028,11.81843 6.57058,5.61646 12.26114,14.24294 15.06631,22.83941 2.02741,6.213 2.41742,8.86777 2.40802,16.3914 -0.008,6.04037 -0.0573,6.71258 -0.73002,9.86012 -2.27965,10.66623 -6.89714,19.29432 -14.31231,26.7435 -7.68942,7.72469 -17.52059,12.76335 -28.47353,14.59323 -3.01715,0.50407 -10.68298,0.72286 -13.62604,0.3889 z m 14.02291,-5.81745 c 18.83369,-3.68251 33.09739,-17.77569 37.21737,-36.77246 0.53305,-2.45787 0.60251,-3.51015 0.60251,-9.12813 0,-7.22967 -0.30646,-9.2647 -2.26875,-15.06545 -9.00708,-26.62588 -39.71317,-39.31542 -64.78731,-26.77388 -12.94827,6.47645 -21.97743,18.25158 -25.07107,32.69576 -0.65171,3.04279 -0.7112,3.81315 -0.70621,9.14357 0.005,5.29332 0.0697,6.12299 0.71397,9.15499 0.94107,4.42847 1.95568,7.28646 4.17034,11.74709 2.41896,4.87216 4.69325,8.01191 8.72087,12.03954 4.0206,4.02059 7.15777,6.29487 12.03953,8.72801 5.24166,2.61251 10.04294,4.0875 15.47813,4.755 3.27534,0.40225 10.55852,0.12748 13.89062,-0.52404 z m -19.52431,-14.05503 c -0.73278,-0.73278 -0.76889,-0.86966 -0.63862,-2.42051 0.076,-0.90409 0.31927,-2.5963 0.54071,-3.76047 0.57325,-3.01379 0.92896,-7.69257 1.02141,-13.43507 l 0.08,-4.9684 -7.67292,-0.0909 c -4.2201,-0.05 -8.60208,-0.23245 -9.73773,-0.40548 -3.8611,-0.58826 -11.74898,-3.64442 -13.01403,-5.04229 -0.39792,-0.4397 -0.40075,-0.55525 -0.0311,-1.27 0.56031,-1.08353 1.84169,-2.10569 3.04633,-2.43006 1.30606,-0.35169 2.91051,-0.0428 6.01002,1.15699 1.32717,0.51374 3.76795,1.18118 5.42396,1.48319 4.28643,0.78175 11.56838,1.20062 15.13359,0.87052 4.58618,-0.42464 4.64218,-0.17715 -1.43746,-6.35281 -2.83419,-2.87895 -5.57788,-5.77023 -6.0971,-6.42507 -1.5646,-1.97329 -2.86831,-3.94101 -2.86831,-4.32922 0,-0.51779 2.21695,-2.49863 3.02284,-2.7009 0.89274,-0.22406 2.73439,0.85555 3.73298,2.18836 0.41427,0.55291 3.49108,3.7735 6.83737,7.15686 4.51093,4.56091 6.24522,6.15156 6.70706,6.15156 0.79334,0 2.69877,-0.96365 2.88981,-1.46149 0.08,-0.20859 -0.18903,-1.6022 -0.59794,-3.0969 -0.65387,-2.39008 -0.74412,-3.18007 -0.74871,-6.55411 -0.006,-4.37625 0.33549,-6.02677 1.91578,-9.26041 1.21926,-2.49491 4.25192,-5.66697 6.40331,-6.69764 4.58489,-2.19649 10.19651,-2.19259 15.19601,0.0106 5.02927,2.21627 7.52517,4.82599 8.92583,9.33291 0.56991,1.83381 0.6162,2.43607 0.61009,7.9375 -0.007,6.66966 -0.37834,8.94446 -2.02277,12.40495 -2.05898,4.33284 -7.69319,7.67916 -12.96245,7.69879 -4.04796,0.0151 -8.57986,-1.81443 -11.63594,-4.69738 l -1.85289,-1.74792 -0.90707,0.48849 c -0.49888,0.26866 -0.90706,0.65573 -0.90706,0.86015 0,0.70831 5.30085,7.0779 11.04635,13.27349 2.21776,2.39148 2.71198,3.07271 2.71198,3.73812 0,1.03349 -0.83328,1.8818 -2.45792,2.50226 l -1.24474,0.47537 -1.12523,-0.74008 c -1.95932,-1.28866 -4.89669,-4.32961 -9.38518,-9.71613 -2.39488,-2.87404 -4.51442,-5.22552 -4.71009,-5.22552 -0.19567,0 -0.41699,0.20835 -0.49183,0.46302 -0.65148,2.21689 -2.75876,15.12126 -3.09499,18.95287 -0.38693,4.40923 -1.21689,5.79759 -3.7418,6.2593 -0.98972,0.18098 -1.16932,0.12566 -1.87149,-0.57651 z m 31.77057,-29.67088 c 3.36105,-1.41135 5.37823,-3.66801 6.31927,-7.06947 0.68867,-2.48925 0.68692,-12.10845 -0.003,-14.38156 -0.85541,-2.81991 -4.60529,-5.87067 -8.51777,-6.92973 -1.4602,-0.39526 -1.91632,-0.41328 -3.35405,-0.13254 -2.5218,0.49243 -4.06941,1.26402 -5.27341,2.62913 -2.14406,2.43098 -3.12684,5.36876 -3.13356,9.367 -0.007,4.25886 1.13891,8.15262 3.43477,11.66952 1.37584,2.10756 2.90814,3.38391 5.58003,4.64791 2.00779,0.94984 3.05988,0.99231 4.94733,0.19974 z M 71.387899,281.46639 c -1.032831,-0.22849 -1.084648,-0.56387 -1.450714,-9.38972 -0.292901,-7.06182 -0.08643,-19.25449 0.522676,-30.86595 0.141223,-2.69213 0.257382,-6.21179 0.25813,-7.82146 0.0016,-3.41095 0.150986,-3.687 2.6228,-4.84614 1.425876,-0.66866 1.652534,-0.69376 6.242102,-0.69116 4.541827,0.003 4.844597,0.0355 6.534284,0.71042 5.16693,2.0639 9.125398,6.45336 10.140647,11.24473 1.290153,6.08878 -0.513467,14.07982 -4.025276,17.83423 -1.47543,1.57736 -2.835034,2.38998 -5.53497,3.3082 -1.776918,0.60432 -2.560114,0.71418 -5.262601,0.73819 -1.74625,0.0155 -3.591719,-0.0313 -4.101042,-0.10409 l -0.926042,-0.13229 -0.03007,8.59896 c -0.02688,7.68641 -0.08304,8.75339 -0.529166,10.05417 l -0.499095,1.4552 -1.5875,0.0404 c -0.873125,0.0222 -1.941498,-0.038 -2.374161,-0.13366 z m 13.030088,-25.57807 c 3.988973,-1.1846 6.032079,-4.85057 5.968222,-10.70885 -0.06647,-6.09822 -2.448591,-10.61105 -6.009138,-11.38406 -0.745027,-0.16175 -2.664282,-0.25612 -4.265011,-0.2097 l -2.910417,0.0844 -0.168111,5.42396 c -0.09246,2.98318 -0.297957,6.85271 -0.456659,8.59896 -0.39577,4.35481 -0.458922,7.48932 -0.156912,7.78818 0.769164,0.76113 5.922593,1.02346 7.998026,0.40712 z m 216.753443,25.62099 c -2.79805,-0.46785 -6.22958,-2.29718 -7.99588,-4.26255 -2.39354,-2.6633 -4.36001,-8.29537 -6.16015,-17.64298 -1.87965,-9.76051 -2.71402,-20.57739 -1.88586,-24.44858 0.5713,-2.67047 0.95732,-3.20489 2.31498,-3.20489 1.34559,0 2.49385,0.65908 2.976,1.70816 0.24786,0.5393 0.4186,2.29141 0.51681,5.3033 0.0807,2.47385 0.26648,4.89037 0.41292,5.37005 0.14645,0.47967 0.39584,2.80139 0.55421,5.15937 0.77819,11.58628 2.02075,17.7612 4.38627,21.79766 1.27764,2.18012 4.11209,3.61783 7.12966,3.61636 2.77974,-0.001 3.77652,-0.91744 5.04391,-4.63553 1.37306,-4.02809 2.31927,-10.01756 2.79992,-17.72334 0.25552,-4.09654 0.23319,-5.40348 -0.15902,-9.30745 -0.25095,-2.49794 -0.6215,-5.61327 -0.82343,-6.92296 -0.3135,-2.03325 -0.3133,-2.61138 0.001,-3.95597 0.20272,-0.8661 0.57998,-1.7293 0.83836,-1.91823 1.21288,-0.88688 3.3942,-0.0306 4.18906,1.64446 0.25893,0.54565 0.63837,2.37541 0.8432,4.06613 0.20484,1.69072 0.60853,4.22802 0.89711,5.63845 1.63931,8.01226 -0.60775,27.62809 -3.87773,33.85087 -1.01951,1.94014 -3.0684,4.05553 -4.65918,4.8104 -2.12796,1.00979 -5.08237,1.4352 -7.34258,1.05727 z m -175.41875,-0.32364 c -1.47288,-0.20892 -1.81318,-0.41527 -2.15126,-1.3045 -0.50054,-1.3165 -3.35584,-10.74908 -4.45756,-14.72565 -0.60475,-2.18282 -1.27349,-4.59383 -1.48608,-5.35782 l -0.38654,-1.38906 -2.44001,0.0158 c -2.78208,0.018 -4.8468,0.30082 -5.26755,0.72157 -0.15848,0.15847 -1.21627,3.48045 -2.35066,7.38217 -3.03538,10.44017 -3.57718,11.92773 -4.78858,13.14738 -0.95164,0.95813 -1.09927,1.01725 -2.22347,0.89054 -2.597999,-0.29283 -3.149328,-2.0995 -1.70179,-5.57664 0.904378,-2.17241 2.07595,-6.14824 3.83338,-13.00892 3.26068,-12.72908 4.79033,-18.11783 7.05981,-24.87083 2.73165,-8.12821 3.57753,-9.51297 5.81096,-9.51297 2.13081,0 3.53212,2.1055 4.57042,6.86714 0.60996,2.7973 1.90081,10.78272 2.58305,15.9792 0.28626,2.1804 0.4335,2.61375 1.19964,3.53076 0.96752,1.15806 1.06216,1.7147 0.48218,2.83626 -0.36222,0.70046 -0.32238,1.00768 0.53869,4.15405 1.38554,5.06278 2.62288,9.13067 3.95336,12.99712 1.39659,4.05855 1.51289,5.4538 0.54194,6.50147 -0.35685,0.38505 -0.82337,0.7001 -1.03669,0.7001 -0.21333,0 -0.54644,0.0431 -0.74024,0.0959 -0.19381,0.0527 -0.88815,0.0199 -1.543,-0.073 z m -9.88959,-28.71888 c 0.23338,-0.60818 -0.98986,-9.52371 -1.35707,-9.89092 -0.0717,-0.0717 -0.20684,-0.054 -0.30025,0.0394 -0.29874,0.29874 -2.99632,9.77279 -2.85003,10.00949 0.0774,0.12519 1.08988,0.22762 2.25003,0.22762 1.6035,0 2.14484,-0.0925 2.25732,-0.3856 z m 43.5722,28.46079 c -0.46504,-0.29329 -1.03257,-0.81872 -1.26118,-1.16763 -0.52326,-0.7986 -1.70179,-4.98443 -4.91311,-17.45006 -0.89209,-3.46287 -0.72241,-3.37507 -3.98079,-2.05966 -1.51675,0.61232 -3.71023,1.31449 -4.8744,1.56039 l -2.11667,0.44707 0.0803,8.99031 0.0802,8.99031 -0.78253,0.46225 c -0.43039,0.25424 -1.08171,0.46225 -1.44738,0.46225 -0.72952,0 -2.94425,-0.8731 -3.17925,-1.25334 -0.15144,-0.24504 -0.49832,-3.41928 -0.9632,-8.81433 -0.50878,-5.90438 -0.83492,-21.75987 -0.64907,-31.55514 0.21357,-11.25671 -0.15533,-10.06595 3.42135,-11.0437 1.59166,-0.43511 3.13889,-0.61107 6.23794,-0.70942 3.60559,-0.11443 4.40014,-0.0604 6.35,0.43157 3.26723,0.8244 4.87606,1.70736 7.00387,3.84388 3.26395,3.27728 4.72567,7.1082 4.70213,12.32339 -0.0115,2.55208 -0.12752,3.39326 -0.71933,5.21668 -0.7177,2.2113 -1.92947,4.11971 -3.42267,5.39037 l -0.80517,0.68516 1.00202,4.6065 c 1.05999,4.87304 1.6249,7.0915 3.32899,13.07317 1.14909,4.03353 1.61327,7.33144 1.07843,7.66199 -0.175,0.10816 -0.99471,0.25169 -1.82158,0.31895 -1.1959,0.0973 -1.67631,0.0132 -2.3489,-0.41096 z m -14.63176,-25.39291 c 5.94949,-1.70539 9.54013,-4.1743 11.21201,-7.70936 0.7418,-1.56849 0.8127,-1.95257 0.80577,-4.36563 -0.006,-2.10187 -0.12897,-2.95301 -0.59797,-4.13996 -1.16761,-2.95495 -3.92928,-5.11907 -7.39473,-5.79472 -1.95583,-0.38132 -6.21915,-0.20803 -6.80299,0.27651 -0.34024,0.28238 -0.39766,1.65857 -0.39606,9.49213 0.001,5.03903 0.0778,9.96555 0.17056,10.94781 0.19636,2.07917 0.22238,2.09038 3.00341,1.29322 z m 203.27966,25.39092 c -0.46503,-0.2922 -1.04947,-0.84253 -1.29873,-1.22296 -0.43932,-0.67051 -2.81699,-9.06588 -4.58457,-16.18785 -0.47678,-1.92105 -1.01248,-3.69195 -1.19044,-3.93534 -0.29596,-0.40473 -0.55906,-0.34745 -3.08131,0.67079 -1.51678,0.61232 -3.71025,1.31439 -4.87442,1.56015 l -2.11666,0.44684 0.0982,9.03255 0.0982,9.03254 -0.86889,0.44931 c -0.97189,0.50259 -2.18686,0.42507 -3.73348,-0.23823 -0.87393,-0.37479 -0.98189,-0.53535 -1.12869,-1.67845 -0.94044,-7.32292 -1.47773,-24.20577 -1.26723,-39.81897 l 0.12742,-9.45081 1.08826,-0.4029 c 2.63859,-0.97688 4.38215,-1.26689 8.38455,-1.39463 3.60699,-0.11513 4.39939,-0.0614 6.35,0.43082 3.28861,0.8298 4.87855,1.70307 6.99381,3.84137 3.24165,3.27696 4.7212,7.14542 4.71424,12.3259 -0.003,2.60625 -0.10705,3.34634 -0.72202,5.15938 -0.82537,2.43329 -1.48109,3.51513 -3.08716,5.09326 l -1.14443,1.12451 0.31433,1.38903 c 0.17288,0.76397 0.66865,3.05749 1.10172,5.09671 0.43307,2.03922 1.45291,6.02782 2.26632,8.86354 0.81341,2.83573 1.6157,6.07971 1.78287,7.20885 0.37303,2.51946 0.14115,2.87562 -1.97388,3.03209 -1.07526,0.0795 -1.5998,-0.0202 -2.24803,-0.4275 z m -12.80345,-26.00487 c 4.83867,-1.69682 7.81084,-3.93191 9.32879,-7.01532 0.78496,-1.59447 0.84881,-1.92483 0.85166,-4.40761 0.003,-2.16074 -0.11215,-2.9752 -0.58811,-4.17807 -1.16959,-2.95585 -3.93055,-5.11916 -7.39556,-5.79472 -1.95582,-0.38132 -6.21913,-0.20803 -6.80299,0.27651 -0.34084,0.28287 -0.39762,1.70185 -0.39563,9.88901 0,5.25731 0.0787,10.19466 0.172,10.9719 l 0.16968,1.41315 1.19415,-0.17907 c 0.65677,-0.0985 2.21646,-0.53759 3.46601,-0.97578 z m 35.87398,25.99106 c -4.70958,-0.84072 -9.8438,-3.39736 -11.81132,-5.88156 -1.3675,-1.72661 -2.06607,-3.76313 -2.07129,-6.03824 -0.006,-2.82825 1.00579,-4.20132 3.11399,-4.22396 2.10749,-0.0226 3.03488,1.30901 3.36801,4.8361 0.20966,2.21962 0.97042,3.21609 3.22919,4.22977 2.14111,0.96087 7.39108,1.87391 9.61213,1.67169 3.45482,-0.31457 6.27893,-1.64125 8.73871,-4.1052 1.29672,-1.29894 1.89045,-2.13964 2.3151,-3.27822 0.79283,-2.12575 0.77121,-4.6425 -0.0551,-6.41704 -1.14228,-2.45306 -2.84062,-3.41776 -11.14438,-6.33031 -9.81866,-3.4439 -13.5491,-5.83305 -15.43357,-9.88441 -1.93521,-4.16049 -0.46302,-10.2832 3.38294,-14.06926 4.19171,-4.12643 11.53954,-5.42787 17.59762,-3.11686 4.15941,1.58671 6.52849,6.44781 3.50798,7.19802 -0.89604,0.22255 -1.23087,0.12167 -3.69885,-1.11444 -1.65547,-0.82915 -3.22948,-1.42271 -4.03654,-1.52217 -1.54937,-0.19093 -5.03097,0.46088 -6.52036,1.22071 -3.15815,1.61116 -5.49627,6.76206 -4.47463,9.85764 0.73668,2.23217 3.74554,3.89045 10.38751,5.72487 5.15692,1.42426 7.22768,2.15939 9.68706,3.43889 4.89034,2.54424 7.45688,6.84425 7.45688,12.49334 0,4.32482 -1.14408,6.99255 -4.36769,10.18448 -1.81861,1.80073 -2.61723,2.37092 -4.76361,3.40108 -4.50059,2.16009 -8.69309,2.67596 -14.01974,1.72508 z"
         id="path3747"
         inkscape:connector-curvature="0" />
      <path
         style="fill:#1177c6;stroke-width:0.26458335"
         d="m 218.70749,304.9678 c -7.49755,-0.9437 -15.15982,-3.59814 -21.17873,-7.33696 -19.43427,-12.07217 -28.6641,-34.9167 -23.05748,-57.06903 1.24917,-4.9356 3.86877,-10.9395 6.58568,-15.09379 3.00657,-4.59722 7.79345,-9.83203 11.7676,-12.86877 6.12878,-4.68312 13.81946,-8.25204 20.93803,-9.71644 7.87196,-1.61939 16.61714,-1.38193 24.17343,0.65638 18.0788,4.87675 32.47095,19.66689 36.78654,37.80383 1.81272,7.61822 1.79454,17.03868 -0.0472,24.47396 -3.64421,14.71182 -13.54711,27.1227 -27.06786,33.92297 -4.74772,2.38787 -9.2144,3.84999 -14.83083,4.85469 -2.80049,0.50096 -11.26919,0.72558 -14.06915,0.37316 z m 10.49728,-4.76192 c 11.71637,-1.22285 22.65215,-6.84702 30.33983,-15.60349 5.50557,-6.27098 9.31868,-13.97557 10.94992,-22.12483 0.73603,-3.67706 0.9842,-10.6389 0.5211,-14.61831 -1.56325,-13.43295 -9.1641,-25.74965 -20.62423,-33.42026 -13.82014,-9.25023 -31.7495,-10.4291 -46.49887,-3.05732 -5.38769,2.69278 -8.80531,5.22073 -13.18463,9.75243 -6.31297,6.53263 -10.64354,14.93895 -12.36257,23.99772 -0.49404,2.60342 -0.58375,3.96585 -0.5693,8.64661 0.0152,4.927 0.0945,5.91965 0.69988,8.76498 2.37584,11.16619 8.19383,20.68336 16.99449,27.7999 9.09307,7.35298 21.90132,11.0976 33.73438,9.86257 z m -15.59122,-14.97771 c -0.60736,-0.77214 -0.75633,-2.95476 -0.28609,-4.1916 0.78193,-2.05663 1.95767,-19.72006 1.3529,-20.32484 -0.16111,-0.16111 -2.44477,-0.24205 -5.89995,-0.20912 -3.10041,0.0295 -7.24445,-0.08 -9.20898,-0.24349 -3.12734,-0.26022 -4.07055,-0.46224 -7.57877,-1.62326 -3.72825,-1.23384 -7.74898,-3.16323 -7.95475,-3.81717 -0.1765,-0.56092 1.14324,-2.11158 2.30649,-2.71006 1.50657,-0.77511 2.88426,-0.6381 6.10989,0.60764 4.61445,1.7821 9.98912,2.5721 17.56818,2.58228 5.15509,0.007 7.16717,-0.26706 7.45419,-1.01503 0.10077,-0.26259 -1.59744,-2.16965 -5.11212,-5.74082 -4.9237,-5.00284 -7.38712,-7.88066 -8.47628,-9.90216 -0.44954,-0.83436 -0.446,-0.86335 0.18767,-1.53787 1.077,-1.1464 2.31066,-1.78621 3.07451,-1.5945 0.42019,0.10547 3.58894,3.12241 8.22592,7.83184 5.74599,5.83577 7.69446,7.6603 8.18068,7.6603 0.35103,0 1.24167,-0.30578 1.97919,-0.67952 1.54794,-0.7844 1.54654,-0.77141 0.48528,-4.47986 -0.50707,-1.77188 -0.6096,-2.78468 -0.62947,-6.21771 -0.0223,-3.84553 0.0241,-4.247 0.74414,-6.44389 1.67646,-5.11498 4.98853,-8.64127 9.52695,-10.14312 1.84323,-0.60996 2.58165,-0.70831 5.31559,-0.70799 2.88369,3.5e-4 3.40562,0.0789 5.68855,0.856 4.8005,1.63412 8.2093,4.25742 9.75272,7.50538 1.22943,2.58721 1.67938,5.27461 1.67399,9.99826 -0.008,6.74781 -1.16141,11.6907 -3.42336,14.66665 -1.24197,1.63401 -4.44918,3.84371 -6.69749,4.61442 -5.3953,1.84948 -11.98203,0.30835 -16.31102,-3.81637 -0.98774,-0.94113 -1.91495,-1.71105 -2.06047,-1.71092 -0.55363,5.3e-4 -1.98437,1.06778 -1.98437,1.4803 0,0.77422 4.63749,6.41586 10.2526,12.4726 2.81928,3.04101 3.50573,3.93138 3.50573,4.54717 0,0.85385 -0.94099,1.80369 -2.37556,2.39791 -0.76071,0.3151 -0.96618,0.29783 -1.80616,-0.15178 -1.3397,-0.7171 -5.88935,-5.27573 -8.6739,-8.69103 -5.56921,-6.83073 -5.92611,-7.15701 -6.45934,-5.90536 -0.59693,1.40116 -2.75686,14.51182 -3.19236,19.37745 -0.31675,3.53888 -0.75835,4.53833 -2.36876,5.3611 -1.51864,0.77587 -2.21489,0.75131 -2.88597,-0.10183 z m 31.80418,-29.31275 c 2.04835,-0.84232 4.29745,-2.61966 5.14491,-4.06574 1.61063,-2.74833 2.24741,-8.06356 1.70712,-14.2494 -0.39501,-4.52257 -1.12613,-5.97963 -4.015,-8.0016 -3.31897,-2.32301 -5.92013,-3.13656 -8.52445,-2.66616 -4.21536,0.7614 -6.47907,2.84415 -8.04188,7.39904 -0.40156,1.17037 -0.49523,2.18025 -0.47855,5.15937 0.0191,3.41556 0.0856,3.90001 0.85363,6.21771 1.03363,3.1194 2.82339,6.21462 4.39175,7.59515 1.20617,1.06172 3.86141,2.60731 5.14652,2.99574 1.21446,0.36709 2.24028,0.26383 3.81595,-0.38411 z M 71.387899,281.46639 c -1.032831,-0.22849 -1.084648,-0.56387 -1.450714,-9.38972 -0.292901,-7.06182 -0.08643,-19.25449 0.522676,-30.86595 0.141223,-2.69213 0.257382,-6.21179 0.25813,-7.82146 0.0016,-3.41095 0.150986,-3.687 2.6228,-4.84614 1.425876,-0.66866 1.652534,-0.69376 6.242102,-0.69116 4.541827,0.003 4.844597,0.0355 6.534284,0.71042 5.16693,2.0639 9.125398,6.45336 10.140647,11.24473 1.290153,6.08878 -0.513467,14.07982 -4.025276,17.83423 -1.47543,1.57736 -2.835034,2.38998 -5.53497,3.3082 -1.776918,0.60432 -2.560114,0.71418 -5.262601,0.73819 -1.74625,0.0155 -3.591719,-0.0313 -4.101042,-0.10409 l -0.926042,-0.13229 -0.03007,8.59896 c -0.02688,7.68641 -0.08304,8.75339 -0.529166,10.05417 l -0.499095,1.4552 -1.5875,0.0404 c -0.873125,0.0222 -1.941498,-0.038 -2.374161,-0.13366 z m 13.030088,-25.57807 c 3.988973,-1.1846 6.032079,-4.85057 5.968222,-10.70885 -0.06647,-6.09822 -2.448591,-10.61105 -6.009138,-11.38406 -0.745027,-0.16175 -2.664282,-0.25612 -4.265011,-0.2097 l -2.910417,0.0844 -0.168111,5.42396 c -0.09246,2.98318 -0.297957,6.85271 -0.456659,8.59896 -0.39577,4.35481 -0.458922,7.48932 -0.156912,7.78818 0.769164,0.76113 5.922593,1.02346 7.998026,0.40712 z m 216.753443,25.62099 c -2.79805,-0.46785 -6.22958,-2.29718 -7.99588,-4.26255 -2.39354,-2.6633 -4.36001,-8.29537 -6.16015,-17.64298 -1.87965,-9.76051 -2.71402,-20.57739 -1.88586,-24.44858 0.5713,-2.67047 0.95732,-3.20489 2.31498,-3.20489 1.34559,0 2.49385,0.65908 2.976,1.70816 0.24786,0.5393 0.4186,2.29141 0.51681,5.3033 0.0807,2.47385 0.26648,4.89037 0.41292,5.37005 0.14645,0.47967 0.39584,2.80139 0.55421,5.15937 0.77819,11.58628 2.02075,17.7612 4.38627,21.79766 1.27764,2.18012 4.11209,3.61783 7.12966,3.61636 2.77974,-0.001 3.77652,-0.91744 5.04391,-4.63553 1.37306,-4.02809 2.31927,-10.01756 2.79992,-17.72334 0.25552,-4.09654 0.23319,-5.40348 -0.15902,-9.30745 -0.25095,-2.49794 -0.6215,-5.61327 -0.82343,-6.92296 -0.3135,-2.03325 -0.3133,-2.61138 0.001,-3.95597 0.20272,-0.8661 0.57998,-1.7293 0.83836,-1.91823 1.21288,-0.88688 3.3942,-0.0306 4.18906,1.64446 0.25893,0.54565 0.63837,2.37541 0.8432,4.06613 0.20484,1.69072 0.60853,4.22802 0.89711,5.63845 1.63931,8.01226 -0.60775,27.62809 -3.87773,33.85087 -1.01951,1.94014 -3.0684,4.05553 -4.65918,4.8104 -2.12796,1.00979 -5.08237,1.4352 -7.34258,1.05727 z m -175.41875,-0.32364 c -1.47288,-0.20892 -1.81318,-0.41527 -2.15126,-1.3045 -0.50054,-1.3165 -3.35584,-10.74908 -4.45756,-14.72565 -0.60475,-2.18282 -1.27349,-4.59383 -1.48608,-5.35782 l -0.38654,-1.38906 -2.44001,0.0158 c -2.78208,0.018 -4.8468,0.30082 -5.26755,0.72157 -0.15848,0.15847 -1.21627,3.48045 -2.35066,7.38217 -3.03538,10.44017 -3.57718,11.92773 -4.78858,13.14738 -0.95164,0.95813 -1.09927,1.01725 -2.22347,0.89054 -2.597999,-0.29283 -3.149328,-2.0995 -1.70179,-5.57664 0.904378,-2.17241 2.07595,-6.14824 3.83338,-13.00892 3.26068,-12.72908 4.79033,-18.11783 7.05981,-24.87083 2.73165,-8.12821 3.57753,-9.51297 5.81096,-9.51297 2.13081,0 3.53212,2.1055 4.57042,6.86714 0.60996,2.7973 1.90081,10.78272 2.58305,15.9792 0.28626,2.1804 0.4335,2.61375 1.19964,3.53076 0.96752,1.15806 1.06216,1.7147 0.48218,2.83626 -0.36222,0.70046 -0.32238,1.00768 0.53869,4.15405 1.38554,5.06278 2.62288,9.13067 3.95336,12.99712 1.39659,4.05855 1.51289,5.4538 0.54194,6.50147 -0.35685,0.38505 -0.82337,0.7001 -1.03669,0.7001 -0.21333,0 -0.54644,0.0431 -0.74024,0.0959 -0.19381,0.0527 -0.88815,0.0199 -1.543,-0.073 z m -9.88959,-28.71888 c 0.23338,-0.60818 -0.98986,-9.52371 -1.35707,-9.89092 -0.0717,-0.0717 -0.20684,-0.054 -0.30025,0.0394 -0.29874,0.29874 -2.99632,9.77279 -2.85003,10.00949 0.0774,0.12519 1.08988,0.22762 2.25003,0.22762 1.6035,0 2.14484,-0.0925 2.25732,-0.3856 z m 43.5722,28.46079 c -0.46504,-0.29329 -1.03257,-0.81872 -1.26118,-1.16763 -0.52326,-0.7986 -1.70179,-4.98443 -4.91311,-17.45006 -0.89209,-3.46287 -0.72241,-3.37507 -3.98079,-2.05966 -1.51675,0.61232 -3.71023,1.31449 -4.8744,1.56039 l -2.11667,0.44707 0.0803,8.99031 0.0802,8.99031 -0.78253,0.46225 c -0.43039,0.25424 -1.08171,0.46225 -1.44738,0.46225 -0.72952,0 -2.94425,-0.8731 -3.17925,-1.25334 -0.15144,-0.24504 -0.49832,-3.41928 -0.9632,-8.81433 -0.50878,-5.90438 -0.83492,-21.75987 -0.64907,-31.55514 0.21357,-11.25671 -0.15533,-10.06595 3.42135,-11.0437 1.59166,-0.43511 3.13889,-0.61107 6.23794,-0.70942 3.60559,-0.11443 4.40014,-0.0604 6.35,0.43157 3.26723,0.8244 4.87606,1.70736 7.00387,3.84388 3.26395,3.27728 4.72567,7.1082 4.70213,12.32339 -0.0115,2.55208 -0.12752,3.39326 -0.71933,5.21668 -0.7177,2.2113 -1.92947,4.11971 -3.42267,5.39037 l -0.80517,0.68516 1.00202,4.6065 c 1.05999,4.87304 1.6249,7.0915 3.32899,13.07317 1.14909,4.03353 1.61327,7.33144 1.07843,7.66199 -0.175,0.10816 -0.99471,0.25169 -1.82158,0.31895 -1.1959,0.0973 -1.67631,0.0132 -2.3489,-0.41096 z m -14.63176,-25.39291 c 5.94949,-1.70539 9.54013,-4.1743 11.21201,-7.70936 0.7418,-1.56849 0.8127,-1.95257 0.80577,-4.36563 -0.006,-2.10187 -0.12897,-2.95301 -0.59797,-4.13996 -1.16761,-2.95495 -3.92928,-5.11907 -7.39473,-5.79472 -1.95583,-0.38132 -6.21915,-0.20803 -6.80299,0.27651 -0.34024,0.28238 -0.39766,1.65857 -0.39606,9.49213 0.001,5.03903 0.0778,9.96555 0.17056,10.94781 0.19636,2.07917 0.22238,2.09038 3.00341,1.29322 z m 203.27966,25.39092 c -0.46503,-0.2922 -1.04947,-0.84253 -1.29873,-1.22296 -0.43932,-0.67051 -2.81699,-9.06588 -4.58457,-16.18785 -0.47678,-1.92105 -1.01248,-3.69195 -1.19044,-3.93534 -0.29596,-0.40473 -0.55906,-0.34745 -3.08131,0.67079 -1.51678,0.61232 -3.71025,1.31439 -4.87442,1.56015 l -2.11666,0.44684 0.0982,9.03255 0.0982,9.03254 -0.86889,0.44931 c -0.97189,0.50259 -2.18686,0.42507 -3.73348,-0.23823 -0.87393,-0.37479 -0.98189,-0.53535 -1.12869,-1.67845 -0.94044,-7.32292 -1.47773,-24.20577 -1.26723,-39.81897 l 0.12742,-9.45081 1.08826,-0.4029 c 2.63859,-0.97688 4.38215,-1.26689 8.38455,-1.39463 3.60699,-0.11513 4.39939,-0.0614 6.35,0.43082 3.28861,0.8298 4.87855,1.70307 6.99381,3.84137 3.24165,3.27696 4.7212,7.14542 4.71424,12.3259 -0.003,2.60625 -0.10705,3.34634 -0.72202,5.15938 -0.82537,2.43329 -1.48109,3.51513 -3.08716,5.09326 l -1.14443,1.12451 0.31433,1.38903 c 0.17288,0.76397 0.66865,3.05749 1.10172,5.09671 0.43307,2.03922 1.45291,6.02782 2.26632,8.86354 0.81341,2.83573 1.6157,6.07971 1.78287,7.20885 0.37303,2.51946 0.14115,2.87562 -1.97388,3.03209 -1.07526,0.0795 -1.5998,-0.0202 -2.24803,-0.4275 z m -12.80345,-26.00487 c 4.83867,-1.69682 7.81084,-3.93191 9.32879,-7.01532 0.78496,-1.59447 0.84881,-1.92483 0.85166,-4.40761 0.003,-2.16074 -0.11215,-2.9752 -0.58811,-4.17807 -1.16959,-2.95585 -3.93055,-5.11916 -7.39556,-5.79472 -1.95582,-0.38132 -6.21913,-0.20803 -6.80299,0.27651 -0.34084,0.28287 -0.39762,1.70185 -0.39563,9.88901 0,5.25731 0.0787,10.19466 0.172,10.9719 l 0.16968,1.41315 1.19415,-0.17907 c 0.65677,-0.0985 2.21646,-0.53759 3.46601,-0.97578 z m 35.87398,25.99106 c -4.70958,-0.84072 -9.8438,-3.39736 -11.81132,-5.88156 -1.3675,-1.72661 -2.06607,-3.76313 -2.07129,-6.03824 -0.006,-2.82825 1.00579,-4.20132 3.11399,-4.22396 2.10749,-0.0226 3.03488,1.30901 3.36801,4.8361 0.20966,2.21962 0.97042,3.21609 3.22919,4.22977 2.14111,0.96087 7.39108,1.87391 9.61213,1.67169 3.45482,-0.31457 6.27893,-1.64125 8.73871,-4.1052 1.29672,-1.29894 1.89045,-2.13964 2.3151,-3.27822 0.79283,-2.12575 0.77121,-4.6425 -0.0551,-6.41704 -1.14228,-2.45306 -2.84062,-3.41776 -11.14438,-6.33031 -9.81866,-3.4439 -13.5491,-5.83305 -15.43357,-9.88441 -1.93521,-4.16049 -0.46302,-10.2832 3.38294,-14.06926 4.19171,-4.12643 11.53954,-5.42787 17.59762,-3.11686 4.15941,1.58671 6.52849,6.44781 3.50798,7.19802 -0.89604,0.22255 -1.23087,0.12167 -3.69885,-1.11444 -1.65547,-0.82915 -3.22948,-1.42271 -4.03654,-1.52217 -1.54937,-0.19093 -5.03097,0.46088 -6.52036,1.22071 -3.15815,1.61116 -5.49627,6.76206 -4.47463,9.85764 0.73668,2.23217 3.74554,3.89045 10.38751,5.72487 5.15692,1.42426 7.22768,2.15939 9.68706,3.43889 4.89034,2.54424 7.45688,6.84425 7.45688,12.49334 0,4.32482 -1.14408,6.99255 -4.36769,10.18448 -1.81861,1.80073 -2.61723,2.37092 -4.76361,3.40108 -4.50059,2.16009 -8.69309,2.67596 -14.01974,1.72508 z"
         id="path3745"
         inkscape:connector-curvature="0" />
      <path
         style="fill:#5c5c5c;stroke-width:0.26458335"
         d="m 71.387899,281.46639 c -1.032831,-0.22849 -1.084648,-0.56387 -1.450714,-9.38972 -0.292901,-7.06182 -0.08643,-19.25449 0.522676,-30.86595 0.141223,-2.69213 0.257382,-6.21179 0.25813,-7.82146 0.0016,-3.41095 0.150986,-3.687 2.6228,-4.84614 1.425876,-0.66866 1.652534,-0.69376 6.242102,-0.69116 4.541827,0.003 4.844597,0.0355 6.534284,0.71042 5.16693,2.0639 9.125398,6.45336 10.140647,11.24473 1.290153,6.08878 -0.513467,14.07982 -4.025276,17.83423 -1.47543,1.57736 -2.835034,2.38998 -5.53497,3.3082 -1.776918,0.60432 -2.560114,0.71418 -5.262601,0.73819 -1.74625,0.0155 -3.591719,-0.0313 -4.101042,-0.10409 l -0.926042,-0.13229 -0.03007,8.59896 c -0.02688,7.68641 -0.08304,8.75339 -0.529166,10.05417 l -0.499095,1.4552 -1.5875,0.0404 c -0.873125,0.0222 -1.941498,-0.038 -2.374161,-0.13366 z m 13.030088,-25.57807 c 3.988973,-1.1846 6.032079,-4.85057 5.968222,-10.70885 -0.06647,-6.09822 -2.448591,-10.61105 -6.009138,-11.38406 -0.745027,-0.16175 -2.664282,-0.25612 -4.265011,-0.2097 l -2.910417,0.0844 -0.168111,5.42396 c -0.09246,2.98318 -0.297957,6.85271 -0.456659,8.59896 -0.39577,4.35481 -0.458922,7.48932 -0.156912,7.78818 0.769164,0.76113 5.922593,1.02346 7.998026,0.40712 z m 216.753443,25.62099 c -2.79805,-0.46785 -6.22958,-2.29718 -7.99588,-4.26255 -2.39354,-2.6633 -4.36001,-8.29537 -6.16015,-17.64298 -1.87965,-9.76051 -2.71402,-20.57739 -1.88586,-24.44858 0.5713,-2.67047 0.95732,-3.20489 2.31498,-3.20489 1.34559,0 2.49385,0.65908 2.976,1.70816 0.24786,0.5393 0.4186,2.29141 0.51681,5.3033 0.0807,2.47385 0.26648,4.89037 0.41292,5.37005 0.14645,0.47967 0.39584,2.80139 0.55421,5.15937 0.77819,11.58628 2.02075,17.7612 4.38627,21.79766 1.27764,2.18012 4.11209,3.61783 7.12966,3.61636 2.77974,-0.001 3.77652,-0.91744 5.04391,-4.63553 1.37306,-4.02809 2.31927,-10.01756 2.79992,-17.72334 0.25552,-4.09654 0.23319,-5.40348 -0.15902,-9.30745 -0.25095,-2.49794 -0.6215,-5.61327 -0.82343,-6.92296 -0.3135,-2.03325 -0.3133,-2.61138 0.001,-3.95597 0.20272,-0.8661 0.57998,-1.7293 0.83836,-1.91823 1.21288,-0.88688 3.3942,-0.0306 4.18906,1.64446 0.25893,0.54565 0.63837,2.37541 0.8432,4.06613 0.20484,1.69072 0.60853,4.22802 0.89711,5.63845 1.63931,8.01226 -0.60775,27.62809 -3.87773,33.85087 -1.01951,1.94014 -3.0684,4.05553 -4.65918,4.8104 -2.12796,1.00979 -5.08237,1.4352 -7.34258,1.05727 z m -175.41875,-0.32364 c -1.47288,-0.20892 -1.81318,-0.41527 -2.15126,-1.3045 -0.50054,-1.3165 -3.35584,-10.74908 -4.45756,-14.72565 -0.60475,-2.18282 -1.27349,-4.59383 -1.48608,-5.35782 l -0.38654,-1.38906 -2.44001,0.0158 c -2.78208,0.018 -4.8468,0.30082 -5.26755,0.72157 -0.15848,0.15847 -1.21627,3.48045 -2.35066,7.38217 -3.03538,10.44017 -3.57718,11.92773 -4.78858,13.14738 -0.95164,0.95813 -1.09927,1.01725 -2.22347,0.89054 -2.597999,-0.29283 -3.149328,-2.0995 -1.70179,-5.57664 0.904378,-2.17241 2.07595,-6.14824 3.83338,-13.00892 3.26068,-12.72908 4.79033,-18.11783 7.05981,-24.87083 2.73165,-8.12821 3.57753,-9.51297 5.81096,-9.51297 2.13081,0 3.53212,2.1055 4.57042,6.86714 0.60996,2.7973 1.90081,10.78272 2.58305,15.9792 0.28626,2.1804 0.4335,2.61375 1.19964,3.53076 0.96752,1.15806 1.06216,1.7147 0.48218,2.83626 -0.36222,0.70046 -0.32238,1.00768 0.53869,4.15405 1.38554,5.06278 2.62288,9.13067 3.95336,12.99712 1.39659,4.05855 1.51289,5.4538 0.54194,6.50147 -0.35685,0.38505 -0.82337,0.7001 -1.03669,0.7001 -0.21333,0 -0.54644,0.0431 -0.74024,0.0959 -0.19381,0.0527 -0.88815,0.0199 -1.543,-0.073 z m -9.88959,-28.71888 c 0.23338,-0.60818 -0.98986,-9.52371 -1.35707,-9.89092 -0.0717,-0.0717 -0.20684,-0.054 -0.30025,0.0394 -0.29874,0.29874 -2.99632,9.77279 -2.85003,10.00949 0.0774,0.12519 1.08988,0.22762 2.25003,0.22762 1.6035,0 2.14484,-0.0925 2.25732,-0.3856 z m 43.5722,28.46079 c -0.46504,-0.29329 -1.03257,-0.81872 -1.26118,-1.16763 -0.52326,-0.7986 -1.70179,-4.98443 -4.91311,-17.45006 -0.89209,-3.46287 -0.72241,-3.37507 -3.98079,-2.05966 -1.51675,0.61232 -3.71023,1.31449 -4.8744,1.56039 l -2.11667,0.44707 0.0803,8.99031 0.0802,8.99031 -0.78253,0.46225 c -0.43039,0.25424 -1.08171,0.46225 -1.44738,0.46225 -0.72952,0 -2.94425,-0.8731 -3.17925,-1.25334 -0.15144,-0.24504 -0.49832,-3.41928 -0.9632,-8.81433 -0.50878,-5.90438 -0.83492,-21.75987 -0.64907,-31.55514 0.21357,-11.25671 -0.15533,-10.06595 3.42135,-11.0437 1.59166,-0.43511 3.13889,-0.61107 6.23794,-0.70942 3.60559,-0.11443 4.40014,-0.0604 6.35,0.43157 3.26723,0.8244 4.87606,1.70736 7.00387,3.84388 3.26395,3.27728 4.72567,7.1082 4.70213,12.32339 -0.0115,2.55208 -0.12752,3.39326 -0.71933,5.21668 -0.7177,2.2113 -1.92947,4.11971 -3.42267,5.39037 l -0.80517,0.68516 1.00202,4.6065 c 1.05999,4.87304 1.6249,7.0915 3.32899,13.07317 1.14909,4.03353 1.61327,7.33144 1.07843,7.66199 -0.175,0.10816 -0.99471,0.25169 -1.82158,0.31895 -1.1959,0.0973 -1.67631,0.0132 -2.3489,-0.41096 z m -14.63176,-25.39291 c 5.94949,-1.70539 9.54013,-4.1743 11.21201,-7.70936 0.7418,-1.56849 0.8127,-1.95257 0.80577,-4.36563 -0.006,-2.10187 -0.12897,-2.95301 -0.59797,-4.13996 -1.16761,-2.95495 -3.92928,-5.11907 -7.39473,-5.79472 -1.95583,-0.38132 -6.21915,-0.20803 -6.80299,0.27651 -0.34024,0.28238 -0.39766,1.65857 -0.39606,9.49213 0.001,5.03903 0.0778,9.96555 0.17056,10.94781 0.19636,2.07917 0.22238,2.09038 3.00341,1.29322 z m 203.27966,25.39092 c -0.46503,-0.2922 -1.04947,-0.84253 -1.29873,-1.22296 -0.43932,-0.67051 -2.81699,-9.06588 -4.58457,-16.18785 -0.47678,-1.92105 -1.01248,-3.69195 -1.19044,-3.93534 -0.29596,-0.40473 -0.55906,-0.34745 -3.08131,0.67079 -1.51678,0.61232 -3.71025,1.31439 -4.87442,1.56015 l -2.11666,0.44684 0.0982,9.03255 0.0982,9.03254 -0.86889,0.44931 c -0.97189,0.50259 -2.18686,0.42507 -3.73348,-0.23823 -0.87393,-0.37479 -0.98189,-0.53535 -1.12869,-1.67845 -0.94044,-7.32292 -1.47773,-24.20577 -1.26723,-39.81897 l 0.12742,-9.45081 1.08826,-0.4029 c 2.63859,-0.97688 4.38215,-1.26689 8.38455,-1.39463 3.60699,-0.11513 4.39939,-0.0614 6.35,0.43082 3.28861,0.8298 4.87855,1.70307 6.99381,3.84137 3.24165,3.27696 4.7212,7.14542 4.71424,12.3259 -0.003,2.60625 -0.10705,3.34634 -0.72202,5.15938 -0.82537,2.43329 -1.48109,3.51513 -3.08716,5.09326 l -1.14443,1.12451 0.31433,1.38903 c 0.17288,0.76397 0.66865,3.05749 1.10172,5.09671 0.43307,2.03922 1.45291,6.02782 2.26632,8.86354 0.81341,2.83573 1.6157,6.07971 1.78287,7.20885 0.37303,2.51946 0.14115,2.87562 -1.97388,3.03209 -1.07526,0.0795 -1.5998,-0.0202 -2.24803,-0.4275 z m -12.80345,-26.00487 c 4.83867,-1.69682 7.81084,-3.93191 9.32879,-7.01532 0.78496,-1.59447 0.84881,-1.92483 0.85166,-4.40761 0.003,-2.16074 -0.11215,-2.9752 -0.58811,-4.17807 -1.16959,-2.95585 -3.93055,-5.11916 -7.39556,-5.79472 -1.95582,-0.38132 -6.21913,-0.20803 -6.80299,0.27651 -0.34084,0.28287 -0.39762,1.70185 -0.39563,9.88901 0,5.25731 0.0787,10.19466 0.172,10.9719 l 0.16968,1.41315 1.19415,-0.17907 c 0.65677,-0.0985 2.21646,-0.53759 3.46601,-0.97578 z m 35.87398,25.99106 c -4.70958,-0.84072 -9.8438,-3.39736 -11.81132,-5.88156 -1.3675,-1.72661 -2.06607,-3.76313 -2.07129,-6.03824 -0.006,-2.82825 1.00579,-4.20132 3.11399,-4.22396 2.10749,-0.0226 3.03488,1.30901 3.36801,4.8361 0.20966,2.21962 0.97042,3.21609 3.22919,4.22977 2.14111,0.96087 7.39108,1.87391 9.61213,1.67169 3.45482,-0.31457 6.27893,-1.64125 8.73871,-4.1052 1.29672,-1.29894 1.89045,-2.13964 2.3151,-3.27822 0.79283,-2.12575 0.77121,-4.6425 -0.0551,-6.41704 -1.14228,-2.45306 -2.84062,-3.41776 -11.14438,-6.33031 -9.81866,-3.4439 -13.5491,-5.83305 -15.43357,-9.88441 -1.93521,-4.16049 -0.46302,-10.2832 3.38294,-14.06926 4.19171,-4.12643 11.53954,-5.42787 17.59762,-3.11686 4.15941,1.58671 6.52849,6.44781 3.50798,7.19802 -0.89604,0.22255 -1.23087,0.12167 -3.69885,-1.11444 -1.65547,-0.82915 -3.22948,-1.42271 -4.03654,-1.52217 -1.54937,-0.19093 -5.03097,0.46088 -6.52036,1.22071 -3.15815,1.61116 -5.49627,6.76206 -4.47463,9.85764 0.73668,2.23217 3.74554,3.89045 10.38751,5.72487 5.15692,1.42426 7.22768,2.15939 9.68706,3.43889 4.89034,2.54424 7.45688,6.84425 7.45688,12.49334 0,4.32482 -1.14408,6.99255 -4.36769,10.18448 -1.81861,1.80073 -2.61723,2.37092 -4.76361,3.40108 -4.50059,2.16009 -8.69309,2.67596 -14.01974,1.72508 z"
         id="path3743"
         inkscape:connector-curvature="0" />
      <path
         style="fill:#030303;stroke-width:0.26458335"
         d="m 71.608509,281.23818 c -0.808523,-0.10175 -0.835111,-0.14816 -0.998831,-1.7436 -0.718951,-7.00609 -0.672505,-22.32111 0.1149,-37.88698 0.139864,-2.7649 0.255436,-6.35048 0.256827,-7.96796 0.003,-3.51425 0.252894,-3.98587 2.58824,-4.8852 2.106044,-0.81102 8.118166,-1.03958 10.646634,-0.40474 3.02084,0.75847 5.455666,2.14689 7.667805,4.37246 3.545705,3.56722 4.728556,6.97547 4.415208,12.7219 -0.366927,6.72899 -3.022923,12.1121 -6.958383,14.1031 -3.250531,1.64448 -8.09031,2.41185 -11.345516,1.7989 -2.271997,-0.42782 -2.337426,-0.29873 -2.131946,4.20633 0.437719,9.59682 0.218407,14.29963 -0.7249,15.54427 -0.240784,0.31771 -1.673543,0.37514 -3.530038,0.14152 z M 84.62899,256.12137 c 3.60449,-1.20303 5.624745,-4.23068 6.065339,-9.08981 0.574191,-6.33253 -2.062474,-12.29719 -5.978961,-13.52562 -1.291628,-0.40512 -7.381348,-0.39638 -7.633099,0.011 -0.108524,0.17559 -0.270095,2.78221 -0.359046,5.79248 -0.08895,3.01027 -0.277663,6.7829 -0.419359,8.38363 -0.459082,5.18622 -0.549794,7.40101 -0.318232,7.76985 0.624528,0.99477 6.332833,1.42966 8.643358,0.6585 z m 215.87594,24.91719 c -0.8759,-0.19071 -2.03048,-0.52974 -2.56575,-0.75339 -1.72128,-0.71919 -4.16866,-2.55904 -5.10096,-3.83471 -3.29555,-4.50932 -6.42648,-17.78403 -7.56538,-32.07625 -0.38202,-4.7941 -0.17437,-8.69996 0.56803,-10.6842 0.51955,-1.38861 0.6041,-1.47512 1.44172,-1.47512 1.27645,0 2.14965,0.39895 2.69503,1.2313 0.39211,0.59844 0.5053,1.54063 0.64518,5.37069 0.0933,2.55471 0.30158,5.1207 0.46284,5.7022 0.16126,0.5815 0.47443,3.61502 0.69593,6.74115 1.19988,16.93449 3.62697,22.64921 10.13152,23.85521 3.03928,0.5635 5.17199,-0.50723 6.28772,-3.15675 1.5624,-3.71026 2.82964,-11.01428 3.33788,-19.23859 0.29104,-4.70976 0.27122,-5.38616 -0.31397,-10.71563 -0.34355,-3.12869 -0.67337,-6.44907 -0.73294,-7.3786 -0.13322,-2.07875 0.33447,-3.92005 1.05366,-4.14831 0.93451,-0.2966 2.26855,0.13747 2.96454,0.96461 0.79951,0.95016 1.04029,1.85929 1.46413,5.52815 0.17606,1.52408 0.54703,3.8458 0.82436,5.15938 0.57357,2.71663 0.64703,6.49362 0.24655,12.67686 -0.79979,12.34863 -2.85752,20.19287 -6.16489,23.50117 -1.51216,1.51258 -2.76028,2.19101 -5.00402,2.72 -1.99405,0.47013 -3.25016,0.47267 -5.37118,0.0108 z m -140.80658,-0.30547 c -0.46587,-0.22972 -1.03181,-0.69967 -1.25764,-1.04433 -0.41692,-0.6363 -2.37408,-7.53207 -4.38766,-15.45928 -1.17593,-4.62951 -1.41402,-5.29167 -1.90266,-5.29167 -0.16862,0 -1.55062,0.48639 -3.07112,1.08087 -1.52049,0.59449 -3.72981,1.28183 -4.90962,1.52744 l -2.14509,0.44655 v 9.11277 9.11275 l -0.66146,0.33612 c -0.3638,0.18486 -0.86741,0.33787 -1.11912,0.34002 -0.47047,0.004 -2.57851,-0.74484 -2.89411,-1.02808 -0.26355,-0.23653 -0.98672,-8.07337 -1.27907,-13.86115 -0.14122,-2.7956 -0.25837,-12.08079 -0.26035,-20.63374 l -0.004,-15.55082 0.7276,-0.27682 c 3.10191,-1.18012 4.68377,-1.42197 9.32657,-1.42593 4.05759,-0.003 4.85961,0.0687 6.48517,0.58374 4.03161,1.27726 6.78359,3.62583 8.6123,7.34982 1.43188,2.9159 1.92472,5.0211 1.92016,8.20208 -0.006,4.36429 -1.11828,7.48585 -3.60245,10.11249 l -1.34769,1.425 0.30048,1.37501 c 1.95531,8.94765 2.54441,11.39352 3.45859,14.35953 1.15012,3.73158 1.90052,7.0126 1.90052,8.30983 0,0.62759 -0.15378,0.86992 -0.67868,1.06948 -0.98392,0.37409 -2.2405,0.3069 -3.21107,-0.17168 z m -14.75806,-24.95338 c 5.97475,-1.65729 10.11749,-4.60329 11.55778,-8.21899 0.46248,-1.16101 0.58251,-2.01685 0.5937,-4.23333 0.013,-2.57838 -0.0451,-2.90177 -0.80873,-4.49792 -2.01767,-4.21747 -5.52328,-6.00343 -11.31552,-5.76478 -2.45305,0.10107 -2.94083,0.19481 -3.26125,0.62671 -0.31473,0.42424 -0.36311,2.2723 -0.29382,11.22349 0.0456,5.8936 0.17927,10.86445 0.297,11.04636 0.2969,0.45874 1.08151,0.41465 3.23084,-0.18154 z m 203.44667,25.02667 c -0.44349,-0.20171 -1.00126,-0.66421 -1.23947,-1.02779 -0.49178,-0.75052 -2.17371,-6.56995 -4.14993,-14.35849 -1.47482,-5.8124 -1.70236,-6.48299 -2.19911,-6.48082 -0.18503,7.9e-4 -1.58655,0.48851 -3.11452,1.08379 -1.52797,0.59527 -3.73063,1.28196 -4.89479,1.52598 l -2.11667,0.44366 v 9.11257 9.11257 l -0.66146,0.34934 c -0.75043,0.39633 -1.80591,0.2972 -3.21532,-0.30199 -0.87519,-0.37207 -0.98151,-0.53009 -1.12692,-1.67484 -0.93342,-7.34825 -1.48276,-25.27913 -1.22998,-40.14675 l 0.14827,-8.72023 1.94076,-0.60742 c 3.01242,-0.94284 5.37324,-1.21095 9.30403,-1.05665 7.06215,0.27723 11.15113,2.64966 13.77455,7.99204 1.4143,2.88011 1.91159,5.01058 1.91444,8.20208 0.004,4.32305 -1.03634,7.28828 -3.50393,9.98821 -0.73543,0.80469 -1.33715,1.64521 -1.33715,1.86781 0,0.22261 0.28385,1.63467 0.6308,3.13791 0.34692,1.50324 0.84365,3.74519 1.10386,4.98212 0.2602,1.23692 1.10268,4.43106 1.87222,7.09808 1.52673,5.29131 2.21205,8.88464 1.77739,9.3193 -0.45603,0.45605 -2.80138,0.55779 -3.67707,0.15952 z M 333.7205,255.75111 c 2.80993,-0.76793 7.04985,-2.89723 8.6705,-4.35435 0.94245,-0.84732 1.68077,-1.86057 2.36596,-3.24697 0.96162,-1.94575 0.99597,-2.11167 0.99536,-4.80791 0,-2.52121 -0.0752,-2.95415 -0.76716,-4.45473 -0.97779,-2.12025 -3.23104,-4.26701 -5.37385,-5.1199 -1.3286,-0.5288 -2.00509,-0.61029 -5.12786,-0.61774 -2.72203,-0.006 -3.70708,0.0825 -4.04828,0.36567 -0.41392,0.3435 -0.4444,1.26712 -0.3714,11.24479 0.0437,5.9788 0.17587,11.01937 0.29358,11.20128 0.29964,0.46295 1.07831,0.41429 3.36315,-0.21014 z m 37.6978,24.88652 c -8.42967,-1.53529 -13.47922,-5.56637 -13.83522,-11.04471 -0.19449,-2.99316 0.7905,-4.56969 2.85502,-4.56969 1.96162,0 2.6753,1.13445 3.04114,4.83406 0.13325,1.34756 0.33864,1.98331 0.8291,2.56617 2.23451,2.65557 11.08721,4.19053 15.57663,2.70082 5.13728,-1.70468 8.57692,-5.75571 8.59269,-10.12007 0.0161,-4.48032 -2.11037,-6.56151 -9.12186,-8.92732 -10.1473,-3.42389 -12.99294,-4.79713 -15.91743,-7.68139 -1.90384,-1.87764 -2.79689,-3.80729 -2.9408,-6.35434 -0.31345,-5.5472 3.18778,-11.13105 8.31885,-13.26711 4.96734,-2.06791 11.95935,-1.54971 15.48897,1.14795 1.83957,1.40596 2.89026,4.14143 1.90487,4.95925 -0.77766,0.6454 -2.08341,0.38162 -4.75123,-0.9598 -2.48997,-1.252 -2.69854,-1.30918 -4.73522,-1.29825 -3.28031,0.0176 -5.67703,0.85449 -7.40799,2.58672 -3.37722,3.37968 -4.0622,8.6733 -1.41094,10.90417 1.55821,1.31115 5.87491,3.07833 9.99572,4.09207 2.69599,0.66322 7.12869,2.23184 8.86208,3.13606 4.63664,2.41871 7.2775,6.84952 7.2775,12.21017 0,4.00948 -1.27484,7.08903 -4.12094,9.95458 -1.51008,1.5204 -2.40522,2.14905 -4.63021,3.25171 -4.645,2.30197 -8.60372,2.83823 -13.87073,1.87895 z m -246.78127,0.0799 c -0.31928,-0.0839 -0.80461,-1.19468 -1.63389,-3.73962 -1.34637,-4.13183 -3.82535,-12.59234 -4.66566,-15.92344 -0.31203,-1.23693 -0.70397,-2.41362 -0.87098,-2.61486 -0.24095,-0.29035 -1.01843,-0.33863 -3.76524,-0.23382 -1.90387,0.0727 -3.71642,0.26847 -4.02788,0.43516 -0.31146,0.16669 -0.67838,0.68863 -0.81538,1.15986 -0.13699,0.47123 -0.98039,3.41662 -1.8742,6.54532 -2.39912,8.39783 -3.67961,12.11652 -4.48103,13.01338 -0.93207,1.04307 -2.46967,1.2517 -3.67144,0.49816 -0.742542,-0.46559 -0.859895,-0.68715 -0.859895,-1.62347 0,-0.59636 0.341272,-1.93756 0.758385,-2.98045 0.940724,-2.35205 1.79253,-5.16937 3.21315,-10.62741 0.60602,-2.32833 1.64401,-6.31693 2.30665,-8.86354 4.16851,-16.02028 7.83705,-26.64567 9.50858,-27.54025 1.05687,-0.56562 2.42226,-0.38525 3.2761,0.43279 1.01769,0.975 1.4964,2.05747 2.25439,5.0977 0.59555,2.38872 2.49358,13.94633 2.91313,17.73887 0.15812,1.42934 0.31969,1.81583 1.07473,2.57087 0.98831,0.98831 1.07606,1.46663 0.47908,2.61145 -0.37702,0.723 -0.35625,0.97081 0.28824,3.43958 1.00106,3.83463 2.54471,8.9476 4.07827,13.50836 1.52463,4.53416 1.64207,5.66982 0.68528,6.62661 -0.54997,0.54997 -0.88429,0.64473 -2.18281,0.61874 -0.84336,-0.0169 -1.73777,-0.0844 -1.98758,-0.14999 z M 116.045,251.10605 c -0.0611,-2.27988 -1.05894,-8.59695 -1.41397,-8.95198 -0.16418,-0.16418 -0.35682,-0.15404 -0.53927,0.0284 -0.40471,0.40471 -3.20273,10.16583 -3.03747,10.59648 0.10483,0.2732 0.71809,0.33996 2.58924,0.28186 l 2.45186,-0.0761 z"
         id="path3741"
         inkscape:connector-curvature="0" />
    </g>
  </g>
</svg>
