<?xml version="1.0" encoding="UTF-8" standalone="no"?>
<!-- Created with Inkscape (http://www.inkscape.org/) -->

<svg
   xmlns:dc="http://purl.org/dc/elements/1.1/"
   xmlns:cc="http://creativecommons.org/ns#"
   xmlns:rdf="http://www.w3.org/1999/02/22-rdf-syntax-ns#"
   xmlns:svg="http://www.w3.org/2000/svg"
   xmlns="http://www.w3.org/2000/svg"
   xmlns:sodipodi="http://sodipodi.sourceforge.net/DTD/sodipodi-0.dtd"
   xmlns:inkscape="http://www.inkscape.org/namespaces/inkscape"
   version="1.1"
   id="svg815"
   width="72.32"
   height="77.120003"
   viewBox="0 0 72.32 77.120003"
   sodipodi:docname="logo.svg"
   inkscape:version="0.92.3 (2405546, 2018-03-11)">
  <metadata
     id="metadata821">
    <rdf:RDF>
      <cc:Work
         rdf:about="">
        <dc:format>image/svg+xml</dc:format>
        <dc:type
           rdf:resource="http://purl.org/dc/dcmitype/StillImage" />
        <dc:title></dc:title>
      </cc:Work>
    </rdf:RDF>
  </metadata>
  <defs
     id="defs819" />
  <sodipodi:namedview
     pagecolor="#ffffff"
     bordercolor="#666666"
     borderopacity="1"
     objecttolerance="10"
     gridtolerance="10"
     guidetolerance="10"
     inkscape:pageopacity="0"
     inkscape:pageshadow="2"
     inkscape:window-width="1920"
     inkscape:window-height="1001"
     id="namedview817"
     showgrid="false"
     inkscape:zoom="9.6991698"
     inkscape:cx="36.16"
     inkscape:cy="46.80813"
     inkscape:window-x="-9"
     inkscape:window-y="-9"
     inkscape:window-maximized="1"
     inkscape:current-layer="svg815" />
  <g
     id="g825"
     transform="translate(0.10310159,0.20620322)">
    <path
       style="fill:#d0d0d0;fill-opacity:1;stroke-width:0.31999999"
       d="M 44.943866,76.510032 C 44.582992,76.354848 43.916246,75.744605 43.462211,75.153939 43.008173,74.563273 42.25912,73.676246 41.797648,73.182764 41.336176,72.689283 40.739923,71.86264 40.472643,71.345779 40.205363,70.828915 39.593677,70.154086 39.113341,69.846153 38.633005,69.53822 37.618499,68.818031 36.85889,68.245734 l -1.381111,-1.040541 -1.189888,0.684813 c -0.654438,0.376646 -1.544937,1.179392 -1.978889,1.783878 -1.970924,2.745469 -3.929936,4.921879 -4.865899,5.405885 -0.845555,0.437252 -1.691179,0.498448 -4.945627,0.357898 -3.710772,-0.160256 -4.009211,-0.22384 -5.451577,-1.161472 -0.839244,-0.545565 -1.862132,-1.280893 -2.273083,-1.634064 -0.410952,-0.353171 -1.1743,-0.642128 -1.696329,-0.642128 -0.784081,0 -1.031352,-0.196752 -1.421855,-1.131357 -0.271486,-0.649757 -0.81317,-1.2608 -1.272503,-1.435437 C 9.9422435,69.265964 8.9023114,68.510425 8.0711686,67.754233 6.3230301,66.163737 3.6423411,64.000002 3.4199866,64.000002 c -0.083767,0 -0.6085694,-0.426217 -1.166228,-0.947148 -0.8499241,-0.793946 -0.9977365,-1.143325 -0.9138417,-2.16 L 1.44,59.680002 3.84,59.143151 c 3.3142861,-0.741363 6.189937,-1.71296 6.332091,-2.139424 C 10.370908,56.407279 8.4055203,53.341071 7.1699021,52.320002 6.5309584,51.792002 5.7723443,51.135352 5.4840931,50.86078 5.1958419,50.586207 4.204,49.817941 3.28,49.153525 1.4427092,47.832392 1.2029865,47.105682 2.157663,45.751205 2.9636818,44.60764 2.8968148,40.560046 2.0177171,37.280001 0.70563357,32.38442 0.57771664,31.834506 0.52899859,30.880001 0.4555775,29.441505 1.43482,29.501374 3.7843174,31.079022 c 1.9057165,1.279658 2.123801,1.346656 4.4695773,1.373139 1.9632253,0.02218 2.7698313,-0.121785 3.9555653,-0.705921 1.064599,-0.524461 1.749186,-0.669595 2.4,-0.508808 2.043438,0.504844 5.050469,3.134198 5.995603,5.242569 0.276139,0.616 0.635024,1.336 0.797522,1.6 0.162499,0.264 0.733813,1.416001 1.269587,2.560001 1.345122,2.87214 1.815008,3.46824 2.33195,2.958336 0.324107,-0.319696 0.328503,-0.662544 0.02154,-1.68 -0.212116,-0.703085 -0.546165,-1.890336 -0.742331,-2.638336 -0.196166,-0.748001 -0.657535,-2.296001 -1.025265,-3.440001 -0.898023,-2.793734 -0.997378,-9.866401 -0.159582,-11.36 0.88421,-1.576346 2.161125,-5.774238 2.35801,-7.752022 0.28261,-2.838914 0.348646,-3.011186 1.854064,-4.836744 C 28.08557,10.951414 29.15687,9.2954138 29.691228,8.2112349 30.977206,5.6020697 32.64,1.7305497 32.64,1.3455461 c 0,-0.62114716 0.907011,-1.05103885 1.763824,-0.8359921 0.554595,0.13919428 1.016365,0.5747986 1.286688,1.2137791 0.231904,0.5481668 1.65641,2.4666187 3.165565,4.2632265 C 40.365235,7.783167 41.6,9.3166967 41.6,9.3944029 c 0,0.077707 0.504,0.8902251 1.12,1.8055971 0.655578,0.974185 1.12,2.058765 1.12,2.615571 0,0.711944 0.332883,1.24726 1.323181,2.127844 1.926531,1.713089 2.269046,2.731025 1.86872,5.553703 -0.430055,3.032266 -0.114647,5.900617 0.712547,6.480007 0.340518,0.238509 0.907779,0.972215 1.260576,1.630459 l 0.64145,1.196806 -0.708516,1.957806 c -0.389683,1.076794 -0.88718,2.250858 -1.105555,2.609034 -0.218371,0.358179 -0.773993,1.593475 -1.23472,2.745107 -1.223769,3.058945 -1.107472,5.083665 0.292,5.083665 1.362768,0 3.561568,-2.410576 5.291063,-5.800663 0.355836,-0.697498 1.171465,-1.848723 1.812508,-2.558285 1.158455,-1.282269 1.176349,-1.288867 2.946141,-1.086377 1.344099,0.153782 2.290506,0.04314 3.860605,-0.451348 1.144,-0.360288 2.503715,-0.656928 3.021587,-0.6592 0.517875,-0.0022 2.288205,-0.244656 3.934064,-0.538637 2.763981,-0.493694 3.032237,-0.494747 3.513194,-0.01379 0.442659,0.44266 0.464537,0.708247 0.145939,1.771636 -0.206131,0.688001 -0.374784,2.2993 -0.374784,3.580663 0,2.12754 -0.09715,2.476109 -1.119235,4.015956 -0.615581,0.927408 -1.272179,1.737181 -1.459111,1.799491 -0.186928,0.06231 -0.423136,1.214237 -0.524902,2.559837 -0.16792,2.220278 -0.298157,2.589632 -1.408208,3.993632 -0.672749,0.850896 -1.611907,2.195082 -2.087024,2.987082 -0.475117,0.792 -1.380826,1.992442 -2.012685,2.667648 -1.142582,1.220966 -3.738704,2.772352 -4.639312,2.772352 -0.810947,0 -0.897619,0.612483 -0.210317,1.486243 0.363437,0.462039 0.660794,1.03082 0.660794,1.263962 0,0.649248 1.622822,2.008963 2.877578,2.41104 2.567667,0.822784 2.924214,2.183738 0.981187,3.7452 -0.69368,0.557456 -1.385703,1.013555 -1.537831,1.013555 -0.518563,0 -2.371814,1.544545 -3.13599,2.613607 -1.255117,1.755878 -1.40544,1.866394 -2.538675,1.866394 -0.598675,0 -1.186346,0.15832 -1.305936,0.35182 -0.119591,0.193501 -1.080858,0.760154 -2.136151,1.259229 -1.055292,0.499072 -2.247788,1.216557 -2.649993,1.59441 -0.805447,0.756675 -2.825386,1.105318 -3.850323,0.66457 z M 25.72976,69.600003 c 0.474768,-0.44 0.968447,-0.8 1.097065,-0.8 0.128619,0 0.877199,-0.620308 1.663513,-1.378464 1.711552,-1.65026 4.606056,-3.564772 5.841652,-3.863844 1.885248,-0.45632 3.407242,0.335955 6.138263,3.195287 1.41336,1.47976 2.677747,2.689696 2.809747,2.688749 0.596557,-0.0043 0.157642,-1.008884 -0.56,-1.281728 -0.449933,-0.171063 -0.8,-0.559674 -0.8,-0.88808 0,-0.321156 -0.16312,-0.74704 -0.36249,-0.94641 -0.199369,-0.19937 -0.275219,-0.589923 -0.16855,-0.867894 0.164474,-0.428608 0.829968,-0.497719 4.379821,-0.454839 2.782339,0.03361 4.308822,-0.07238 4.552547,-0.316105 0.474458,-0.474458 0.540246,-0.465514 -4.577274,-0.622413 -1.670297,-0.05121 -2.368899,-0.241245 -3.44,-0.93576 -1.546473,-1.002752 -1.732294,-1.893892 -0.675196,-3.238026 1.204947,-1.532131 4.585248,-5.247994 5.841446,-6.421325 2.819738,-2.633735 5.969696,-5.76264 5.969696,-5.929802 0,-0.471658 -0.757254,-0.06858 -1.917469,1.020653 -0.703011,0.66 -1.710598,1.552746 -2.239078,1.983882 -0.528483,0.431136 -1.043159,1.043136 -1.143728,1.36 -0.10057,0.316864 -0.323197,0.576118 -0.49473,0.576118 -0.171529,0 -1.277827,0.925091 -2.458435,2.055757 -5.138038,4.920691 -8.015536,6.336362 -9.201203,4.526806 -0.812883,-1.24062 -1.110263,-6.124147 -0.782157,-12.844579 0.335088,-6.863444 0.345978,-13.593428 0.02429,-15.017985 -0.192742,-0.853557 -0.241456,-0.764855 -0.43936,0.8 -0.122419,0.968 -0.225674,3.056 -0.229456,4.64 -0.0038,1.584 -0.224307,5.112001 -0.490054,7.840001 -0.265748,2.728 -0.620496,6.849664 -0.788333,9.159254 -0.167837,2.309591 -0.437287,4.541591 -0.598778,4.960001 -0.356579,0.923865 -1.795143,2.312957 -2.231792,2.155037 -0.357896,-0.129444 -4.5542,-4.184529 -5.884574,-5.686557 C 23.701522,54.09269 23.04,53.794869 23.04,54.381116 c 0,0.165613 0.149835,0.393718 0.332966,0.506899 0.515638,0.318682 3.126093,4.342135 3.835753,5.911987 0.522687,1.156244 0.539499,3.339437 0.03044,3.952817 -0.307055,0.36998 -0.950658,0.527184 -2.158339,0.527184 -0.94645,0 -1.720818,0.144 -1.720818,0.32 0,0.176 0.560047,0.32 1.244549,0.32 0.7641,0 1.536186,0.241526 2,0.625641 L 27.36,67.171286 26.120764,68.288838 c -0.68158,0.614653 -1.651929,1.208192 -2.156331,1.318976 -1.338619,0.29401 -1.458132,0.792189 -0.190046,0.792189 0.721445,0 1.385161,-0.271546 1.955373,-0.8 z M 22.516426,52.961839 c -0.100919,-0.262989 -0.314748,-0.397037 -0.475177,-0.297888 -0.335547,0.207379 -0.06618,0.776051 0.367593,0.776051 0.16009,0 0.208502,-0.215174 0.107584,-0.478163 z M 21.12,51.378888 c 0,-0.07761 -0.144,-0.230112 -0.32,-0.338886 -0.176,-0.108774 -0.32,-0.04527 -0.32,0.141114 0,0.186387 0.144,0.338886 0.32,0.338886 0.176,0 0.32,-0.0635 0.32,-0.141114 z M 18.14303,48.077576 C 17.668364,47.602911 17.28,47.391275 17.28,47.607275 c 0,0.510996 1.274199,1.785194 1.529697,1.529697 0.108,-0.108 -0.192,-0.584727 -0.666667,-1.059396 z m -1.629697,-1.910909 c -0.325285,-0.325283 -0.593679,0.164445 -0.326789,0.596282 0.201611,0.326214 0.276984,0.326467 0.385376,0.0013 0.07411,-0.222333 0.04775,-0.491242 -0.05859,-0.597574 z M 35.287792,26.320001 c 0.0695,-1.452 0.0062,-2.64 -0.14071,-2.64 -0.146896,0 -0.250378,1.404 -0.229962,3.12 0.04234,3.558285 0.186291,3.371868 0.370672,-0.48 z"
       id="path841"
       inkscape:connector-curvature="0" />
    <path
       style="fill:#b9b9b9;fill-opacity:1;stroke-width:0.31999999"
       d="m 44.215386,75.580969 c -1.837636,-1.931401 -3.138071,-3.471536 -3.899936,-4.618781 -0.437498,-0.658796 -0.88464,-1.198796 -0.993648,-1.2 -0.109012,-0.0013 -0.921626,-0.578185 -1.805812,-1.282185 -0.884188,-0.704 -1.887612,-1.28 -2.229833,-1.28 -0.702029,0 -2.809344,2.032899 -5.307423,5.12 -0.925723,1.144 -2.181643,2.331776 -2.790934,2.639504 -1.947787,0.983744 -8.1028,0.525267 -9.407862,-0.700775 -0.385653,-0.3623 -0.852105,-0.658729 -1.036561,-0.658729 -0.184456,0 -0.878975,-0.432 -1.543377,-0.96 -0.664402,-0.528 -1.519402,-0.96 -1.900002,-0.96 -0.840815,0 -1.459998,-0.568167 -1.459998,-1.339706 0,-0.340787 -0.420069,-0.750659 -1.04,-1.014752 C 10.228,69.081868 8.536,67.846614 7.04,66.580537 5.544,65.314457 4.104,64.191942 3.84,64.086057 2.8846628,63.702892 1.2867367,61.903657 1.2834074,61.207378 1.2790752,60.301337 2.2510642,59.6939 4.48,59.209698 c 0.968,-0.210281 2.66,-0.6932 3.76,-1.073152 1.7392493,-0.600755 1.999821,-0.795494 1.99863,-1.493683 -0.0019,-1.08271 -1.4453628,-3.182397 -3.1860345,-4.634298 -0.7850726,-0.654832 -1.5770726,-1.364163 -1.76,-1.576291 C 5.1096678,50.220146 4.3512448,49.64077 3.6072109,49.14477 1.5495641,47.773074 1.5030836,47.657231 2.2992305,45.884943 3.1499856,43.99109 3.1915616,40.759771 2.3996532,38.080001 c -0.5032623,-1.703008 -1.240562,-4.820198 -1.64622795,-6.96 -0.26370931,-1.39101 0.42429345,-1.384211 2.76026405,0.02728 0.971471,0.587002 2.5760835,1.253629 3.5658057,1.481392 1.6477786,0.3792 1.9715319,0.354909 3.84,-0.288102 3.234004,-1.112949 3.418695,-1.124779 5.028622,-0.322109 1.986027,0.990186 3.606283,2.783981 4.853523,5.373364 0.563799,1.170499 1.15697,2.344179 1.318158,2.608179 0.161188,0.264 0.519976,0.984 0.797308,1.6 0.535569,1.18959 1.659024,2.56 2.098674,2.56 0.430569,0 0.301102,-2.450838 -0.198282,-3.753523 -0.616405,-1.607946 -2.092805,-7.79225 -2.321739,-9.725242 -0.233802,-1.974093 0.270076,-4.495306 1.626542,-8.138595 0.593309,-1.593548 1.246974,-3.969548 1.452589,-5.280001 0.571107,-3.639845 0.5713,-3.640369 1.957833,-5.303194 1.245411,-1.493583 4.773955,-8.3206526 5.211955,-10.0841503 0.115389,-0.4645869 0.428292,-0.92854742 0.695338,-1.0310232 0.811786,-0.31151166 1.982278,0.3375846 2.331398,1.2928763 0.181476,0.4965678 1.361216,2.1268507 2.621645,3.6228507 3.576621,4.2450755 5.380423,7.2141825 5.432896,8.9426865 0.0077,0.254477 0.698045,1.064577 1.534045,1.800222 l 1.52,1.337536 v 4.858017 c 0,4.58345 0.03874,4.888636 0.685453,5.399778 0.376998,0.297969 0.925491,1.019034 1.218873,1.602367 0.496148,0.986496 0.496666,1.176556 0.0074,2.719999 -0.289305,0.912669 -1.096393,2.857997 -1.793532,4.322951 -1.119972,2.353498 -1.256503,2.893632 -1.172864,4.64 0.08833,1.844355 0.148521,1.982733 0.900579,2.070551 0.998835,0.116633 3.246582,-1.71576 3.828755,-3.121255 0.221635,-0.535069 0.525062,-0.972851 0.674285,-0.972851 0.149222,0 0.653104,-0.779722 1.119741,-1.732714 0.466633,-0.952989 1.3887,-2.260275 2.049036,-2.905075 1.161946,-1.134611 1.24057,-1.160554 2.441437,-0.805613 1.011408,0.298947 1.595815,0.267293 3.160826,-0.171194 2.059411,-0.577008 3.218569,-0.792038 7.609488,-1.411603 3.651366,-0.51521 3.74559,-0.440797 3.550237,2.803795 -0.279472,4.641677 -0.387018,5.037521 -1.896871,6.981914 -1.295353,1.66816 -1.422854,1.992551 -1.422854,3.620084 0,1.522432 -0.165363,2.024617 -1.114323,3.384067 -0.612877,0.877987 -1.512877,2.228467 -2,3.001069 -2.010839,3.189273 -5.12114,5.79527 -6.916765,5.79527 -0.624045,0 -1.020887,0.76241 -0.707895,1.36 1.487373,2.839805 1.617287,2.974013 4.728746,4.885037 1.504355,0.923959 1.494131,1.739696 -0.03723,2.970327 -0.70126,0.563552 -1.427049,1.024637 -1.612864,1.024637 -0.519001,0 -2.88607,2.245453 -3.38582,3.211862 -0.331828,0.64168 -0.754605,0.901523 -1.665648,1.023722 -0.67152,0.09007 -1.775146,0.539853 -2.4525,0.999517 -0.677356,0.459667 -1.730224,0.973446 -2.339708,1.141731 -0.609485,0.168288 -1.449546,0.674346 -1.8668,1.124573 -1.100196,1.187129 -3.083482,1.149625 -4.253824,-0.08044 z M 24.517384,70.435168 c 1.094174,-0.313805 1.686487,-0.743034 4.133157,-2.995165 0.908214,-0.836 1.741174,-1.52 1.851023,-1.52 0.109848,0 0.817532,-0.435472 1.572628,-0.967712 3.011824,-2.122929 5.055424,-1.577732 8.558755,2.283337 2.112605,2.328327 3.565459,3.279927 3.08129,2.018202 C 43.607405,68.975436 43.52,68.63223 43.52,68.491151 c 0,-0.141078 -0.252,-0.322771 -0.56,-0.403763 -0.572051,-0.150429 -1.574531,-2.37952 -1.226602,-2.727449 0.213271,-0.213271 1.036074,-0.227111 4.883968,-0.08215 2.585693,0.09742 4.769568,-0.396438 4.39968,-0.994928 C 50.920896,64.127287 49.420102,64 47.681946,64 c -3.508973,0 -4.151984,-0.16943 -5.727408,-1.509132 -0.976458,-0.830359 -1.04616,-0.996487 -0.694093,-1.654327 0.476829,-0.890963 4.273555,-5.227264 6.163222,-7.039114 3.40953,-3.26912 6.239034,-6.058243 6.952112,-6.852899 0.639728,-0.712912 0.681818,-0.864528 0.24,-0.864528 -0.294678,0 -0.535779,0.216 -0.535779,0.48 0,0.264 -0.27328,0.48 -0.607293,0.48 -0.657654,0 -1.756141,0.93128 -6.432707,5.453568 -4.053229,3.919511 -5.915174,5.469245 -7.870618,6.550858 -3.886723,2.149866 -4.091254,0.791469 -3.52288,-23.397367 0.276048,-11.748041 0.208567,-13.88706 -0.438099,-13.88706 -0.495094,0 -0.618288,1.675453 -0.799987,10.88 -0.162915,8.253011 -0.351331,11.15622 -1.131283,17.431609 C 33.10271,51.474991 32.96,53.563941 32.96,54.713721 c 0,1.149779 -0.14056,2.580614 -0.312358,3.179635 -0.332964,1.160979 -1.480996,2.586646 -2.082921,2.586646 -0.509041,0 -6.396257,-5.884381 -10.00482,-10 -1.658899,-1.892 -3.137814,-3.44 -3.286477,-3.44 -0.148663,0 -0.361704,-0.288 -0.473424,-0.64 -0.11172,-0.352 -0.422906,-0.64 -0.691522,-0.64 -0.268617,0 -0.563708,-0.288 -0.655758,-0.64 C 15.306912,44.562434 14.4,44.169266 14.4,44.663624 c 0,0.331443 3.338529,4.096627 5.369868,6.056122 1.094573,1.055859 1.990132,2.04768 1.990132,2.204051 0,0.269258 1.874103,2.762116 3.44,4.575751 0.396,0.458649 0.72,1.009462 0.72,1.224025 0,0.214567 0.294134,0.764052 0.653632,1.221079 0.826121,1.05024 1.165202,3.681485 0.572983,4.446295 -0.33872,0.43743 -0.992492,0.561017 -3.173194,0.599846 -1.603502,0.02854 -3.041954,-0.109174 -3.456305,-0.330928 -0.974424,-0.521495 -5.329782,-0.878128 -5.042241,-0.412877 0.118367,0.191523 1.040943,0.440263 2.050169,0.552755 1.009226,0.112496 2.554956,0.403236 3.434956,0.646093 0.88,0.242855 2.366752,0.500787 3.303894,0.573184 1.006676,0.07777 1.920193,0.347927 2.232496,0.660231 0.491471,0.491472 0.462762,0.590144 -0.4087,1.404678 -0.515518,0.48184 -1.508247,1.092074 -2.206066,1.356074 -2.257672,0.854125 -1.733478,1.674656 0.63576,0.995165 z"
       id="path839"
       inkscape:connector-curvature="0" />
    <path
       style="fill:#a3a3a3;fill-opacity:1;stroke-width:0.31999999"
       d="M 45.227021,75.983923 C 44.314723,75.584617 41.589002,72.668595 40.575277,71.007411 40.27568,70.51646 39.630058,69.854953 39.14056,69.537388 c -0.489498,-0.317561 -1.127277,-0.793385 -1.417286,-1.057385 -1.90568,-1.734772 -2.710893,-1.962224 -3.535821,-0.998778 -0.28313,0.330672 -0.643303,0.654672 -0.800381,0.72 -0.157075,0.06533 -1.320874,1.364746 -2.586214,2.887591 -3.588176,4.318403 -3.391778,4.217699 -7.838698,4.019337 -3.452356,-0.153996 -3.838053,-0.235116 -4.744552,-0.997888 -0.542692,-0.456643 -1.192616,-0.830262 -1.444276,-0.830262 -0.251661,0 -0.770581,-0.36 -1.153156,-0.8 -0.382575,-0.44 -0.967089,-0.8 -1.298921,-0.8 -0.935914,0 -1.843296,-0.603706 -2.160207,-1.437242 C 11.983106,69.774736 11.284575,69.226063 10.336366,68.809532 9.4913648,68.438335 8.584,67.878399 8.32,67.565225 7.6080554,66.720671 4.2955843,64.001468 3.9654998,63.990623 3.271256,63.967814 1.6,62.044377 1.6,61.268185 c 0,-0.938464 1.0777693,-1.516202 3.9154934,-2.098906 0.9264788,-0.190243 2.2699709,-0.621158 2.9855383,-0.957587 0.7155677,-0.336429 1.4715677,-0.61169 1.6800003,-0.61169 0.512592,0 0.476637,-0.7468 -0.102712,-2.133379 C 9.5361053,54.168921 7.1637466,51.742482 4.0272141,49.277576 1.9564982,47.650264 1.6247673,47.148997 2.218181,46.544002 c 0.1639995,-0.1672 0.4899713,-1.168 0.7243817,-2.224 C 3.3924701,42.293205 3.2604016,40.737675 2.3584311,37.440001 1.8501722,35.581768 1.0052859,31.500002 0.97683398,30.765311 0.95381398,30.170883 2.2763688,30.524736 3.7858944,31.516881 4.4316525,31.941309 5.608,32.449572 6.4,32.646353 c 0.792,0.196778 1.7648275,0.436797 2.1618387,0.53337 0.3970115,0.09658 0.9010115,0.02752 1.12,-0.153431 0.2189888,-0.18096 0.9397513,-0.43023 1.6016953,-0.553932 0.661944,-0.1237 1.282443,-0.352586 1.378886,-0.508635 0.291706,-0.471991 1.920345,-0.319805 3.409721,0.318615 1.490021,0.638698 3.822254,3.122141 4.242593,4.517661 0.132531,0.44 0.422901,1.016 0.645266,1.28 0.222365,0.264 0.513141,0.840001 0.64617,1.280001 0.133028,0.44 0.51006,1.14342 0.83785,1.563155 0.327789,0.419734 0.59598,0.948685 0.59598,1.175446 0,0.499501 1.539758,2.381399 1.948446,2.381399 0.458692,0 0.340339,-3.37817 -0.165137,-4.713524 -0.911934,-2.409126 -2.169528,-8.599657 -2.140881,-10.53853 0.01949,-1.319152 0.356606,-2.908319 1.018239,-4.8 1.466384,-4.192552 2.167892,-6.767582 2.40976,-8.845531 0.177034,-1.520942 0.443227,-2.12986 1.468847,-3.36 C 28.663858,10.921556 32.96,2.7225544 32.96,1.9535341 c 0,-0.1513431 0.198483,-0.4398968 0.441075,-0.6412302 0.666352,-0.5530231 1.982435,0.082915 2.369274,1.1448456 0.342918,0.9413671 4.288342,5.8330009 5.064224,6.2787516 C 41.079558,8.8766467 41.28,9.1569066 41.28,9.3587012 c 0,0.2017942 0.369008,0.8993768 0.820016,1.5501848 0.451011,0.650807 1.016166,1.926847 1.255904,2.835645 0.336205,1.274499 0.762512,1.939871 1.864214,2.909627 1.729396,1.522275 1.984164,2.388729 1.467162,4.989754 -0.316326,1.591429 -0.315808,2.450097 0.0026,4.231548 0.23008,1.28745 0.585373,2.306333 0.838048,2.403293 0.241251,0.09258 0.681594,0.638147 0.978541,1.212379 0.778521,1.505498 0.260374,3.394376 -2.308266,8.414645 -0.585897,1.145108 -0.91791,3.654234 -0.633485,4.787473 0.172804,0.688499 0.39152,0.826752 1.307933,0.826752 1.652199,0 3.514211,-2.001268 5.787962,-6.220833 0.468515,-0.869456 1.280403,-2.009385 1.804192,-2.533174 0.933606,-0.933606 0.982662,-0.944576 2.493286,-0.557414 1.063034,0.272448 1.724083,0.294828 2.13144,0.07217 1.301962,-0.711651 8.954765,-2.083123 10.670496,-1.912272 l 1.12,0.111526 -0.110214,3.68 c -0.100336,3.350279 -0.186352,3.794685 -0.96,4.960001 -0.467383,0.704 -1.090339,1.460147 -1.384352,1.680329 -0.362512,0.271482 -0.599683,1.095428 -0.736883,2.56 -0.222861,2.3789 -0.659287,3.369802 -2.43106,5.519671 -0.652713,0.792 -1.27983,1.749702 -1.3936,2.128224 -0.113766,0.378525 -0.905126,1.397603 -1.758576,2.264624 -1.131824,1.149818 -2.030931,1.727123 -3.322585,2.133399 -2.016397,0.634236 -2.397002,1.205052 -1.599479,2.398841 0.306775,0.459204 0.778042,1.266912 1.047261,1.794912 0.280826,0.550762 1.147437,1.314807 2.032915,1.792314 0.848884,0.457776 1.856884,1.152634 2.24,1.544135 l 0.696573,0.711817 -1.44,1.255002 c -0.792,0.690249 -1.60895,1.255392 -1.815446,1.255869 -0.602634,0.0013 -2.338522,1.604025 -3.178307,2.934336 -0.646535,1.024176 -0.951271,1.226528 -1.847108,1.226528 -0.590054,0 -1.418668,0.272035 -1.84136,0.604525 -0.886566,0.697376 -3.015065,1.635475 -3.710803,1.635475 -0.261177,0 -0.744352,0.342592 -1.073721,0.761318 -0.73945,0.940061 -1.872781,1.18497 -3.066234,0.662602 z M 24.352249,70.666809 c 1.039494,-0.356637 2.7449,-1.481379 3.800987,-2.506806 1.24101,-1.204983 3.485673,-2.86272 4.714015,-3.481415 2.712573,-1.366272 4.368653,-0.773939 7.899725,2.825507 2.174077,2.216173 3.393024,3.076532 3.393024,2.394871 0,-0.389254 -0.763146,-1.577274 -1.314099,-2.045715 -0.319072,-0.271287 -0.62193,-0.925248 -0.673018,-1.453248 l -0.09288,-0.96 h 4 c 3.198301,0 4.149018,-0.105543 4.743501,-0.526589 0.408928,-0.289626 0.609779,-0.609235 0.446339,-0.710247 C 51.1064,64.102156 49.365178,63.953126 47.400461,63.87199 43.976371,63.730585 43.775408,63.682623 42.554122,62.715346 41.853354,62.160329 41.28,61.571462 41.28,61.406754 c 0,-0.877974 2.168154,-3.363654 7.811818,-8.955862 3.447424,-3.415991 6.268073,-6.31889 6.268112,-6.45089 1.47e-4,-0.508743 -1.145773,-0.208307 -1.525668,0.4 -0.219827,0.352 -0.606835,0.64 -0.860016,0.64 -0.25318,0 -2.086822,1.548 -4.074761,3.44 -1.987939,1.892 -4.551571,4.3288 -5.69696,5.415114 -2.164893,2.053232 -5.211853,3.889008 -6.137738,3.697949 -1.413123,-0.2916 -2.011693,-5.458868 -1.547229,-13.35675 0.881421,-14.987873 0.802893,-23.828235 -0.24158,-27.196314 -0.45256,-1.459363 -0.757732,2.355696 -1.036679,12.96 -0.159725,6.072 -0.440032,12.120001 -0.622909,13.440001 -0.182873,1.32 -0.462646,4.657917 -0.621712,7.417597 -0.159068,2.759677 -0.397366,5.207677 -0.529552,5.44 -0.469409,0.825008 -1.542464,1.862403 -1.926424,1.862403 -0.44828,0 -6.457474,-5.910406 -9.168377,-9.017654 -3.848123,-4.410737 -6.641258,-7.119412 -6.985955,-6.774717 -0.385986,0.385987 0.611451,1.678422 4.531997,5.872371 3.012996,3.223107 7.003633,8.235427 7.003633,8.796701 0,0.218346 0.288,0.763123 0.64,1.210618 0.891227,1.133011 0.904554,3.908579 0.02104,4.381424 -0.873224,0.467334 -3.462513,0.411184 -5.322957,-0.115434 C 19.21463,63.934892 14.4,63.588614 14.4,64.020063 c 0,0.366317 0.114572,0.406448 2.72,0.952768 1.056,0.221428 2.706254,0.597127 3.667232,0.834884 0.960977,0.23776 2.4252,0.432288 3.253828,0.432288 1.759375,0 2.51894,0.234736 2.51894,0.778454 0,0.623453 -1.315953,1.685382 -2.96,2.388621 -1.459369,0.624246 -1.767381,0.958877 -1.306667,1.41959 0.305314,0.305316 0.819412,0.265399 2.058916,-0.159859 z"
       id="path837"
       inkscape:connector-curvature="0" />
    <path
       style="fill:#8c8c8c;fill-opacity:1;stroke-width:0.31999999"
       d="m 44.915917,75.748662 c -0.376247,-0.213763 -1.220227,-1.036659 -1.875514,-1.828659 -0.655286,-0.792 -1.323027,-1.489194 -1.483872,-1.549319 -0.160845,-0.06012 -0.492835,-0.588924 -0.73776,-1.17511 -0.244921,-0.586186 -0.853344,-1.323789 -1.352041,-1.639117 -0.498701,-0.315331 -1.497562,-1.046531 -2.219687,-1.62489 -0.722128,-0.578361 -1.596653,-1.051564 -1.943392,-1.051564 -0.743094,0 -3.364562,2.395641 -5.019041,4.586675 -0.642353,0.850672 -1.773015,2.052224 -2.512582,2.670115 L 26.42736,75.26023 23.85368,75.08528 c -3.813493,-0.259229 -4.845297,-0.50737 -5.64375,-1.357287 -0.39682,-0.422393 -0.98107,-0.76799 -1.298334,-0.76799 -0.317263,0 -0.807469,-0.351981 -1.089347,-0.782183 -0.360259,-0.549824 -0.861515,-0.811238 -1.687377,-0.88 C 13.175866,71.217974 12.871807,71.01439 12.48,70.189782 12.139687,69.473548 11.647393,69.073014 10.788353,68.813446 10.108553,68.608038 8.6450947,67.603071 7.4543245,66.523945 6.287015,65.466083 4.8936589,64.373913 4.3579776,64.096902 3.1093374,63.451206 1.6,61.944537 1.6,61.343801 1.6,61.08781 1.78,60.741532 2,60.574287 2.6675978,60.06678 5.2506384,59.200002 6.0954374,59.200002 c 0.4367223,0 1.331386,-0.288 1.9881418,-0.64 0.6567555,-0.352 1.392991,-0.64 1.6360787,-0.64 0.2430877,0 0.6239871,-0.219309 0.8464441,-0.487353 C 11.089766,56.801673 10.277822,54.89942 8.8357286,53.378664 7.238457,51.694268 4.1347392,48.981122 3.1242818,48.385947 2.4621197,47.995922 2.2407119,47.657218 2.349038,47.200002 2.4324354,46.848002 2.7474653,45.642155 3.0491044,44.520341 3.4915984,42.87468 3.5282362,42.249368 3.2387696,41.283214 3.0414463,40.62461 2.8768375,39.526456 2.8729722,38.842875 2.8691069,38.159294 2.5928597,36.998526 2.2590897,36.26339 c -0.33377,-0.735133 -0.6546075,-2.247133 -0.7129721,-3.36 -0.1002895,-1.912263 -0.068044,-2.019463 0.5871262,-1.951902 0.3812841,0.03932 1.2293789,0.435317 1.8846551,0.88 0.6552761,0.444683 1.5450982,0.808513 1.9773827,0.808513 0.4322842,0 1.2056938,0.247936 1.7186877,0.55097 0.8556694,0.505456 1.0183494,0.509741 1.9693734,0.05186 0.5701613,-0.274505 1.7749983,-0.738092 2.6774153,-1.030192 1.540048,-0.498489 1.733157,-0.496841 3.146142,0.02685 1.5929,0.590372 4.6531,3.510263 4.6531,4.439757 0,0.274893 0.288,0.86594 0.64,1.313434 0.352,0.447494 0.64,1.054234 0.64,1.348304 0,0.294071 0.36,1.022627 0.8,1.619015 0.44,0.596387 0.8,1.265062 0.8,1.485948 0,0.52137 1.967511,2.362458 2.303059,2.155079 0.418321,-0.258538 0.294053,-2.412832 -0.247537,-4.29129 -0.964516,-3.345338 -2.104712,-8.480351 -2.271446,-10.229738 -0.125278,-1.314417 0.03562,-2.460703 0.635541,-4.527696 0.441809,-1.522233 0.966781,-3.073184 1.166605,-3.44656 0.450728,-0.842193 1.47616,-4.805517 1.791489,-6.924158 0.166695,-1.12 0.554952,-1.955155 1.330325,-2.861587 0.602212,-0.704 2.174494,-3.4848054 3.493961,-6.1795678 2.092032,-4.2725785 2.48816,-4.8868266 3.09552,-4.8000001 0.403894,0.05774 0.884633,0.5028634 1.144349,1.059568 0.443881,0.9514644 2.289427,3.26089 4.594144,5.7488812 0.657808,0.7101155 1.197808,1.4128896 1.2,1.5617207 0.0022,0.1488307 0.306924,0.696032 0.677177,1.216003 0.37025,0.519971 0.869792,1.694201 1.11009,2.609399 0.343101,1.306736 0.790163,1.99652 2.082259,3.212773 l 1.645357,1.548776 -0.219079,2.131224 c -0.478108,4.651115 -0.175888,6.933766 1.054996,7.968346 0.767846,0.645388 0.849043,0.917469 0.811721,2.72 -0.03833,1.851317 -0.296048,2.851893 -1.051625,4.082878 C 46.008227,37.446133 45.44,39.15356 45.44,41.05011 c 0,2.145152 0.333203,2.789892 1.44183,2.789892 1.518874,0 3.722951,-2.402391 5.871687,-6.400001 0.520304,-0.968 1.388016,-2.179494 1.928246,-2.692208 l 0.98224,-0.932204 1.277335,0.575996 c 1.189497,0.536391 1.332304,0.539978 2.076739,0.05221 0.439673,-0.288086 1.142985,-0.523792 1.562912,-0.523792 0.419929,0 1.180995,-0.127315 1.691261,-0.282924 0.873267,-0.266308 3.42511,-0.731028 6.404134,-1.166266 2.046464,-0.298992 2.236048,0.07791 2.027837,4.031466 -0.166634,3.164086 -0.233223,3.418265 -1.28,4.885907 -1.696416,2.37848 -1.894426,2.826976 -1.899504,4.302455 -0.0056,1.628649 -1.129136,3.994483 -2.527482,5.322147 -0.540342,0.51303 -1.131651,1.384893 -1.314022,1.937478 -0.512019,1.551434 -2.802723,3.592583 -4.789856,4.268029 -2.050813,0.697092 -2.550368,1.291936 -1.979309,2.356858 0.21968,0.409667 0.679878,1.282419 1.022659,1.939447 0.421914,0.808704 1.114256,1.443593 2.143267,1.965414 0.836013,0.423949 1.796589,1.076861 2.134612,1.450919 0.609718,0.674713 0.607187,0.6879 -0.32,1.665036 -0.514023,0.541716 -1.547485,1.275514 -2.296583,1.630666 C 58.175248,68.901167 56.64,70.451292 56.64,71.213296 c 0,0.580115 -1.009578,1.106707 -2.121763,1.106707 -0.486109,0 -1.411735,0.365833 -2.056944,0.812963 -0.645207,0.44713 -1.706215,0.899475 -2.357795,1.005213 -0.686957,0.111478 -1.569028,0.576586 -2.099479,1.107037 -0.973238,0.973235 -1.974048,1.136397 -3.088102,0.503446 z M 24.309301,70.823728 c 1.396019,-0.516061 4.522018,-2.847226 5.388844,-4.018647 0.22998,-0.310794 0.547585,-0.565078 0.705789,-0.565078 0.158205,0 0.817793,-0.35977 1.465753,-0.799488 3.230207,-2.192077 5.221331,-1.686657 8.872828,2.252252 1.46785,1.58338 2.764544,2.707236 3.123594,2.707236 0.921369,0 0.74376,-0.737773 -0.506109,-2.102311 -1.139462,-1.244003 -1.456381,-2.500134 -0.703654,-2.788982 0.228988,-0.08787 1.714489,-0.01482 3.301113,0.162307 2.671562,0.298272 2.983719,0.271594 4.223655,-0.360973 2.40439,-1.22663 1.692582,-1.630042 -2.876157,-1.630042 -2.978874,0 -3.289661,-0.0615 -4.446995,-0.88 -0.684365,-0.484 -1.246832,-1.096 -1.249933,-1.36 -0.01229,-1.045004 1.537014,-2.841593 7.675401,-8.900586 3.518112,-3.472608 6.39657,-6.55807 6.39657,-6.856582 0,-0.701072 -0.856682,-0.42233 -1.85295,0.602905 -0.403124,0.414845 -0.907124,0.757274 -1.12,0.760957 -0.374164,0.0065 -1.325175,0.8696 -8.719066,7.913306 -1.893686,1.804 -3.687357,3.28 -3.98593,3.28 -0.298576,0 -0.803497,0.288 -1.122054,0.64 -0.318557,0.352 -0.920438,0.64 -1.337517,0.64 -0.916547,0 -1.271856,-0.801331 -1.7672,-3.985561 -0.443494,-2.850945 -0.441328,-4.254228 0.01632,-10.574439 0.610835,-8.43554 0.822938,-20.775582 0.409616,-23.831323 -0.341837,-2.527249 -0.989885,-3.966691 -1.538742,-3.417836 -0.12801,0.128011 -0.282288,5.01544 -0.342839,10.860953 -0.08341,8.051873 -0.262278,11.869319 -0.737897,15.748206 -0.345293,2.816 -0.7444,7.107187 -0.886906,9.535974 -0.256547,4.372362 -0.268957,4.425825 -1.256443,5.413313 l -0.997326,0.997341 -3.780533,-3.813316 c -2.079293,-2.097321 -4.7392,-4.893312 -5.910904,-6.213312 -3.753977,-4.229098 -5.627785,-6.08 -6.155238,-6.08 -1.263163,0 -0.04913,1.676406 4.845609,6.691101 1.1,1.126957 2,2.160201 2,2.296099 0,0.135898 0.187272,0.437373 0.41616,0.669942 0.775773,0.78826 3.594123,4.578289 4.002812,5.382858 0.223503,0.44 0.614544,1.16 0.868981,1.6 0.577693,0.999012 0.603935,2.577309 0.05532,3.327578 -0.485247,0.663616 -2.26501,0.614083 -8.695002,-0.241984 -2.491296,-0.331683 -3.940967,-0.400902 -4.144,-0.197869 -0.482109,0.482109 0.113816,0.866672 1.895724,1.223357 0.88,0.176151 2.464,0.542087 3.52,0.813197 1.056,0.271107 2.829467,0.498054 3.941037,0.504323 1.111571,0.0063 2.314937,0.168688 2.674148,0.360931 0.633422,0.338999 0.621346,0.382308 -0.400584,1.436672 -0.589051,0.607748 -1.516291,1.17392 -2.102746,1.28394 -1.210092,0.227014 -1.865101,0.868941 -1.597698,1.565782 0.236997,0.617603 0.647003,0.608816 2.435144,-0.0522 z"
       id="path835"
       inkscape:connector-curvature="0" />
    <path
       style="fill:#767676;fill-opacity:1;stroke-width:0.31999999"
       d="m 43.106691,73.736396 c -1.077785,-1.156982 -2.161405,-2.520262 -2.408038,-3.02951 -0.246637,-0.509245 -0.690675,-1.002787 -0.986755,-1.096758 -0.296077,-0.09397 -1.180378,-0.752589 -1.965111,-1.463591 -0.784733,-0.711005 -1.748214,-1.373805 -2.141072,-1.47289 -0.903833,-0.227964 -2.159475,0.801296 -4.477468,3.670221 -0.949258,1.174874 -2.329446,2.671837 -3.067085,3.326586 -1.326484,1.177421 -1.3716,1.190554 -4.122277,1.2 -1.529613,0.0053 -2.870111,-0.134451 -2.978885,-0.310451 -0.108774,-0.176 -0.595304,-0.32 -1.081178,-0.32 -0.543477,0 -1.151067,-0.307837 -1.578998,-0.8 -0.382575,-0.44 -0.932031,-0.8 -1.221013,-0.8 -0.288982,0 -0.859058,-0.36 -1.266837,-0.8 -0.465284,-0.502051 -1.090052,-0.8 -1.677512,-0.8 -1.066521,0 -1.544576,-0.448931 -1.7038,-1.6 -0.0793,-0.573303 -0.278378,-0.771284 -0.70252,-0.698656 -0.880595,0.150784 -2.4395094,-0.699031 -3.9435292,-2.149748 -0.734463,-0.708432 -2.102463,-1.781536 -3.04,-2.384675 C 2.6473754,62.857721 1.525728,61.685897 1.7563291,61.084959 1.957591,60.560479 5.533769,59.200857 6.72,59.19783 7.16,59.19655 7.952,58.909682 8.48,58.560002 9.008,58.210322 9.674368,57.923269 9.9608176,57.922111 11.113694,57.917439 11.277637,57.091426 10.448434,55.465282 10.015052,54.615378 9.3948608,53.672258 9.070233,53.369461 8.7456048,53.066668 7.7417773,52.129829 6.8395053,51.287599 5.3405002,49.888351 4.3838166,49.095583 2.7763375,47.920607 2.3059645,47.576792 2.2551757,47.341227 2.5146759,46.706994 3.4067238,44.52677 3.8903411,42.291154 3.5938477,41.718302 3.4235309,41.389237 3.1860523,40.219672 3.0661176,39.119272 2.9461828,38.018869 2.5704047,36.506869 2.231055,35.759272 1.8778966,34.981253 1.6110504,33.681601 1.6070278,32.720001 c -0.00823,-1.967837 0.3922856,-2.140227 2.0445284,-0.88 0.5768697,0.44 1.4317836,0.8 1.8998086,0.8 0.4680253,0 1.3803395,0.283735 2.0273654,0.630519 1.1705143,0.627357 1.1815248,0.627357 2.1966112,0 0.5611106,-0.346784 1.3204276,-0.630519 1.6873726,-0.630519 0.366945,0 1.027967,-0.16439 1.468938,-0.365309 1.3918,-0.634146 3.556714,0.210116 5.374316,2.095844 0.857433,0.889571 1.647316,1.980118 1.755297,2.423433 0.107981,0.443319 0.462371,1.149453 0.787532,1.569188 0.325162,0.419734 0.591203,1.009417 0.591203,1.310403 0,0.300989 0.275049,0.796166 0.61122,1.100397 0.336171,0.30423 0.706442,0.938547 0.822824,1.409597 0.457343,1.851062 3.274782,3.68575 2.912283,1.896448 -0.08023,-0.396 -0.225844,-1.527722 -0.323595,-2.514935 -0.09775,-0.987213 -0.385116,-2.29128 -0.638589,-2.897923 -0.253472,-0.606647 -0.678339,-2.34896 -0.944147,-3.871811 C 23.614187,33.272481 23.244448,31.742016 23.058354,31.394295 22.546515,30.437916 22.649762,28.783238 23.36,26.560001 23.712,25.458145 24,24.393253 24,24.193575 c 0,-0.199678 0.266898,-0.864919 0.593108,-1.478313 0.326209,-0.613394 0.69623,-1.691261 0.822269,-2.395261 0.126039,-0.704 0.435141,-1.897033 0.686893,-2.651183 0.251751,-0.754151 0.45773,-1.933393 0.45773,-2.620538 0,-0.99847 0.257918,-1.547356 1.28438,-2.733339 0.706408,-0.816192 1.543124,-2.01295 1.859369,-2.6594629 0.316245,-0.6465126 0.733255,-1.4634778 0.92669,-1.8154778 0.193435,-0.352 0.942159,-1.9000001 1.66383,-3.4400001 1.112502,-2.3740045 1.428595,-2.8000001 2.077629,-2.8000001 0.547206,0 0.85318,0.2509391 1.072988,0.88 0.279543,0.7999975 3.341552,4.6321544 5.115114,6.4016508 0.396,0.3950922 0.72,0.8756365 0.72,1.0678762 0,0.1922399 0.279606,0.7049899 0.62135,1.1394439 0.341741,0.434455 0.782896,1.568091 0.980343,2.519191 0.310403,1.495197 0.583651,1.922811 2.018653,3.159058 1.644592,1.416807 1.658944,1.445226 1.581212,3.131282 -0.28822,6.251908 -0.09949,7.681516 1.156698,8.762048 0.704845,0.606281 0.809491,0.942491 0.773386,2.484698 -0.02298,0.980948 -0.261943,2.186564 -0.531053,2.679147 -0.269111,0.492582 -0.652263,1.255606 -0.851447,1.695606 -0.199187,0.44 -0.659251,1.36906 -1.022371,2.064576 -0.678749,1.300084 -0.967507,5.028138 -0.453827,5.859284 0.511917,0.828301 2.385014,0.450525 3.71247,-0.748752 0.696992,-0.62969 1.360522,-1.438739 1.474512,-1.797885 0.113988,-0.359149 0.767517,-1.391949 1.452285,-2.29511 0.684771,-0.903162 1.245655,-1.800756 1.246413,-1.994653 0.0022,-0.544199 1.865888,-2.36746 2.420051,-2.36746 0.27121,0 0.93105,0.226471 1.466314,0.503264 0.884224,0.457252 1.023942,0.457348 1.528134,9.6e-4 0.686919,-0.621654 6.817015,-1.828313 9.626877,-1.894976 l 2.08,-0.04935 0.09134,2.909347 c 0.05189,1.652749 -0.06137,3.242205 -0.262215,3.680001 -0.693161,1.510924 -1.440029,2.701558 -2.123155,3.384684 -0.478906,0.478906 -0.75791,1.270548 -0.902118,2.559655 -0.283655,2.535658 -0.697108,3.484762 -2.308311,5.298896 -0.756549,0.85183 -1.375541,1.800896 -1.375541,2.109034 0,0.968422 -3.198682,3.798691 -4.8,4.247155 -0.792,0.221808 -1.62,0.539706 -1.84,0.706442 -0.541478,0.41038 -0.506672,1.992403 0.05622,2.555296 0.250921,0.250918 0.665209,0.956397 0.92064,1.567728 0.311753,0.746137 0.819225,1.255305 1.543779,1.548947 1.549859,0.628112 2.839363,1.633159 2.839353,2.212999 -9e-6,0.497984 -1.945107,2.25982 -2.49488,2.25982 -0.763952,0 -2.912841,1.972612 -3.244876,2.978695 -0.325453,0.986134 -0.506964,1.116864 -1.744301,1.25633 -0.759578,0.08562 -1.819411,0.47976 -2.355184,0.875875 -0.535773,0.396115 -1.622685,0.793309 -2.415357,0.882656 -1.112051,0.125344 -1.596915,0.37303 -2.12289,1.084445 -0.528752,0.715177 -0.936771,0.922 -1.818931,0.922 -0.98896,0 -1.392816,-0.274327 -3.09688,-2.103607 z M 24.71162,70.829782 c 0.831391,-0.324378 2.452149,-1.44088 3.601686,-2.481111 2.201598,-1.992259 2.675193,-2.320547 4.922755,-3.412352 1.105558,-0.537049 1.704854,-0.632176 2.88,-0.457148 1.336125,0.199001 1.760905,0.504892 4.264467,3.070924 2.069142,2.120769 2.990189,2.849908 3.6,2.849908 0.45071,0 0.819472,-0.06377 0.819472,-0.141709 0,-0.392618 -1.364826,-2.382368 -1.730342,-2.522631 -0.532781,-0.204448 -0.830279,-1.296886 -0.499101,-1.832739 0.201593,-0.326185 0.786867,-0.333561 2.920777,-0.0368 2.894448,0.402522 4.316519,0.185638 5.674688,-0.865466 1.329834,-1.029177 0.594048,-1.320653 -3.333772,-1.320653 -3.626301,0 -3.657319,-0.0064 -4.781114,-0.993148 C 42.429011,62.14062 41.92,61.424319 41.92,61.095068 c 0,-0.686454 2.81927,-4.042343 5.758918,-6.855066 C 53.855459,48.330149 56,46.000063 56,45.198978 c 0,-0.749095 -0.04728,-0.777565 -0.56,-0.337213 -0.308,0.264528 -0.812,0.570326 -1.12,0.679555 -0.308,0.109226 -0.56,0.354067 -0.56,0.544087 0,0.190019 -0.447872,0.533808 -0.995274,0.763971 -0.547401,0.230166 -2.528742,1.915213 -4.402982,3.744554 -5.899216,5.757894 -8.017373,7.64607 -8.577357,7.64607 -0.298726,0 -0.882889,0.319181 -1.298144,0.709293 -1.125133,1.057008 -1.784496,0.474999 -2.107561,-1.860317 -0.143728,-1.038937 -0.414471,-2.415929 -0.601652,-3.059981 -0.312969,-1.076864 -0.231129,-4.375475 0.205159,-8.268995 0.278883,-2.488829 0.582963,-24.556761 0.358953,-26.050555 -0.251507,-1.67718 -1.394112,-3.369364 -1.820684,-2.69642 -0.148861,0.234835 -0.286304,3.450974 -0.305431,7.146974 -0.04379,8.464333 -0.473523,18.34305 -0.897846,20.640001 -0.178819,0.968 -0.427495,4.11647 -0.552605,6.996598 -0.19023,4.379082 -0.336957,5.453313 -0.896028,6.560001 -0.367701,0.727872 -0.885937,1.363296 -1.151634,1.412054 -0.450453,0.08266 -6.279998,-5.550989 -8.686007,-8.394125 -1.073739,-1.268819 -6.80631,-7.023875 -7.744148,-7.774528 C 13.614021,43.061538 13.44,43.095627 13.44,43.765867 c 0,0.709168 1.817989,2.94858 5.300732,6.529476 1.484597,1.526438 2.699268,2.879862 2.699268,3.007609 0,0.259303 2.516237,3.456941 3.516131,4.468305 0.354128,0.358188 0.643869,0.878771 0.643869,1.156844 0,0.278077 0.29669,0.882772 0.659311,1.34377 1.023693,1.301415 1.157427,2.871392 0.316244,3.712576 -0.612527,0.612528 -0.915844,0.671418 -2.516023,0.48849 C 23.058789,64.358534 21.736,64.134127 21.12,63.974252 20.504,63.814377 19.036499,63.682767 17.858885,63.681788 16.681272,63.680806 15.628774,63.536002 15.52,63.360002 c -0.319929,-0.517654 -1.761822,-0.367593 -1.982037,0.206276 -0.280671,0.731417 0.732469,1.393725 2.131996,1.393725 0.631201,0 1.435484,0.201616 1.787297,0.448035 0.665499,0.466134 2.706315,0.788566 6.173094,0.975302 2.701666,0.145523 3.102178,0.579616 1.64965,1.787971 -0.616,0.512452 -1.598399,1.02552 -2.183108,1.140157 -0.726835,0.142503 -1.157744,0.457338 -1.36229,0.995335 -0.590305,1.552621 0.04981,1.665072 2.977018,0.522979 z"
       id="path833"
       inkscape:connector-curvature="0" />
    <path
       style="fill:#606060;fill-opacity:1;stroke-width:0.31999999"
       d="M 43.13904,73.563276 C 42.092496,72.487078 41.108509,71.270608 40.9524,70.860012 40.796291,70.449417 40.266138,69.860486 39.774282,69.55128 39.282429,69.24207 38.212016,68.44254 37.39559,67.774543 c -0.816425,-0.667996 -1.775715,-1.21454 -2.131756,-1.21454 -0.603565,0 -1.558423,0.902204 -6.858166,6.48 l -1.748277,1.84 -2.528695,-0.01018 c -1.714562,-0.0069 -2.728684,-0.16144 -3.149858,-0.48 -0.341638,-0.258403 -0.948572,-0.469824 -1.348741,-0.469824 -0.400169,0 -0.880802,-0.286301 -1.068075,-0.636221 -0.187272,-0.349923 -0.685741,-0.722874 -1.107708,-0.828781 -0.421967,-0.105907 -1.016129,-0.467606 -1.320359,-0.803779 -0.330682,-0.365398 -0.976048,-0.611219 -1.604666,-0.611219 -1.117477,0 -1.371746,-0.234928 -1.904895,-1.76 -0.185208,-0.529789 -0.528472,-0.91728 -0.76598,-0.864672 -0.829162,0.183654 -2.362078,-0.33394 -3.0271849,-1.022141 -1.1719785,-1.212672 -4.2481987,-3.713188 -4.5680947,-3.713188 -0.609169,0 -2.398184,-1.87736 -2.2916114,-2.404777 0.1263134,-0.625111 1.9312162,-1.359178 4.4206997,-1.797933 0.9637226,-0.16985 1.9717226,-0.498935 2.24,-0.731299 C 8.9005002,58.513631 9.552,58.185445 10.08,58.016693 10.652308,57.833781 11.077861,57.455439 11.133751,57.079845 11.255356,56.262623 9.7779453,53.626424 8.7413907,52.811071 8.2973782,52.46181 7.0489242,51.388453 5.9670477,50.425832 4.8851715,49.463212 3.6685043,48.415403 3.2633427,48.097371 2.5436653,47.532459 2.5373441,47.478575 2.9891042,45.759567 c 0.2543304,-0.96776 0.6368212,-2.137748 0.84998,-2.599969 0.3158912,-0.684988 0.2992787,-0.98087 -0.089833,-1.6 C 3.4866848,41.141819 3.2021232,39.851067 3.1168921,38.691262 3.0316611,37.531454 2.739099,36.235454 2.466754,35.811262 2.194409,35.387067 1.8713833,34.212001 1.748919,33.200001 c -0.2180322,-1.801739 -0.2062916,-1.84 0.5646132,-1.84 0.4330015,0 1.045856,0.285728 1.3618985,0.634952 0.3463722,0.382738 1.1900698,0.716594 2.1240135,0.840485 0.8521648,0.113043 1.7135347,0.403315 1.9141552,0.64505 0.4826435,0.581549 1.5446768,0.558365 2.215095,-0.04836 0.8262776,-0.74777 4.1221336,-1.230823 5.6291456,-0.825025 1.522901,0.410074 4.112633,3.012567 4.428394,4.450215 0.118197,0.53815 0.412392,1.142355 0.653766,1.342678 0.241374,0.200324 0.52828,0.771341 0.637569,1.268932 0.109288,0.497587 0.478545,1.157955 0.820569,1.467485 0.342024,0.309526 0.621862,0.823446 0.621862,1.142044 0,0.933767 1.873486,2.84154 2.790472,2.84154 0.689212,0 0.77108,-0.102928 0.572682,-0.72 -0.127319,-0.396 -0.340778,-1.656 -0.474352,-2.8 -0.133574,-1.144 -0.550198,-2.975456 -0.925832,-4.069905 C 24.307337,36.435649 24,35.100049 24,34.562101 c 0,-0.537949 -0.275072,-1.760717 -0.611271,-2.717264 -0.648521,-1.845158 -0.599604,-3.794934 0.132587,-5.284836 0.216232,-0.44 0.485681,-1.312076 0.598775,-1.937946 0.113095,-0.62587 0.49234,-1.700318 0.842768,-2.387661 C 25.313286,21.54705 25.6,20.647975 25.6,20.236448 c 0,-0.411526 0.205811,-1.146225 0.457358,-1.632663 0.251548,-0.486439 0.56189,-1.811288 0.68965,-2.944109 0.195439,-1.73291 0.422815,-2.28813 1.433207,-3.499676 0.660503,-0.792 1.427266,-1.944 1.703917,-2.5599996 0.276651,-0.6160001 0.634514,-1.3360001 0.795252,-1.6000001 0.160738,-0.264 0.450587,-0.84 0.64411,-1.28 0.193524,-0.4400001 0.485014,-1.0160001 0.647756,-1.2800001 0.162744,-0.264 0.462993,-0.9328739 0.667224,-1.4863869 0.407945,-1.105634 1.442083,-2.3536132 1.95032,-2.3536132 0.178124,0 0.525529,0.4826519 0.772006,1.0725597 0.24648,0.5899078 1.607133,2.3857866 3.023674,3.9908417 1.416537,1.6050551 2.575526,3.038427 2.575526,3.1852709 0,0.1468438 0.344746,0.7342636 0.766099,1.3053766 0.421354,0.571113 0.866013,1.715089 0.988135,2.542169 0.189155,1.281082 0.477411,1.740732 1.94646,3.103783 1.995962,1.851942 2.414624,3.061713 1.614567,4.665465 -0.551216,1.10494 -0.701021,3.661958 -0.231536,3.952115 0.156048,0.09644 0.381926,0.716942 0.501952,1.378886 0.120025,0.661944 0.532349,1.448137 0.916275,1.747097 0.608298,0.473673 0.692384,0.831607 0.65399,2.783833 -0.03443,1.75062 -0.191795,2.428089 -0.72,3.099593 C 47.024173,34.899617 46.72,35.53547 46.72,35.840001 c 0,0.304532 -0.30528,0.941789 -0.678397,1.416132 -0.723197,0.919395 -1.184797,4.211661 -0.803507,5.730841 0.264051,1.052068 1.714512,1.400135 3.020432,0.724817 C 49.224086,43.212482 50.88,41.46284 50.88,40.941941 c 0,-0.158925 0.575379,-1.047879 1.278624,-1.975447 0.703242,-0.927571 1.279242,-1.861481 1.28,-2.075357 0.0022,-0.638025 1.94263,-2.651136 2.555344,-2.651136 0.312218,0 0.746931,0.216 0.966032,0.48 0.498064,0.600132 1.550515,0.618791 2.214803,0.03927 0.277859,-0.242406 1.729197,-0.61238 3.225197,-0.822166 1.496,-0.209785 3.337034,-0.587456 4.091184,-0.839267 1.690474,-0.564448 3.46655,-0.591453 3.803997,-0.05784 0.139126,0.22 0.204157,1.764951 0.144515,3.433223 -0.08499,2.377338 -0.239395,3.199709 -0.714067,3.803155 C 69.392534,40.699842 69.12,41.216923 69.12,41.425448 c 0,0.208528 -0.335622,0.67096 -0.74583,1.027629 -0.513431,0.446422 -0.8697,1.287024 -1.143367,2.697709 -0.218643,1.127069 -0.458198,2.359005 -0.532339,2.737635 -0.07414,0.378634 -0.762682,1.459203 -1.530083,2.401271 -0.767402,0.942067 -1.504826,2.072278 -1.638717,2.51158 -0.419338,1.375841 -3.273459,3.815783 -4.737331,4.049866 C 57.397274,57.074217 56.32,57.915903 56.32,58.782802 c 0,0.298541 0.327581,1.054541 0.727955,1.68 0.400375,0.62546 0.879159,1.4252 1.063965,1.7772 0.184803,0.352 0.794096,0.874218 1.353984,1.160484 0.559885,0.286265 1.485101,0.883264 2.056035,1.326662 l 1.038061,0.806176 -0.8,0.871907 c -0.44,0.479549 -1.376,1.134378 -2.08,1.455172 -1.801338,0.820828 -2.591014,1.556201 -3.156672,2.9396 -0.447501,1.094422 -0.599254,1.2 -1.724829,1.2 -0.813945,0 -1.603363,0.272387 -2.318499,0.8 -0.70831,0.522573 -1.505805,0.8 -2.299702,0.8 -0.946986,0 -1.40424,0.211984 -2.070724,0.96 -0.638464,0.716563 -1.135868,0.96 -1.961548,0.96 -0.93352,0 -1.403188,-0.305424 -3.008986,-1.956727 z M 23.834626,71.368697 c 0.105818,-0.171216 0.726316,-0.459737 1.378885,-0.641158 0.724492,-0.201415 1.928678,-1.045866 3.092561,-2.168695 2.968409,-2.863709 5.344619,-4.056893 7.640005,-3.836336 1.477347,0.141955 1.725856,0.312903 4.468541,3.073904 2.835612,2.854548 3.431465,3.21378 4.357926,2.627332 0.368982,-0.233565 0.287789,-0.483786 -0.439731,-1.355101 -0.490752,-0.587751 -1.090397,-1.183796 -1.332544,-1.324541 -0.508832,-0.295754 -0.596928,-1.718547 -0.116327,-1.878746 0.17817,-0.05939 1.63664,0.02784 3.241044,0.193818 2.828716,0.292656 2.96191,0.276374 4.396057,-0.537383 2.405843,-1.365107 2.018717,-1.659645 -2.420774,-1.841789 -3.781642,-0.155155 -3.929415,-0.18846 -4.88,-1.099868 C 42.676566,62.058838 42.24,61.308566 42.24,60.895468 c 0,-0.860346 2.97721,-4.131242 9.68,-10.634884 3.205869,-3.110617 4.4,-4.474349 4.4,-5.024925 0,-1.035862 -0.497405,-0.9496 -2.100896,0.364343 -0.751747,0.616 -1.506845,1.12 -1.677994,1.12 -0.171148,0 -2.000387,1.62 -4.064969,3.6 -6.981955,6.695911 -7.994192,7.581091 -8.897763,7.780938 -0.495892,0.109677 -0.9793,0.401833 -1.074237,0.649238 -0.09494,0.247402 -0.514464,0.449824 -0.932282,0.449824 -0.853366,0 -1.045331,-0.482665 -1.216841,-3.059545 -0.05928,-0.890749 -0.282772,-1.9465 -0.49664,-2.346116 -0.249975,-0.467085 -0.328778,-1.488659 -0.220653,-2.860454 0.09251,-1.173635 0.314557,-4.005885 0.49344,-6.293885 0.500019,-6.395412 0.785238,-18.781597 0.526864,-22.880001 -0.206499,-3.275491 -0.319315,-3.78142 -1.026359,-4.602657 -0.58296,-0.677116 -0.889062,-0.82795 -1.150233,-0.56678 -0.244208,0.244209 -0.395402,4.19872 -0.481837,12.602658 -0.09919,9.644508 -0.226438,12.56358 -0.598835,13.737692 -0.303136,0.95575 -0.560797,3.769923 -0.717808,7.84 -0.195437,5.066023 -0.357242,6.562586 -0.800677,7.405552 -0.305658,0.581056 -0.763476,1.13618 -1.017372,1.233607 -0.559013,0.214515 -2.94681,-1.921296 -6.939892,-6.207514 -6.16808,-6.620884 -8.74561,-9.244026 -9.285016,-9.449328 -0.308,-0.117229 -0.56,-0.361661 -0.56,-0.543188 0,-0.181523 -0.216,-0.330041 -0.48,-0.330041 -0.756078,0 -0.563194,1.07088 0.438044,2.431987 0.504925,0.686406 2.376925,2.755818 4.16,4.598691 1.783076,1.842874 3.241956,3.478493 3.241956,3.634711 0,0.156214 0.936,1.415392 2.08,2.79817 1.144,1.382777 2.08,2.784841 2.08,3.115696 0,0.330854 0.288,0.862189 0.64,1.180745 0.421658,0.381594 0.64,0.985591 0.64,1.770413 0,1.847943 -0.480095,2.054861 -3.784472,1.631095 -1.55038,-0.198829 -3.67312,-0.366612 -4.7172,-0.372848 -1.04408,-0.0062 -2.258328,-0.217133 -2.698328,-0.46866 -1.126338,-0.643872 -1.840418,-0.586627 -2.250947,0.180455 -0.520808,0.973139 0.0655,1.472611 1.940049,1.652733 0.87856,0.08442 1.85057,0.382621 2.160022,0.662672 0.410829,0.371795 1.578408,0.56991 4.327286,0.734253 2.070555,0.123788 3.85387,0.36944 3.962922,0.545891 0.287438,0.465081 -1.804895,2.068109 -2.991246,2.291725 -0.743947,0.140224 -1.097172,0.435305 -1.33387,1.114301 -0.177076,0.507958 -0.237715,1.007804 -0.134753,1.110768 0.309135,0.309136 2.268111,0.210915 2.475163,-0.124103 z"
       id="path831"
       inkscape:connector-curvature="0" />
    <path
       style="fill:#494949;fill-opacity:1;stroke-width:0.31999999"
       d="M 45.234358,75.199757 C 44.312061,74.831571 41.53689,71.857228 41.044704,70.709414 40.82729,70.20239 40.32329,69.616297 39.924704,69.406979 39.526115,69.197663 38.552,68.490863 37.76,67.836319 c -2.453968,-2.028076 -2.885197,-1.954454 -5.54753,0.947149 -0.556858,0.606906 -2.098955,2.226906 -3.426881,3.6 l -2.414411,2.496535 H 24.28675 c -1.337371,0 -2.30705,-0.168384 -2.705588,-0.469824 -0.341639,-0.2584 -0.946114,-0.4744 -1.343278,-0.48 -0.397164,-0.0056 -1.035133,-0.370176 -1.417708,-0.810176 -0.382575,-0.44 -0.874574,-0.8 -1.093331,-0.8 -0.218758,0 -0.825577,-0.36 -1.348487,-0.8 -0.536749,-0.451645 -1.355624,-0.8 -1.880552,-0.8 -1.15788,0 -1.697806,-0.516227 -1.697806,-1.623287 0,-0.79087 -0.118795,-0.866701 -1.577294,-1.006845 C 9.8244051,67.955513 9.398119,67.711715 7.4662502,65.941507 6.267711,64.843263 4.8534934,63.759702 4.323544,63.533593 3.7935949,63.307484 3,62.732322 2.56,62.255455 1.7771828,61.407046 1.7733416,61.378668 2.3811615,60.934214 c 0.3416388,-0.249818 0.8456388,-0.458791 1.1200001,-0.464388 0.274361,-0.0056 0.778361,-0.2216 1.12,-0.48 0.3416387,-0.258403 1.2193206,-0.469824 1.9504038,-0.469824 0.9228452,0 1.5063226,-0.19567 1.9084346,-0.64 0.3185555,-0.352 0.8543405,-0.64 1.1906333,-0.64 1.7197387,0 2.3157137,-1.212301 1.2766247,-2.596845 C 10.63225,55.223423 10.206808,54.491618 10.00183,54.016927 9.7968525,53.542236 9.2265866,52.896776 8.7345718,52.582572 8.2425574,52.268367 7.264,51.430114 6.56,50.719791 5.856,50.009464 4.7343824,49.013551 4.0675162,48.506645 2.8957965,47.615983 2.8619974,47.53549 3.0622032,46.112501 3.1761472,45.302626 3.4697651,44.321067 3.714687,43.931259 4.2846285,43.024165 4.2670237,41.928411 3.669823,41.13884 3.3791533,40.754539 3.2,39.79276 3.2,38.61661 3.2,37.304587 3.010168,36.406385 2.5873396,35.717771 2.0629282,34.863723 1.7749303,33.231534 1.8889945,31.760001 c 0.047963,-0.618772 0.6472582,-0.476874 1.6893636,0.4 0.6195686,0.521331 1.3426134,0.8 2.0757206,0.8 0.6404317,0 1.475416,0.275658 1.9386026,0.64 1.0326451,0.812279 1.3932307,0.80344 2.4923167,-0.0611 0.754612,-0.593577 1.31335,-0.704 3.643155,-0.72 l 2.751847,-0.0189 1.676709,1.76 c 0.931377,0.977642 1.678172,2.060871 1.68,2.436845 0.0018,0.372266 0.291291,1.042979 0.643291,1.490474 0.352,0.447494 0.64,1.035498 0.64,1.306669 0,0.271171 0.36,0.881485 0.8,1.356253 0.44,0.474768 0.8,1.146764 0.8,1.493328 0,0.769257 2.140365,2.796432 2.952577,2.796432 0.70374,0 1.085242,-0.810474 0.642089,-1.364074 -0.174313,-0.21776 -0.41896,-1.377962 -0.543658,-2.578227 -0.124699,-1.200266 -0.4881,-2.784266 -0.807558,-3.52 -0.319459,-0.735735 -0.680934,-2.375696 -0.803279,-3.644359 -0.129669,-1.344605 -0.409656,-2.462031 -0.671309,-2.679183 -0.598009,-0.496303 -0.584294,-3.264044 0.02198,-4.436458 0.258966,-0.500784 0.561309,-1.537633 0.671872,-2.304109 0.110564,-0.766475 0.474683,-1.78376 0.809153,-2.260633 C 25.326342,22.176085 25.6,21.309953 25.6,20.728219 c 0,-0.581733 0.288,-1.595042 0.64,-2.251797 0.399972,-0.746262 0.64,-1.805469 0.64,-2.824224 0,-1.468954 0.142371,-1.796769 1.44,-3.31566 0.792,-0.927046 1.44,-1.894037 1.44,-2.148868 0,-0.2548322 0.36,-0.9512831 0.8,-1.5476697 0.44,-0.5963865 0.8,-1.2856496 0.8,-1.531696 0,-0.2460464 0.288,-0.81349 0.64,-1.2609854 0.352,-0.4474956 0.64,-1.0292118 0.64,-1.2927027 0,-0.7510641 1.28183,-2.6346161 1.79296,-2.6346161 0.253418,0 0.630397,0.396 0.837731,0.88 0.400333,0.9345383 2.501827,3.5712014 4.489309,5.6325647 0.66,0.6845344 1.2,1.4152679 1.2,1.6238522 0,0.208584 0.36,0.867197 0.8,1.463583 0.519312,0.703889 0.8,1.506597 0.8,2.287835 0,1.053061 0.239997,1.433606 1.92,3.044401 1.734266,1.662821 1.919014,1.966026 1.909824,3.134334 -0.0056,0.711387 -0.2216,1.572953 -0.48,1.914592 C 45.651421,22.242801 45.44,23.043279 45.44,23.680001 c 0,0.636722 0.211421,1.4372 0.469824,1.778838 0.2584,0.341639 0.4744,1.018114 0.48,1.503278 0.0061,0.532934 0.326854,1.157464 0.810176,1.577708 0.704179,0.612277 0.8,0.951806 0.8,2.834729 0,1.599966 -0.150218,2.331492 -0.595981,2.902292 -0.327789,0.419735 -0.707597,1.123155 -0.844019,1.563155 -0.136422,0.44 -0.51623,1.143421 -0.844019,1.563156 -0.470336,0.602268 -0.595981,1.31399 -0.595981,3.376 0,2.977683 0.233482,3.380845 1.957917,3.380845 0.919081,0 1.487197,-0.266871 2.496,-1.172493 0.718345,-0.644874 1.306083,-1.436874 1.306083,-1.76 0,-0.32313 0.252,-0.844352 0.56,-1.158275 0.780122,-0.79512 2.319693,-3.080743 2.321482,-3.446433 0.0016,-0.325104 1.836025,-2.3828 2.124265,-2.3828 0.09532,0 0.53944,0.288 0.986935,0.64 1.014704,0.798167 1.718252,0.811485 2.374582,0.04495 0.383094,-0.447424 1.172358,-0.652871 3.181389,-0.828122 1.469539,-0.128189 3.065117,-0.436416 3.545728,-0.68495 C 66.454992,33.163344 67.64737,32.96 68.624109,32.96 H 70.4 v 3.137831 c 0,2.844528 -0.07478,3.239187 -0.8,4.22217 -0.44,0.596387 -0.8,1.21328 -0.8,1.370876 0,0.157594 -0.271786,0.52562 -0.603971,0.817831 -0.738471,0.649609 -1.27505,2.168214 -1.639984,4.641398 -0.233725,1.583968 -0.478147,2.073585 -1.597475,3.200001 -0.726842,0.731443 -1.400912,1.721129 -1.497933,2.199302 -0.0971,0.478598 -0.919757,1.572445 -1.830096,2.433405 -1.324496,1.252653 -1.953811,1.609005 -3.161287,1.790074 -2.287667,0.343059 -2.843436,2.001862 -1.349254,4.027113 0.44,0.596388 0.8,1.250045 0.8,1.452573 0,0.471568 1.049021,1.427427 1.566547,1.427427 0.563082,0 2.595754,1.604525 2.581792,2.037981 -0.01568,0.486973 -2.201817,2.121642 -2.839869,2.123501 -0.750377,0.0022 -2.5508,1.813668 -2.795094,2.812266 -0.27239,1.11344 -0.631856,1.335357 -2.172752,1.341354 -0.836906,0.0033 -1.501139,0.232025 -1.980074,0.681961 -0.435977,0.409578 -1.319843,0.744595 -2.237264,0.848 -1.014316,0.11433 -1.736249,0.411418 -2.179923,0.897079 -0.801654,0.877517 -1.707549,1.145465 -2.629005,0.777614 z M 24.232681,71.360003 c 0.447496,-0.352 1.049762,-0.64 1.33837,-0.64 0.288608,0 1.529188,-0.931751 2.756845,-2.07056 1.227657,-1.138807 2.392684,-2.074807 2.588949,-2.08 0.196265,-0.0052 0.738529,-0.309674 1.205033,-0.676624 1.243949,-0.97849 2.793328,-1.320029 4.375556,-0.964525 1.110192,0.249443 1.814566,0.792787 3.950857,3.047635 2.045219,2.158727 2.788787,2.744074 3.485792,2.744074 1.124778,0 1.456215,-0.802243 0.667027,-1.614541 -0.330611,-0.340295 -0.945168,-0.968115 -1.36568,-1.395159 -0.461641,-0.468809 -0.686918,-0.9788 -0.568582,-1.287177 0.163882,-0.427072 0.498794,-0.470794 2.04457,-0.266928 3.196841,0.421622 4.932553,0.258336 6.235036,-0.586563 1.249175,-0.810317 1.557623,-1.689124 0.707373,-2.015396 -0.278393,-0.106832 -2.063475,-0.194237 -3.966851,-0.194237 h -3.460678 l -0.967821,-1.102288 c -0.706605,-0.804777 -0.915888,-1.300896 -0.775399,-1.838124 0.105834,-0.404711 3.241904,-3.760682 6.969047,-7.457713 3.727142,-3.69703 6.864633,-6.973875 6.972205,-7.281875 0.237014,-0.678624 -0.04624,-1.52 -0.511722,-1.52 -0.328362,0 -0.734717,0.326899 -2.287238,1.84 -0.406317,0.396 -0.923312,0.72 -1.14888,0.72 -0.48458,0 -2.192119,1.537392 -7.878976,7.093866 -2.311367,2.258374 -4.462087,4.106134 -4.779376,4.106134 -0.31729,0 -0.902842,0.306218 -1.301232,0.680483 -1.164557,1.094045 -1.618858,0.60905 -1.88177,-2.008912 -0.128986,-1.284384 -0.45295,-2.668608 -0.71992,-3.076057 -0.553994,-0.845501 -0.379942,-4.348199 0.277066,-5.575831 0.406812,-0.760138 0.872508,-27.975182 0.50336,-29.416055 -0.107604,-0.419996 -0.572676,-1.16686 -1.033492,-1.659698 -1.651683,-1.766451 -1.698902,-1.438124 -1.805337,12.552564 -0.07643,10.047195 -0.186967,12.834571 -0.525091,13.241634 -0.301636,0.363132 -0.522682,2.482902 -0.747543,7.168733 -0.375328,7.821501 -0.351238,7.662045 -1.342698,8.887718 l -0.772169,0.95458 -3.794656,-3.892714 C 13.062214,41.812248 13.73134,42.451518 13.240834,42.942024 c -0.306358,0.306358 -0.377965,0.69167 -0.211823,1.139799 0.301097,0.812137 2.962382,3.874697 5.930989,6.825273 1.188,1.180784 2.16,2.282135 2.16,2.44745 0,0.37767 3.1352,4.320634 3.695297,4.647363 0.228079,0.133047 0.514716,0.709047 0.636972,1.280001 0.122255,0.57095 0.493508,1.295702 0.825007,1.61056 0.713747,0.677913 0.793316,2.230992 0.141994,2.771539 -0.658411,0.546432 -10.351761,-0.215331 -11.126376,-0.874378 -0.343258,-0.292048 -0.849985,-0.389465 -1.36,-0.261459 C 13.287922,62.69005 13.12,62.930882 13.12,63.694018 c 0,1.073069 0.852377,1.585985 2.635635,1.585985 0.546684,0 1.253463,0.234838 1.57062,0.521859 0.436489,0.395017 1.475355,0.56152 4.274141,0.68503 2.033621,0.08974 3.788453,0.310346 3.899627,0.490231 0.289285,0.468073 -1.694221,2.141948 -2.545072,2.147779 -0.936234,0.0064 -1.282055,0.279929 -1.777839,1.406096 -0.334608,0.760058 -0.333412,0.979485 0.0065,1.195101 0.738299,0.468301 2.213466,0.291177 3.049056,-0.366096 z"
       id="path829"
       inkscape:connector-curvature="0" />
    <path
       style="fill:#333333;fill-opacity:1;stroke-width:0.31999999"
       d="m 45.140694,74.968304 c -0.827558,-0.326426 -3.85888,-3.649652 -4.059993,-4.450951 -0.116256,-0.463203 -0.671171,-1.031078 -1.358615,-1.390336 -0.639145,-0.334019 -1.728243,-1.120243 -2.420214,-1.747162 -1.751699,-1.58702 -2.379994,-1.48422 -4.569872,0.747706 -1.0186,1.038157 -2.851365,2.910157 -4.072811,4.16 l -2.22081,2.272442 h -2.278028 c -1.507597,0 -2.488105,-0.158896 -2.899189,-0.469824 -0.341639,-0.2584 -0.848061,-0.4744 -1.125382,-0.48 -0.27732,-0.0056 -0.842422,-0.370176 -1.25578,-0.810176 -0.413358,-0.44 -0.876291,-0.8 -1.028738,-0.8 -0.152448,0 -0.682556,-0.299709 -1.178018,-0.666019 C 16.177781,70.96767 15.283612,70.628179 14.686201,70.579552 14.088791,70.530928 13.492,70.470636 13.36,70.445571 c -0.132,-0.02506 -0.24,-0.393792 -0.24,-0.819395 0,-1.505937 -0.29764,-1.786173 -1.897091,-1.786173 -1.4153468,0 -1.6434911,-0.12714 -3.6901346,-2.056445 C 6.3329402,64.652511 5.0280323,63.645986 4.6329792,63.546834 3.680896,63.307878 1.8166965,61.546038 2.0745258,61.12886 c 0.1117848,-0.18087 0.5227057,-0.328858 0.9131577,-0.328858 0.3904519,0 0.9939533,-0.196163 1.3411146,-0.435916 C 4.675959,60.124329 5.68,59.824044 6.56,59.696783 7.44,59.569526 8.448,59.201218 8.8,58.878325 c 0.352,-0.322889 1.072,-0.634604 1.6,-0.692697 0.830041,-0.09133 0.973928,-0.251155 1.062886,-1.18064 0.06978,-0.72913 -0.09856,-1.295408 -0.523221,-1.76 C 10.595307,54.868245 10.214086,54.232165 10.092509,53.831477 9.9709325,53.430789 9.4863818,52.860559 9.0157302,52.564303 8.5450784,52.268047 7.584,51.484072 6.88,50.822136 6.176,50.160204 5.0459741,49.114162 4.3688314,48.497605 3.1708759,47.406827 3.1435703,47.333634 3.3566454,45.784392 3.4770858,44.908687 3.7791117,44.023323 4.0278141,43.816917 4.6026912,43.339813 4.6145549,41.790037 4.0469373,41.318955 3.7923936,41.107704 3.5283181,39.947426 3.406329,38.504299 3.2797283,37.006625 3.0079626,35.838197 2.7095128,35.508414 2.4404139,35.211061 2.1326296,34.228027 2.0255479,33.323889 1.8610226,31.93473 1.9121391,31.680001 2.3554269,31.680001 c 0.2885152,0 0.8125731,0.288 1.1645731,0.64 0.4180675,0.418067 1.0666666,0.64 1.8704038,0.64 0.8240068,0 1.4217088,0.211389 1.8095962,0.64 0.7613702,0.841306 2.4054035,0.841306 3.125751,0 0.566558,-0.661693 1.843923,-0.847219 4.714249,-0.684707 1.288779,0.07297 1.616425,0.268253 3.12,1.859597 0.99425,1.052288 1.68,2.069741 1.68,2.492627 0,0.393005 0.288,1.046624 0.64,1.452484 0.352,0.405859 0.64,0.981574 0.64,1.279366 0,0.297792 0.279838,0.794691 0.621862,1.104218 0.342024,0.309529 0.713569,0.980313 0.825654,1.490636 0.295106,1.34361 1.914124,2.84578 3.067143,2.84578 1.087536,0 1.573556,-0.793296 0.842638,-1.375373 -0.319876,-0.254739 -0.540805,-1.195101 -0.654221,-2.784627 -0.100504,-1.408554 -0.443434,-2.994868 -0.830133,-3.840001 -0.41116,-0.898592 -0.66153,-2.115574 -0.665915,-3.236844 -0.0051,-1.304535 -0.182379,-2.01977 -0.647028,-2.610474 -0.80304,-1.0209 -0.80304,-2.570191 0,-4.232682 0.340056,-0.704 0.62317,-1.80058 0.629142,-2.436845 0.0062,-0.659672 0.286989,-1.507889 0.65337,-1.973668 0.353382,-0.449252 0.732775,-1.512672 0.843096,-2.363155 0.110321,-0.850483 0.413214,-1.791377 0.673096,-2.090876 0.26531,-0.305755 0.548497,-1.491156 0.645792,-2.703241 0.15709,-1.957007 0.28694,-2.276986 1.389786,-3.424719 0.669078,-0.696312 1.303241,-1.660921 1.40925,-2.143577 C 30.029541,9.7412637 30.396114,9.0931136 30.738138,8.7835859 31.080162,8.4740582 31.36,7.9025462 31.36,7.513559 c 0,-0.3889869 0.288,-1.0733818 0.64,-1.5208775 0.352,-0.4474954 0.64,-1.0094877 0.64,-1.2488717 0,-0.682352 1.60743,-2.8746659 2.009478,-2.7406502 0.198615,0.066205 0.472314,0.5425781 0.608218,1.0586067 0.135907,0.5160287 0.862522,1.6012822 1.614701,2.4116742 C 40.214429,9.0741127 40.96,9.9965917 40.96,10.530951 c 0,0.313422 0.269946,0.814156 0.599882,1.112742 0.349868,0.316629 0.668582,1.152412 0.764726,2.005398 0.142707,1.266103 0.427434,1.727453 2.120118,3.435321 2.120461,2.139476 2.470852,3.255487 1.395274,4.443988 -0.36671,0.405211 -0.56,1.139727 -0.56,2.128054 0,1.010725 0.184979,1.694239 0.56,2.069261 0.308,0.308 0.56,0.955746 0.56,1.439436 0,0.550613 0.314368,1.152774 0.840774,1.61048 0.800256,0.695813 0.830288,0.833403 0.623172,2.854998 -0.147319,1.437894 -0.418896,2.338217 -0.840778,2.787289 C 46.680426,34.78275 46.4,35.373937 46.4,35.731662 c 0,0.357728 -0.277616,0.970506 -0.616925,1.361731 -0.739613,0.852784 -1.202419,4.382173 -0.772285,5.889489 0.27056,0.948112 0.398237,1.023497 1.881888,1.111142 1.418282,0.08378 1.716989,-0.0208 2.742589,-0.960208 0.633027,-0.57983 1.263459,-1.414141 1.40096,-1.854026 0.137501,-0.439884 0.806602,-1.467772 1.48689,-2.284198 C 53.203402,38.179166 53.76,37.293973 53.76,37.028497 c 0,-0.593648 1.604144,-2.468496 2.112077,-2.468496 0.203257,0 0.548822,0.216 0.767923,0.48 0.526358,0.634224 2.231194,0.614368 2.703453,-0.03149 0.267869,-0.366329 1.0952,-0.556921 2.915277,-0.671596 1.592224,-0.100317 3.023065,-0.395466 3.831376,-0.790327 0.854246,-0.417299 1.773193,-0.595821 2.72,-0.528403 L 70.24,33.119999 70.1658,36.26215 c -0.06127,2.594627 -0.18673,3.285213 -0.72,3.963155 -0.355189,0.451554 -0.6458,1.012521 -0.6458,1.246591 0,0.234074 -0.252,0.561462 -0.56,0.727533 -0.665584,0.35887 -1.538416,2.754614 -1.835334,5.037619 -0.179303,1.378656 -0.436388,1.856375 -1.628788,3.026628 C 63.997146,51.027944 63.36,51.95388 63.36,52.321311 c 0,0.376243 -0.717946,1.389776 -1.643613,2.320307 -1.354461,1.361581 -1.903341,1.689799 -3.12,1.865683 C 56.605846,56.795065 56.32,57.096508 56.32,58.907925 c 0,1.222055 0.135267,1.621953 0.64,1.892077 0.352,0.188384 0.64,0.593412 0.64,0.900058 0,0.882698 0.865773,1.88721 1.832534,2.126202 0.488106,0.120662 1.284733,0.59727 1.770282,1.059129 l 0.882813,0.839744 -0.952167,0.869668 c -0.523689,0.47832 -1.352956,0.961059 -1.842812,1.072755 -1.287751,0.293625 -2.708544,1.660096 -2.948752,2.836003 -0.194362,0.951472 -0.315972,1.029763 -1.902525,1.224871 -1.201303,0.147728 -1.831875,0.404003 -2.165277,0.88 -0.368304,0.52583 -0.808714,0.671571 -2.029386,0.671571 -1.502044,0 -1.702006,0.101417 -2.817328,1.428896 -0.411286,0.48952 -1.414716,0.603354 -2.286688,0.259405 z M 24.086618,71.513859 c 0.145851,-0.260621 0.598228,-0.473856 1.005282,-0.473856 0.786924,0 2.184374,-1.000387 4.13524,-2.960279 0.657113,-0.660153 1.657826,-1.420006 2.223806,-1.68856 C 32.016925,66.122607 32.84,65.684646 33.28,65.417913 c 0.537139,-0.325616 1.360166,-0.444909 2.504822,-0.363053 1.676628,0.119898 1.752218,0.170403 4.57024,3.05353 1.575978,1.612387 3.086272,2.931613 3.356212,2.931613 0.69975,0 1.728726,-0.600407 1.728726,-1.008704 0,-0.190407 -0.576,-0.905178 -1.28,-1.588388 -2.031686,-1.971683 -1.830256,-2.162051 2.076726,-1.962649 3.28618,0.167718 3.383991,0.152425 4.654013,-0.727703 1.596336,-1.106259 1.746947,-1.336982 1.257629,-1.926573 -0.298269,-0.359388 -1.243171,-0.465984 -4.130707,-0.465984 H 44.273683 L 43.416842,62.051286 C 42.945578,61.33149 42.56,60.586338 42.56,60.395394 c 0,-0.190947 3.168,-3.490659 7.04,-7.332698 6.084317,-6.037235 7.04,-7.117014 7.04,-7.95415 0,-1.509479 -0.790048,-1.520839 -2.234784,-0.03214 -0.697747,0.718979 -1.596365,1.390387 -1.996925,1.492016 -0.40056,0.101629 -3.320291,2.69625 -6.488291,5.765821 -3.41073,3.304762 -6.012618,5.582004 -6.379376,5.583399 -0.340656,0.0013 -0.96024,0.322585 -1.376854,0.713974 -1.014125,0.95272 -1.352375,0.406983 -1.358871,-2.192435 C 36.801499,55.091421 36.649926,54.353815 36.32,54.08 c -0.671658,-0.557427 -0.653478,-4.49631 0.02682,-5.811872 0.438282,-0.847543 0.514016,-2.956631 0.56,-15.595079 L 36.96,18.058061 36.16,17.038624 c -0.491402,-0.62619 -1.04688,-0.992277 -1.44,-0.94903 -0.583184,0.06416 -0.657693,0.382893 -0.83929,3.590407 -0.109609,1.936 -0.217609,7.737066 -0.24,12.891258 -0.03435,7.908688 -0.118723,9.49032 -0.540556,10.134125 -0.393335,0.600301 -0.546781,2.217411 -0.720084,7.58874 -0.207836,6.441769 -0.261968,6.884403 -0.96194,7.865878 -0.407941,0.572 -0.846714,1.04 -0.975053,1.04 -0.128338,0 -2.210863,-2.052 -4.627833,-4.56 -8.620353,-8.945018 -11.800691,-12.08 -12.254772,-12.08 -0.588331,0 -0.880727,0.758307 -0.648071,1.680717 0.146474,0.58072 4.090565,4.973309 7.551797,8.410537 0.360691,0.358189 0.655802,0.819466 0.655802,1.02506 0,0.205593 0.934876,1.424531 2.077503,2.708745 1.166644,1.311213 2.078597,2.633437 2.08,3.015761 0.0014,0.374448 0.226359,0.866604 0.499968,1.09368 0.81282,0.674582 1.131369,1.519174 0.908257,2.408124 l -0.209762,0.835757 -5.157983,-0.225001 c -4.534479,-0.197802 -5.242876,-0.302765 -5.860267,-0.868327 -0.944413,-0.865129 -2.24841,-0.552294 -2.539964,0.609351 -0.328545,1.309027 0.222964,1.852486 1.995027,1.965904 0.986067,0.06311 1.806596,0.324841 2.212752,0.705817 0.537043,0.503754 1.279193,0.628509 4.415953,0.742317 2.073732,0.07524 3.865616,0.231991 3.981963,0.348339 0.297664,0.297664 -1.520841,1.737613 -2.483447,1.966474 -0.44,0.104611 -0.964168,0.239578 -1.164817,0.29993 -0.302671,0.09104 -1.395183,1.889171 -1.395183,2.296291 0,0.06663 0.324,0.256829 0.72,0.422662 0.932944,0.390692 2.547566,0.117572 2.886618,-0.488281 z"
       id="path827"
       inkscape:connector-curvature="0" />
  </g>
</svg>
